<?xml version="1.0" encoding="UTF-8" standalone="no"?>
<!DOCTYPE svg PUBLIC "-//W3C//DTD SVG 1.1//EN"
 "http://www.w3.org/Graphics/SVG/1.1/DTD/svg11.dtd">
<!-- Generated by graphviz version 2.26.3 (20100126.1600)
 -->
<!-- Title: Network&#45;Music/audiograph.cpp Pages: 1 -->
<!--zoomable 160 -->
<svg id="main" version="1.1" xmlns="http://www.w3.org/2000/svg" xmlns:xlink="http://www.w3.org/1999/xlink" xml:space="preserve" onload="init(evt)">
        <defs>
                <circle id="rim" cx="0" cy="0" r="7"/>
                <circle id="rim2" cx="0" cy="0" r="3.5"/>
                <g id="zoomPlus">
                        <use xlink:href="#rim" fill="#404040">
                                <set attributeName="fill" to="#808080" begin="zoomplus.mouseover" end="zoomplus.mouseout"/>
                        </use>
                        <path d="M-4,0h8M0,-4v8" fill="none" stroke="white" stroke-width="1.5" pointer-events="none"/>
                </g>
                <g id="zoomMin">
                        <use xlink:href="#rim" fill="#404040">
                                <set attributeName="fill" to="#808080" begin="zoomminus.mouseover" end="zoomminus.mouseout"/>
                        </use>
                        <path d="M-4,0h8" fill="none" stroke="white" stroke-width="1.5" pointer-events="none"/>
                </g>
                <g id="dirArrow">
                        <path fill="none" stroke="white" stroke-width="1.5" d="M0,-3.0v7 M-2.5,-0.5L0,-3.0L2.5,-0.5"/>
                </g>
               <g id="resetDef">
                       <use xlink:href="#rim2" fill="#404040">
                               <set attributeName="fill" to="#808080" begin="reset.mouseover" end="reset.mouseout"/>
                       </use>
               </g>
        </defs>

<script type="text/javascript">
var viewWidth = 1866;
var viewHeight = 160;
var sectionId = 'dynsection-0';
</script>
<script xlink:href="svgpan.js"/>
<svg id="graph" class="graph">
<g id="viewport">
<title>Network&#45;Music/audiograph.cpp</title>
<polygon fill="white" stroke="white" points="-4,5 -4,-156 1863,-156 1863,5 -4,5"/>
<!-- Node1 -->
<g id="node1" class="node"><title>Node1</title>
<polygon fill="#bfbfbf" stroke="black" points="872,-130.5 872,-151.5 1024,-151.5 1024,-130.5 872,-130.5"/>
<text text-anchor="middle" x="948" y="-138.5" font-family="Helvetica,sans-Serif" font-size="10.00">Network&#45;Music/audiograph.cpp</text>
</g>
<!-- Node2 -->
<g id="node3" class="node"><title>Node2</title>
<a xlink:href="audiograph_8h.html" target="_top" xlink:title="audiograph.h">
<polygon fill="white" stroke="black" points="912,-72.5 912,-93.5 984,-93.5 984,-72.5 912,-72.5"/>
<text text-anchor="middle" x="948" y="-80.5" font-family="Helvetica,sans-Serif" font-size="10.00">audiograph.h</text>
</a>
</g>
<!-- Node1&#45;&gt;Node2 -->
<g id="edge2" class="edge"><title>Node1&#45;&gt;Node2</title>
<path fill="none" stroke="midnightblue" d="M948,-130.362C948,-122.922 948,-112.743 948,-103.728"/>
<polygon fill="midnightblue" stroke="midnightblue" points="951.5,-103.571 948,-93.5707 944.5,-103.571 951.5,-103.571"/>
</g>
<!-- Node3 -->
<g id="node5" class="node"><title>Node3</title>
<polygon fill="white" stroke="#bfbfbf" points="0,-1 0,-35 104,-35 104,-1 0,-1"/>
<text text-anchor="start" x="8" y="-22" font-family="Helvetica,sans-Serif" font-size="10.00">QtDataVisualization</text>
<text text-anchor="middle" x="52" y="-9" font-family="Helvetica,sans-Serif" font-size="10.00">/q3dscatter.h</text>
</g>
<!-- Node2&#45;&gt;Node3 -->
<g id="edge4" class="edge"><title>Node2&#45;&gt;Node3</title>
<path fill="none" stroke="midnightblue" d="M911.969,-82.0782C775.503,-78.4189 289.684,-63.8248 114.17,-35.9041"/>
<polygon fill="midnightblue" stroke="midnightblue" points="114.495,-32.41 104.056,-34.2196 113.345,-39.3149 114.495,-32.41"/>
</g>
<!-- Node4 -->
<g id="node7" class="node"><title>Node4</title>
<polygon fill="white" stroke="#bfbfbf" points="121.5,-1 121.5,-35 226.5,-35 226.5,-1 121.5,-1"/>
<text text-anchor="start" x="129.5" y="-22" font-family="Helvetica,sans-Serif" font-size="10.00">QtDataVisualization</text>
<text text-anchor="middle" x="174" y="-9" font-family="Helvetica,sans-Serif" font-size="10.00">/qabstract3dseries.h</text>
</g>
<!-- Node2&#45;&gt;Node4 -->
<g id="edge6" class="edge"><title>Node2&#45;&gt;Node4</title>
<path fill="none" stroke="midnightblue" d="M911.756,-81.6714C788.575,-76.994 385.858,-60.3351 236.61,-36.0233"/>
<polygon fill="midnightblue" stroke="midnightblue" points="237.177,-32.5695 226.73,-34.3354 235.998,-39.4695 237.177,-32.5695"/>
</g>
<!-- Node5 -->
<g id="node9" class="node"><title>Node5</title>
<polygon fill="white" stroke="#bfbfbf" points="244,-7.5 244,-28.5 316,-28.5 316,-7.5 244,-7.5"/>
<text text-anchor="middle" x="280" y="-15.5" font-family="Helvetica,sans-Serif" font-size="10.00">QtGui/QFont</text>
</g>
<!-- Node2&#45;&gt;Node5 -->
<g id="edge8" class="edge"><title>Node2&#45;&gt;Node5</title>
<path fill="none" stroke="midnightblue" d="M911.921,-81.7222C796.605,-77.4117 437.927,-62.1913 325,-36 320.758,-35.0162 316.392,-33.6946 312.126,-32.2119"/>
<polygon fill="midnightblue" stroke="midnightblue" points="313.049,-28.8185 302.457,-28.5434 310.565,-35.3633 313.049,-28.8185"/>
</g>
<!-- Node6 -->
<g id="node11" class="node"><title>Node6</title>
<polygon fill="white" stroke="#bfbfbf" points="334,-7.5 334,-28.5 456,-28.5 456,-7.5 334,-7.5"/>
<text text-anchor="middle" x="395" y="-15.5" font-family="Helvetica,sans-Serif" font-size="10.00">QtWidgets/QApplication</text>
</g>
<!-- Node2&#45;&gt;Node6 -->
<g id="edge10" class="edge"><title>Node2&#45;&gt;Node6</title>
<path fill="none" stroke="midnightblue" d="M911.993,-81.403C831.394,-77.4128 630.531,-65.1558 465,-36 457.267,-34.6379 449.131,-32.8661 441.253,-30.9664"/>
<polygon fill="midnightblue" stroke="midnightblue" points="442.011,-27.5482 431.46,-28.5128 440.309,-34.3383 442.011,-27.5482"/>
</g>
<!-- Node7 -->
<g id="node13" class="node"><title>Node7</title>
<polygon fill="white" stroke="#bfbfbf" points="474,-7.5 474,-28.5 578,-28.5 578,-7.5 474,-7.5"/>
<text text-anchor="middle" x="526" y="-15.5" font-family="Helvetica,sans-Serif" font-size="10.00">QtWidgets/QWidget</text>
</g>
<!-- Node2&#45;&gt;Node7 -->
<g id="edge12" class="edge"><title>Node2&#45;&gt;Node7</title>
<path fill="none" stroke="midnightblue" d="M911.816,-80.1884C846.436,-74.6883 704.492,-60.8217 587,-36 580.832,-34.6969 574.381,-33.0798 568.08,-31.3535"/>
<polygon fill="midnightblue" stroke="midnightblue" points="568.942,-27.9596 558.365,-28.5803 567.02,-34.6907 568.942,-27.9596"/>
</g>
<!-- Node8 -->
<g id="node15" class="node"><title>Node8</title>
<polygon fill="white" stroke="#bfbfbf" points="596,-7.5 596,-28.5 724,-28.5 724,-7.5 596,-7.5"/>
<text text-anchor="middle" x="660" y="-15.5" font-family="Helvetica,sans-Serif" font-size="10.00">QtWidgets/QHBoxLayout</text>
</g>
<!-- Node2&#45;&gt;Node8 -->
<g id="edge14" class="edge"><title>Node2&#45;&gt;Node8</title>
<path fill="none" stroke="midnightblue" d="M911.795,-75.3919C869.011,-66.3303 795.707,-50.5823 733,-36 726.252,-34.4307 719.164,-32.7384 712.167,-31.0414"/>
<polygon fill="midnightblue" stroke="midnightblue" points="712.576,-27.5385 702.031,-28.5658 710.915,-34.3386 712.576,-27.5385"/>
</g>
<!-- Node9 -->
<g id="node17" class="node"><title>Node9</title>
<polygon fill="white" stroke="#bfbfbf" points="741.5,-7.5 741.5,-28.5 868.5,-28.5 868.5,-7.5 741.5,-7.5"/>
<text text-anchor="middle" x="805" y="-15.5" font-family="Helvetica,sans-Serif" font-size="10.00">QtWidgets/QVBoxLayout</text>
</g>
<!-- Node2&#45;&gt;Node9 -->
<g id="edge16" class="edge"><title>Node2&#45;&gt;Node9</title>
<path fill="none" stroke="midnightblue" d="M924.706,-72.412C901.023,-61.6468 864.132,-44.878 837.562,-32.8009"/>
<polygon fill="midnightblue" stroke="midnightblue" points="838.836,-29.5353 828.284,-28.5835 835.939,-35.9079 838.836,-29.5353"/>
</g>
<!-- Node10 -->
<g id="node19" class="node"><title>Node10</title>
<polygon fill="white" stroke="#bfbfbf" points="885.5,-7.5 885.5,-28.5 1010.5,-28.5 1010.5,-7.5 885.5,-7.5"/>
<text text-anchor="middle" x="948" y="-15.5" font-family="Helvetica,sans-Serif" font-size="10.00">QtWidgets/QPushButton</text>
</g>
<!-- Node2&#45;&gt;Node10 -->
<g id="edge18" class="edge"><title>Node2&#45;&gt;Node10</title>
<path fill="none" stroke="midnightblue" d="M948,-72.2666C948,-63.1799 948,-49.8919 948,-38.7395"/>
<polygon fill="midnightblue" stroke="midnightblue" points="951.5,-38.5337 948,-28.5337 944.5,-38.5337 951.5,-38.5337"/>
</g>
<!-- Node11 -->
<g id="node21" class="node"><title>Node11</title>
<polygon fill="white" stroke="#bfbfbf" points="1027.5,-7.5 1027.5,-28.5 1146.5,-28.5 1146.5,-7.5 1027.5,-7.5"/>
<text text-anchor="middle" x="1087" y="-15.5" font-family="Helvetica,sans-Serif" font-size="10.00">QtWidgets/QCheckBox</text>
</g>
<!-- Node2&#45;&gt;Node11 -->
<g id="edge20" class="edge"><title>Node2&#45;&gt;Node11</title>
<path fill="none" stroke="midnightblue" d="M970.642,-72.412C993.562,-61.6941 1029.21,-45.025 1055.01,-32.9601"/>
<polygon fill="midnightblue" stroke="midnightblue" points="1056.79,-35.99 1064.37,-28.5835 1053.83,-29.6491 1056.79,-35.99"/>
</g>
<!-- Node12 -->
<g id="node23" class="node"><title>Node12</title>
<polygon fill="white" stroke="#bfbfbf" points="1164,-7.5 1164,-28.5 1286,-28.5 1286,-7.5 1164,-7.5"/>
<text text-anchor="middle" x="1225" y="-15.5" font-family="Helvetica,sans-Serif" font-size="10.00">QtWidgets/QComboBox</text>
</g>
<!-- Node2&#45;&gt;Node12 -->
<g id="edge22" class="edge"><title>Node2&#45;&gt;Node12</title>
<path fill="none" stroke="midnightblue" d="M984.344,-75.0758C1025.74,-65.9745 1095.36,-50.4349 1155,-36 1161.47,-34.4331 1168.27,-32.7422 1174.98,-31.0461"/>
<polygon fill="midnightblue" stroke="midnightblue" points="1175.87,-34.4305 1184.7,-28.571 1174.15,-27.6469 1175.87,-34.4305"/>
</g>
<!-- Node13 -->
<g id="node25" class="node"><title>Node13</title>
<polygon fill="white" stroke="#bfbfbf" points="1304,-7.5 1304,-28.5 1446,-28.5 1446,-7.5 1304,-7.5"/>
<text text-anchor="middle" x="1375" y="-15.5" font-family="Helvetica,sans-Serif" font-size="10.00">QtWidgets/QFontComboBox</text>
</g>
<!-- Node2&#45;&gt;Node13 -->
<g id="edge24" class="edge"><title>Node2&#45;&gt;Node13</title>
<path fill="none" stroke="midnightblue" d="M984.128,-79.1517C1047.39,-72.1807 1182.21,-56.2871 1295,-36 1303.55,-34.4619 1312.57,-32.6341 1321.35,-30.7421"/>
<polygon fill="midnightblue" stroke="midnightblue" points="1322.11,-34.1588 1331.13,-28.5909 1320.61,-27.3224 1322.11,-34.1588"/>
</g>
<!-- Node14 -->
<g id="node27" class="node"><title>Node14</title>
<polygon fill="white" stroke="#bfbfbf" points="1463.5,-7.5 1463.5,-28.5 1560.5,-28.5 1560.5,-7.5 1463.5,-7.5"/>
<text text-anchor="middle" x="1512" y="-15.5" font-family="Helvetica,sans-Serif" font-size="10.00">QtWidgets/QLabel</text>
</g>
<!-- Node2&#45;&gt;Node14 -->
<g id="edge26" class="edge"><title>Node2&#45;&gt;Node14</title>
<path fill="none" stroke="midnightblue" d="M984.033,-82.2917C1067.61,-80.079 1280.83,-71.1531 1455,-36 1460.87,-34.8162 1466.98,-33.2527 1472.93,-31.5404"/>
<polygon fill="midnightblue" stroke="midnightblue" points="1474.18,-34.819 1482.73,-28.5592 1472.14,-28.1222 1474.18,-34.819"/>
</g>
<!-- Node15 -->
<g id="node29" class="node"><title>Node15</title>
<polygon fill="white" stroke="#bfbfbf" points="1577.5,-7.5 1577.5,-28.5 1660.5,-28.5 1660.5,-7.5 1577.5,-7.5"/>
<text text-anchor="middle" x="1619" y="-15.5" font-family="Helvetica,sans-Serif" font-size="10.00">QtGui/QScreen</text>
</g>
<!-- Node2&#45;&gt;Node15 -->
<g id="edge28" class="edge"><title>Node2&#45;&gt;Node15</title>
<path fill="none" stroke="midnightblue" d="M984.331,-81.5385C1099.6,-76.6992 1456.13,-60.1221 1569,-36 1574.06,-34.919 1579.3,-33.4482 1584.4,-31.8102"/>
<polygon fill="midnightblue" stroke="midnightblue" points="1585.64,-35.0846 1593.95,-28.5127 1583.36,-28.4678 1585.64,-35.0846"/>
</g>
<!-- Node16 -->
<g id="node31" class="node"><title>Node16</title>
<polygon fill="white" stroke="#bfbfbf" points="1678,-7.5 1678,-28.5 1792,-28.5 1792,-7.5 1678,-7.5"/>
<text text-anchor="middle" x="1735" y="-15.5" font-family="Helvetica,sans-Serif" font-size="10.00">QtGui/QFontDatabase</text>
</g>
<!-- Node2&#45;&gt;Node16 -->
<g id="edge30" class="edge"><title>Node2&#45;&gt;Node16</title>
<path fill="none" stroke="midnightblue" d="M984.193,-81.6053C1111.02,-76.5675 1534.92,-58.4196 1669,-36 1676.41,-34.7607 1684.19,-33.0344 1691.71,-31.1375"/>
<polygon fill="midnightblue" stroke="midnightblue" points="1692.61,-34.5195 1701.37,-28.5723 1690.81,-27.7535 1692.61,-34.5195"/>
</g>
<!-- Node17 -->
<g id="node33" class="node"><title>Node17</title>
<polygon fill="white" stroke="#bfbfbf" points="1809.5,-7.5 1809.5,-28.5 1858.5,-28.5 1858.5,-7.5 1809.5,-7.5"/>
<text text-anchor="middle" x="1834" y="-15.5" font-family="Helvetica,sans-Serif" font-size="10.00">QTimer</text>
</g>
<!-- Node2&#45;&gt;Node17 -->
<g id="edge32" class="edge"><title>Node2&#45;&gt;Node17</title>
<path fill="none" stroke="midnightblue" d="M984.178,-81.9483C1136.53,-77.3917 1721.69,-58.5642 1801,-36 1803.62,-35.2555 1806.26,-34.2762 1808.84,-33.1582"/>
<polygon fill="midnightblue" stroke="midnightblue" points="1810.45,-36.2693 1817.83,-28.6739 1807.32,-30.0053 1810.45,-36.2693"/>
</g>
</g>
</svg>
        <g id="navigator" transform="translate(0 0)" fill="#404254">
                <rect fill="#f2f5e9" fill-opacity="0.5" stroke="#606060" stroke-width=".5" x="0" y="0" width="60" height="60"/>
                <use id="zoomplus" xlink:href="#zoomPlus" x="17" y="9" onmousedown="handleZoom(evt,'in')"/>
                <use id="zoomminus" xlink:href="#zoomMin" x="42" y="9" onmousedown="handleZoom(evt,'out')"/>
                <use id="reset" xlink:href="#resetDef" x="30" y="36" onmousedown="handleReset()"/>
                <g id="arrowUp" xlink:href="#dirArrow" transform="translate(30 24)" onmousedown="handlePan(0,-1)">
                  <use xlink:href="#rim" fill="#404040">
                        <set attributeName="fill" to="#808080" begin="arrowUp.mouseover" end="arrowUp.mouseout"/>
                  </use>
                  <path fill="none" stroke="white" stroke-width="1.5" d="M0,-3.0v7 M-2.5,-0.5L0,-3.0L2.5,-0.5"/>
                </g>
                <g id="arrowRight" xlink:href="#dirArrow" transform="rotate(90) translate(36 -43)" onmousedown="handlePan(1,0)">
                  <use xlink:href="#rim" fill="#404040">
                        <set attributeName="fill" to="#808080" begin="arrowRight.mouseover" end="arrowRight.mouseout"/>
                  </use>
                  <path fill="none" stroke="white" stroke-width="1.5" d="M0,-3.0v7 M-2.5,-0.5L0,-3.0L2.5,-0.5"/>
                </g>
                <g id="arrowDown" xlink:href="#dirArrow" transform="rotate(180) translate(-30 -48)" onmousedown="handlePan(0,1)">
                  <use xlink:href="#rim" fill="#404040">
                        <set attributeName="fill" to="#808080" begin="arrowDown.mouseover" end="arrowDown.mouseout"/>
                  </use>
                  <path fill="none" stroke="white" stroke-width="1.5" d="M0,-3.0v7 M-2.5,-0.5L0,-3.0L2.5,-0.5"/>
                </g>
                <g id="arrowLeft" xlink:href="#dirArrow" transform="rotate(270) translate(-36 17)" onmousedown="handlePan(-1,0)">
                  <use xlink:href="#rim" fill="#404040">
                        <set attributeName="fill" to="#808080" begin="arrowLeft.mouseover" end="arrowLeft.mouseout"/>
                  </use>
                  <path fill="none" stroke="white" stroke-width="1.5" d="M0,-3.0v7 M-2.5,-0.5L0,-3.0L2.5,-0.5"/>
                </g>
        </g>
        <svg viewBox="0 0 15 15" width="100%" height="30px" preserveAspectRatio="xMaxYMin meet">
         <g id="arrow_out" transform="scale(0.3 0.3)">
          <a xlink:href="audiograph_8cpp__incl_org.svg" target="_base">
           <rect id="button" ry="5" rx="5" y="6" x="6" height="38" width="38"
                fill="#f2f5e9" fill-opacity="0.5" stroke="#606060" stroke-width="1.0"/>
           <path id="arrow"
             d="M 11.500037,31.436501 C 11.940474,20.09759 22.043105,11.32322 32.158766,21.979434 L 37.068811,17.246167 C 37.068811,17.246167 37.088388,32 37.088388,32 L 22.160133,31.978069 C 22.160133,31.978069 26.997745,27.140456 26.997745,27.140456 C 18.528582,18.264221 13.291696,25.230495 11.500037,31.436501 z"
             style="fill:#404040;"/>
          </a>
         </g>
        </svg>
</svg>
