<?xml version="1.0" encoding="UTF-8" standalone="no"?>
<!DOCTYPE svg PUBLIC "-//W3C//DTD SVG 1.1//EN"
 "http://www.w3.org/Graphics/SVG/1.1/DTD/svg11.dtd">
<!-- Generated by graphviz version 2.26.3 (20100126.1600)
 -->
<!-- Title: Network&#45;Music/audiooutput.h Pages: 1 -->
<svg width="444pt" height="88pt"
 viewBox="0.00 0.00 444.00 88.00" xmlns="http://www.w3.org/2000/svg" xmlns:xlink="http://www.w3.org/1999/xlink">
<g id="graph1" class="graph" transform="scale(1 1) rotate(0) translate(4 84)">
<title>Network&#45;Music/audiooutput.h</title>
<polygon fill="white" stroke="white" points="-4,5 -4,-84 441,-84 441,5 -4,5"/>
<!-- Node1 -->
<g id="node1" class="node"><title>Node1</title>
<polygon fill="#bfbfbf" stroke="black" points="162,-58.5 162,-79.5 306,-79.5 306,-58.5 162,-58.5"/>
<text text-anchor="middle" x="234" y="-66.5" font-family="Helvetica,sans-Serif" font-size="10.00">Network&#45;Music/audiooutput.h</text>
</g>
<!-- Node2 -->
<g id="node3" class="node"><title>Node2</title>
<a xlink:href="audiooutput_8cpp.html" target="_top" xlink:title="Network&#45;Music/audiooutput.cpp">
<polygon fill="white" stroke="black" points="-0.5,-0.5 -0.5,-21.5 154.5,-21.5 154.5,-0.5 -0.5,-0.5"/>
<text text-anchor="middle" x="77" y="-8.5" font-family="Helvetica,sans-Serif" font-size="10.00">Network&#45;Music/audiooutput.cpp</text>
</a>
</g>
<!-- Node1&#45;&gt;Node2 -->
<g id="edge2" class="edge"><title>Node1&#45;&gt;Node2</title>
<path fill="none" stroke="midnightblue" d="M196.129,-55.0095C168.229,-44.7023 130.875,-30.903 105.485,-21.5231"/>
<polygon fill="midnightblue" stroke="midnightblue" points="194.975,-58.3143 205.568,-58.4966 197.401,-51.7481 194.975,-58.3143"/>
</g>
<!-- Node3 -->
<g id="node5" class="node"><title>Node3</title>
<a xlink:href="main_8cpp.html" target="_top" xlink:title="Network&#45;Music/main.cpp">
<polygon fill="white" stroke="black" points="171.5,-0.5 171.5,-21.5 296.5,-21.5 296.5,-0.5 171.5,-0.5"/>
<text text-anchor="middle" x="234" y="-8.5" font-family="Helvetica,sans-Serif" font-size="10.00">Network&#45;Music/main.cpp</text>
</a>
</g>
<!-- Node1&#45;&gt;Node3 -->
<g id="edge4" class="edge"><title>Node1&#45;&gt;Node3</title>
<path fill="none" stroke="midnightblue" d="M234,-48.1906C234,-39.1684 234,-28.9941 234,-21.5707"/>
<polygon fill="midnightblue" stroke="midnightblue" points="230.5,-48.3619 234,-58.3619 237.5,-48.3619 230.5,-48.3619"/>
</g>
<!-- Node4 -->
<g id="node7" class="node"><title>Node4</title>
<a xlink:href="tone_8cpp.html" target="_top" xlink:title="Network&#45;Music/tone.cpp">
<polygon fill="white" stroke="black" points="313.5,-0.5 313.5,-21.5 436.5,-21.5 436.5,-0.5 313.5,-0.5"/>
<text text-anchor="middle" x="375" y="-8.5" font-family="Helvetica,sans-Serif" font-size="10.00">Network&#45;Music/tone.cpp</text>
</a>
</g>
<!-- Node1&#45;&gt;Node4 -->
<g id="edge6" class="edge"><title>Node1&#45;&gt;Node4</title>
<path fill="none" stroke="midnightblue" d="M268.97,-54.6153C293.83,-44.3889 326.672,-30.8796 349.179,-21.6212"/>
<polygon fill="midnightblue" stroke="midnightblue" points="267.451,-51.4555 259.534,-58.4966 270.114,-57.9292 267.451,-51.4555"/>
</g>
</g>
</svg>
