<?xml version="1.0" encoding="UTF-8" standalone="no"?>
<!DOCTYPE svg PUBLIC "-//W3C//DTD SVG 1.1//EN"
 "http://www.w3.org/Graphics/SVG/1.1/DTD/svg11.dtd">
<!-- Generated by graphviz version 2.26.3 (20100126.1600)
 -->
<!-- Title: Network&#45;Music/audiooutput.h Pages: 1 -->
<svg width="1664pt" height="88pt"
 viewBox="0.00 0.00 1664.00 88.00" xmlns="http://www.w3.org/2000/svg" xmlns:xlink="http://www.w3.org/1999/xlink">
<g id="graph1" class="graph" transform="scale(1 1) rotate(0) translate(4 84)">
<title>Network&#45;Music/audiooutput.h</title>
<polygon fill="white" stroke="white" points="-4,5 -4,-84 1661,-84 1661,5 -4,5"/>
<!-- Node1 -->
<g id="node1" class="node"><title>Node1</title>
<polygon fill="#bfbfbf" stroke="black" points="694,-58.5 694,-79.5 838,-79.5 838,-58.5 694,-58.5"/>
<text text-anchor="middle" x="766" y="-66.5" font-family="Helvetica,sans-Serif" font-size="10.00">Network&#45;Music/audiooutput.h</text>
</g>
<!-- Node2 -->
<g id="node3" class="node"><title>Node2</title>
<polygon fill="white" stroke="#bfbfbf" points="-0.5,-0.5 -0.5,-21.5 46.5,-21.5 46.5,-0.5 -0.5,-0.5"/>
<text text-anchor="middle" x="23" y="-8.5" font-family="Helvetica,sans-Serif" font-size="10.00">math.h</text>
</g>
<!-- Node1&#45;&gt;Node2 -->
<g id="edge2" class="edge"><title>Node1&#45;&gt;Node2</title>
<path fill="none" stroke="midnightblue" d="M693.898,-66.6584C542.164,-61.3452 193.256,-47.0027 56.4387,-21.7961"/>
<polygon fill="midnightblue" stroke="midnightblue" points="57.0554,-18.3506 46.572,-19.8833 55.7231,-25.2226 57.0554,-18.3506"/>
</g>
<!-- Node3 -->
<g id="node5" class="node"><title>Node3</title>
<polygon fill="white" stroke="#bfbfbf" points="64,-0.5 64,-21.5 142,-21.5 142,-0.5 64,-0.5"/>
<text text-anchor="middle" x="103" y="-8.5" font-family="Helvetica,sans-Serif" font-size="10.00">QAudioOutput</text>
</g>
<!-- Node1&#45;&gt;Node3 -->
<g id="edge4" class="edge"><title>Node1&#45;&gt;Node3</title>
<path fill="none" stroke="midnightblue" d="M693.648,-66.961C580.198,-62.9945 353.483,-51.9693 152.365,-22.0176"/>
<polygon fill="midnightblue" stroke="midnightblue" points="152.612,-18.5153 142.201,-20.4844 151.567,-25.437 152.612,-18.5153"/>
</g>
<!-- Node4 -->
<g id="node7" class="node"><title>Node4</title>
<polygon fill="white" stroke="#bfbfbf" points="160,-0.5 160,-21.5 228,-21.5 228,-0.5 160,-0.5"/>
<text text-anchor="middle" x="194" y="-8.5" font-family="Helvetica,sans-Serif" font-size="10.00">QByteArray</text>
</g>
<!-- Node1&#45;&gt;Node4 -->
<g id="edge6" class="edge"><title>Node1&#45;&gt;Node4</title>
<path fill="none" stroke="midnightblue" d="M693.65,-66.2809C593.325,-61.6876 406.254,-50.1522 238.181,-21.9739"/>
<polygon fill="midnightblue" stroke="midnightblue" points="238.605,-18.496 228.16,-20.2701 237.432,-25.3969 238.605,-18.496"/>
</g>
<!-- Node5 -->
<g id="node9" class="node"><title>Node5</title>
<polygon fill="white" stroke="#bfbfbf" points="245.5,-0.5 245.5,-21.5 318.5,-21.5 318.5,-0.5 245.5,-0.5"/>
<text text-anchor="middle" x="282" y="-8.5" font-family="Helvetica,sans-Serif" font-size="10.00">QComboBox</text>
</g>
<!-- Node1&#45;&gt;Node5 -->
<g id="edge8" class="edge"><title>Node1&#45;&gt;Node5</title>
<path fill="none" stroke="midnightblue" d="M693.729,-64.2257C608.517,-57.932 462.514,-45.0711 328.769,-22.1463"/>
<polygon fill="midnightblue" stroke="midnightblue" points="329.204,-18.6695 318.753,-20.4063 328.006,-25.5663 329.204,-18.6695"/>
</g>
<!-- Node6 -->
<g id="node11" class="node"><title>Node6</title>
<polygon fill="white" stroke="#bfbfbf" points="335.5,-0.5 335.5,-21.5 400.5,-21.5 400.5,-0.5 335.5,-0.5"/>
<text text-anchor="middle" x="368" y="-8.5" font-family="Helvetica,sans-Serif" font-size="10.00">QIODevice</text>
</g>
<!-- Node1&#45;&gt;Node6 -->
<g id="edge10" class="edge"><title>Node1&#45;&gt;Node6</title>
<path fill="none" stroke="midnightblue" d="M693.748,-62.2986C623.572,-55.1524 513.907,-42.303 410.563,-22.1304"/>
<polygon fill="midnightblue" stroke="midnightblue" points="411.072,-18.6634 400.583,-20.1553 409.713,-25.5302 411.072,-18.6634"/>
</g>
<!-- Node7 -->
<g id="node13" class="node"><title>Node7</title>
<polygon fill="white" stroke="#bfbfbf" points="417.5,-0.5 417.5,-21.5 464.5,-21.5 464.5,-0.5 417.5,-0.5"/>
<text text-anchor="middle" x="441" y="-8.5" font-family="Helvetica,sans-Serif" font-size="10.00">QLabel</text>
</g>
<!-- Node1&#45;&gt;Node7 -->
<g id="edge12" class="edge"><title>Node1&#45;&gt;Node7</title>
<path fill="none" stroke="midnightblue" d="M693.957,-60.9546C636.549,-53.741 554.089,-41.5896 474.339,-22.0496"/>
<polygon fill="midnightblue" stroke="midnightblue" points="475.179,-18.6518 464.629,-19.6299 473.486,-25.4441 475.179,-18.6518"/>
</g>
<!-- Node8 -->
<g id="node15" class="node"><title>Node8</title>
<polygon fill="white" stroke="#bfbfbf" points="482,-0.5 482,-21.5 562,-21.5 562,-0.5 482,-0.5"/>
<text text-anchor="middle" x="522" y="-8.5" font-family="Helvetica,sans-Serif" font-size="10.00">QMainWindow</text>
</g>
<!-- Node1&#45;&gt;Node8 -->
<g id="edge14" class="edge"><title>Node1&#45;&gt;Node8</title>
<path fill="none" stroke="midnightblue" d="M721.813,-58.4966C679.641,-48.4721 616.179,-33.3869 572.135,-22.9174"/>
<polygon fill="midnightblue" stroke="midnightblue" points="572.754,-19.4671 562.216,-20.5595 571.135,-26.2773 572.754,-19.4671"/>
</g>
<!-- Node9 -->
<g id="node17" class="node"><title>Node9</title>
<polygon fill="white" stroke="#bfbfbf" points="579.5,-0.5 579.5,-21.5 632.5,-21.5 632.5,-0.5 579.5,-0.5"/>
<text text-anchor="middle" x="606" y="-8.5" font-family="Helvetica,sans-Serif" font-size="10.00">QObject</text>
</g>
<!-- Node1&#45;&gt;Node9 -->
<g id="edge16" class="edge"><title>Node1&#45;&gt;Node9</title>
<path fill="none" stroke="midnightblue" d="M737.025,-58.4966C710.442,-48.8601 670.957,-34.547 642.285,-24.1532"/>
<polygon fill="midnightblue" stroke="midnightblue" points="643.227,-20.7719 632.633,-20.6543 640.841,-27.3529 643.227,-20.7719"/>
</g>
<!-- Node10 -->
<g id="node19" class="node"><title>Node10</title>
<polygon fill="white" stroke="#bfbfbf" points="649.5,-0.5 649.5,-21.5 724.5,-21.5 724.5,-0.5 649.5,-0.5"/>
<text text-anchor="middle" x="687" y="-8.5" font-family="Helvetica,sans-Serif" font-size="10.00">QPushButton</text>
</g>
<!-- Node1&#45;&gt;Node10 -->
<g id="edge18" class="edge"><title>Node1&#45;&gt;Node10</title>
<path fill="none" stroke="midnightblue" d="M751.51,-58.3619C739.817,-49.7773 723.157,-37.5459 709.697,-27.6636"/>
<polygon fill="midnightblue" stroke="midnightblue" points="711.53,-24.6675 701.398,-21.5707 707.387,-30.31 711.53,-24.6675"/>
</g>
<!-- Node11 -->
<g id="node21" class="node"><title>Node11</title>
<polygon fill="white" stroke="#bfbfbf" points="741.5,-0.5 741.5,-21.5 790.5,-21.5 790.5,-0.5 741.5,-0.5"/>
<text text-anchor="middle" x="766" y="-8.5" font-family="Helvetica,sans-Serif" font-size="10.00">QSlider</text>
</g>
<!-- Node1&#45;&gt;Node11 -->
<g id="edge20" class="edge"><title>Node1&#45;&gt;Node11</title>
<path fill="none" stroke="midnightblue" d="M766,-58.3619C766,-50.9219 766,-40.7427 766,-31.7276"/>
<polygon fill="midnightblue" stroke="midnightblue" points="769.5,-31.5706 766,-21.5707 762.5,-31.5707 769.5,-31.5706"/>
</g>
<!-- Node12 -->
<g id="node23" class="node"><title>Node12</title>
<polygon fill="white" stroke="#bfbfbf" points="807.5,-0.5 807.5,-21.5 856.5,-21.5 856.5,-0.5 807.5,-0.5"/>
<text text-anchor="middle" x="832" y="-8.5" font-family="Helvetica,sans-Serif" font-size="10.00">QTimer</text>
</g>
<!-- Node1&#45;&gt;Node12 -->
<g id="edge22" class="edge"><title>Node1&#45;&gt;Node12</title>
<path fill="none" stroke="midnightblue" d="M778.105,-58.3619C787.688,-49.9408 801.264,-38.0105 812.393,-28.2308"/>
<polygon fill="midnightblue" stroke="midnightblue" points="814.77,-30.8009 819.971,-21.5707 810.149,-25.5427 814.77,-30.8009"/>
</g>
<!-- Node13 -->
<g id="node25" class="node"><title>Node13</title>
<polygon fill="white" stroke="#bfbfbf" points="873.5,-0.5 873.5,-21.5 920.5,-21.5 920.5,-0.5 873.5,-0.5"/>
<text text-anchor="middle" x="897" y="-8.5" font-family="Helvetica,sans-Serif" font-size="10.00">QHash</text>
</g>
<!-- Node1&#45;&gt;Node13 -->
<g id="edge24" class="edge"><title>Node1&#45;&gt;Node13</title>
<path fill="none" stroke="midnightblue" d="M789.723,-58.4966C810.497,-49.299 840.893,-35.8411 864.031,-25.597"/>
<polygon fill="midnightblue" stroke="midnightblue" points="865.726,-28.6741 873.453,-21.4252 862.893,-22.2734 865.726,-28.6741"/>
</g>
<!-- Node14 -->
<g id="node27" class="node"><title>Node14</title>
<polygon fill="white" stroke="#bfbfbf" points="938,-0.5 938,-21.5 1006,-21.5 1006,-0.5 938,-0.5"/>
<text text-anchor="middle" x="972" y="-8.5" font-family="Helvetica,sans-Serif" font-size="10.00">QStatusBar</text>
</g>
<!-- Node1&#45;&gt;Node14 -->
<g id="edge26" class="edge"><title>Node1&#45;&gt;Node14</title>
<path fill="none" stroke="midnightblue" d="M803.305,-58.4966C838.279,-48.6497 890.595,-33.9197 927.681,-23.4781"/>
<polygon fill="midnightblue" stroke="midnightblue" points="929.033,-26.7336 937.71,-20.6543 927.136,-19.9956 929.033,-26.7336"/>
</g>
<!-- Node15 -->
<g id="node29" class="node"><title>Node15</title>
<polygon fill="white" stroke="#bfbfbf" points="1023.5,-0.5 1023.5,-21.5 1084.5,-21.5 1084.5,-0.5 1023.5,-0.5"/>
<text text-anchor="middle" x="1054" y="-8.5" font-family="Helvetica,sans-Serif" font-size="10.00">QSpinBox</text>
</g>
<!-- Node1&#45;&gt;Node15 -->
<g id="edge28" class="edge"><title>Node1&#45;&gt;Node15</title>
<path fill="none" stroke="midnightblue" d="M830.298,-58.4713C878.406,-50.2252 945.992,-37.8642 1013.46,-22.2336"/>
<polygon fill="midnightblue" stroke="midnightblue" points="1014.47,-25.5914 1023.41,-19.9038 1012.88,-18.7757 1014.47,-25.5914"/>
</g>
<!-- Node16 -->
<g id="node31" class="node"><title>Node16</title>
<polygon fill="white" stroke="#bfbfbf" points="1101.5,-0.5 1101.5,-21.5 1214.5,-21.5 1214.5,-0.5 1101.5,-0.5"/>
<text text-anchor="middle" x="1158" y="-8.5" font-family="Helvetica,sans-Serif" font-size="10.00">QtCharts/QChartView</text>
</g>
<!-- Node1&#45;&gt;Node16 -->
<g id="edge30" class="edge"><title>Node1&#45;&gt;Node16</title>
<path fill="none" stroke="midnightblue" d="M838.164,-59.1532C902.143,-50.3029 998.396,-36.6953 1091.17,-22.2627"/>
<polygon fill="midnightblue" stroke="midnightblue" points="1091.95,-25.6826 1101.29,-20.6819 1090.87,-18.7664 1091.95,-25.6826"/>
</g>
<!-- Node17 -->
<g id="node33" class="node"><title>Node17</title>
<polygon fill="white" stroke="#bfbfbf" points="1231.5,-0.5 1231.5,-21.5 1340.5,-21.5 1340.5,-0.5 1231.5,-0.5"/>
<text text-anchor="middle" x="1286" y="-8.5" font-family="Helvetica,sans-Serif" font-size="10.00">QtCharts/QPieSeries</text>
</g>
<!-- Node1&#45;&gt;Node17 -->
<g id="edge32" class="edge"><title>Node1&#45;&gt;Node17</title>
<path fill="none" stroke="midnightblue" d="M838.217,-63.1541C926.34,-55.6657 1080.09,-41.4581 1221.26,-22.1726"/>
<polygon fill="midnightblue" stroke="midnightblue" points="1221.97,-25.6075 1231.4,-20.7753 1221.02,-18.673 1221.97,-25.6075"/>
</g>
<!-- Node18 -->
<g id="node35" class="node"><title>Node18</title>
<polygon fill="white" stroke="#bfbfbf" points="1357.5,-0.5 1357.5,-21.5 1460.5,-21.5 1460.5,-0.5 1357.5,-0.5"/>
<text text-anchor="middle" x="1409" y="-8.5" font-family="Helvetica,sans-Serif" font-size="10.00">QtCharts/QPieSlice</text>
</g>
<!-- Node1&#45;&gt;Node18 -->
<g id="edge34" class="edge"><title>Node1&#45;&gt;Node18</title>
<path fill="none" stroke="midnightblue" d="M838.049,-65.5348C946.464,-59.8018 1158.16,-46.5942 1347.22,-22.1361"/>
<polygon fill="midnightblue" stroke="midnightblue" points="1347.88,-25.5793 1357.34,-20.8125 1346.97,-18.6383 1347.88,-25.5793"/>
</g>
<!-- Node19 -->
<g id="node37" class="node"><title>Node19</title>
<polygon fill="white" stroke="#bfbfbf" points="1478,-0.5 1478,-21.5 1534,-21.5 1534,-0.5 1478,-0.5"/>
<text text-anchor="middle" x="1506" y="-8.5" font-family="Helvetica,sans-Serif" font-size="10.00">QtCharts</text>
</g>
<!-- Node1&#45;&gt;Node19 -->
<g id="edge36" class="edge"><title>Node1&#45;&gt;Node19</title>
<path fill="none" stroke="midnightblue" d="M838.09,-66.2146C988.296,-60.0873 1331.43,-44.3215 1467.66,-21.8346"/>
<polygon fill="midnightblue" stroke="midnightblue" points="1468.62,-25.2199 1477.87,-20.0635 1467.42,-18.3227 1468.62,-25.2199"/>
</g>
<!-- Node20 -->
<g id="node39" class="node"><title>Node20</title>
<polygon fill="white" stroke="#bfbfbf" points="1552,-0.5 1552,-21.5 1656,-21.5 1656,-0.5 1552,-0.5"/>
<text text-anchor="middle" x="1604" y="-8.5" font-family="Helvetica,sans-Serif" font-size="10.00">QtDataVisualization</text>
</g>
<!-- Node1&#45;&gt;Node20 -->
<g id="edge38" class="edge"><title>Node1&#45;&gt;Node20</title>
<path fill="none" stroke="midnightblue" d="M838.027,-67.4797C973.773,-63.9948 1276.88,-53.2685 1541.62,-22.0426"/>
<polygon fill="midnightblue" stroke="midnightblue" points="1542.3,-25.4867 1551.82,-20.8278 1541.47,-18.5359 1542.3,-25.4867"/>
</g>
</g>
</svg>
