<?xml version="1.0" encoding="UTF-8" standalone="no"?>
<!DOCTYPE svg PUBLIC "-//W3C//DTD SVG 1.1//EN"
 "http://www.w3.org/Graphics/SVG/1.1/DTD/svg11.dtd">
<!-- Generated by graphviz version 2.26.3 (20100126.1600)
 -->
<!-- Title: Network&#45;Music/audiograph.h Pages: 1 -->
<svg width="1866pt" height="102pt"
 viewBox="0.00 0.00 1866.00 102.00" xmlns="http://www.w3.org/2000/svg" xmlns:xlink="http://www.w3.org/1999/xlink">
<g id="graph1" class="graph" transform="scale(1 1) rotate(0) translate(4 98)">
<title>Network&#45;Music/audiograph.h</title>
<polygon fill="white" stroke="white" points="-4,5 -4,-98 1863,-98 1863,5 -4,5"/>
<!-- Node1 -->
<g id="node1" class="node"><title>Node1</title>
<polygon fill="#bfbfbf" stroke="black" points="877.5,-72.5 877.5,-93.5 1018.5,-93.5 1018.5,-72.5 877.5,-72.5"/>
<text text-anchor="middle" x="948" y="-80.5" font-family="Helvetica,sans-Serif" font-size="10.00">Network&#45;Music/audiograph.h</text>
</g>
<!-- Node2 -->
<g id="node3" class="node"><title>Node2</title>
<polygon fill="white" stroke="#bfbfbf" points="0,-1 0,-35 104,-35 104,-1 0,-1"/>
<text text-anchor="start" x="8" y="-22" font-family="Helvetica,sans-Serif" font-size="10.00">QtDataVisualization</text>
<text text-anchor="middle" x="52" y="-9" font-family="Helvetica,sans-Serif" font-size="10.00">/q3dscatter.h</text>
</g>
<!-- Node1&#45;&gt;Node2 -->
<g id="edge2" class="edge"><title>Node1&#45;&gt;Node2</title>
<path fill="none" stroke="midnightblue" d="M877.342,-81.1184C707.165,-76.2563 277.22,-61.9221 113.955,-35.8713"/>
<polygon fill="midnightblue" stroke="midnightblue" points="114.496,-32.4132 104.056,-34.2196 113.343,-39.3177 114.496,-32.4132"/>
</g>
<!-- Node3 -->
<g id="node5" class="node"><title>Node3</title>
<polygon fill="white" stroke="#bfbfbf" points="121.5,-1 121.5,-35 226.5,-35 226.5,-1 121.5,-1"/>
<text text-anchor="start" x="129.5" y="-22" font-family="Helvetica,sans-Serif" font-size="10.00">QtDataVisualization</text>
<text text-anchor="middle" x="174" y="-9" font-family="Helvetica,sans-Serif" font-size="10.00">/qabstract3dseries.h</text>
</g>
<!-- Node1&#45;&gt;Node3 -->
<g id="edge4" class="edge"><title>Node1&#45;&gt;Node3</title>
<path fill="none" stroke="midnightblue" d="M877.233,-80.327C726.023,-74.2989 374.613,-58.5223 236.678,-36.0361"/>
<polygon fill="midnightblue" stroke="midnightblue" points="237.177,-32.5707 226.73,-34.3354 235.997,-39.4706 237.177,-32.5707"/>
</g>
<!-- Node4 -->
<g id="node7" class="node"><title>Node4</title>
<polygon fill="white" stroke="#bfbfbf" points="244,-7.5 244,-28.5 316,-28.5 316,-7.5 244,-7.5"/>
<text text-anchor="middle" x="280" y="-15.5" font-family="Helvetica,sans-Serif" font-size="10.00">QtGui/QFont</text>
</g>
<!-- Node1&#45;&gt;Node4 -->
<g id="edge6" class="edge"><title>Node1&#45;&gt;Node4</title>
<path fill="none" stroke="midnightblue" d="M877.366,-80.3795C737.149,-74.7327 428.285,-59.9551 325,-36 320.758,-35.0162 316.392,-33.6946 312.126,-32.2119"/>
<polygon fill="midnightblue" stroke="midnightblue" points="313.049,-28.8185 302.457,-28.5434 310.565,-35.3633 313.049,-28.8185"/>
</g>
<!-- Node5 -->
<g id="node9" class="node"><title>Node5</title>
<polygon fill="white" stroke="#bfbfbf" points="334,-7.5 334,-28.5 456,-28.5 456,-7.5 334,-7.5"/>
<text text-anchor="middle" x="395" y="-15.5" font-family="Helvetica,sans-Serif" font-size="10.00">QtWidgets/QApplication</text>
</g>
<!-- Node1&#45;&gt;Node5 -->
<g id="edge8" class="edge"><title>Node1&#45;&gt;Node5</title>
<path fill="none" stroke="midnightblue" d="M877.146,-79.5429C782.592,-74.1475 610.203,-61.5753 465,-36 457.267,-34.6379 449.131,-32.8661 441.253,-30.9664"/>
<polygon fill="midnightblue" stroke="midnightblue" points="442.011,-27.5482 431.46,-28.5128 440.309,-34.3383 442.011,-27.5482"/>
</g>
<!-- Node6 -->
<g id="node11" class="node"><title>Node6</title>
<polygon fill="white" stroke="#bfbfbf" points="474,-7.5 474,-28.5 578,-28.5 578,-7.5 474,-7.5"/>
<text text-anchor="middle" x="526" y="-15.5" font-family="Helvetica,sans-Serif" font-size="10.00">QtWidgets/QWidget</text>
</g>
<!-- Node1&#45;&gt;Node6 -->
<g id="edge10" class="edge"><title>Node1&#45;&gt;Node6</title>
<path fill="none" stroke="midnightblue" d="M877.228,-77.108C804.039,-70.241 686.713,-57.0658 587,-36 580.832,-34.6969 574.381,-33.0798 568.08,-31.3535"/>
<polygon fill="midnightblue" stroke="midnightblue" points="568.942,-27.9596 558.365,-28.5803 567.02,-34.6907 568.942,-27.9596"/>
</g>
<!-- Node7 -->
<g id="node13" class="node"><title>Node7</title>
<polygon fill="white" stroke="#bfbfbf" points="596,-7.5 596,-28.5 724,-28.5 724,-7.5 596,-7.5"/>
<text text-anchor="middle" x="660" y="-15.5" font-family="Helvetica,sans-Serif" font-size="10.00">QtWidgets/QHBoxLayout</text>
</g>
<!-- Node1&#45;&gt;Node7 -->
<g id="edge12" class="edge"><title>Node1&#45;&gt;Node7</title>
<path fill="none" stroke="midnightblue" d="M897.956,-72.4531C854.327,-63.1645 789.381,-49.1111 733,-36 726.252,-34.4307 719.164,-32.7384 712.167,-31.0414"/>
<polygon fill="midnightblue" stroke="midnightblue" points="712.576,-27.5385 702.031,-28.5658 710.915,-34.3386 712.576,-27.5385"/>
</g>
<!-- Node8 -->
<g id="node15" class="node"><title>Node8</title>
<polygon fill="white" stroke="#bfbfbf" points="741.5,-7.5 741.5,-28.5 868.5,-28.5 868.5,-7.5 741.5,-7.5"/>
<text text-anchor="middle" x="805" y="-15.5" font-family="Helvetica,sans-Serif" font-size="10.00">QtWidgets/QVBoxLayout</text>
</g>
<!-- Node1&#45;&gt;Node8 -->
<g id="edge14" class="edge"><title>Node1&#45;&gt;Node8</title>
<path fill="none" stroke="midnightblue" d="M924.706,-72.412C901.023,-61.6468 864.132,-44.878 837.562,-32.8009"/>
<polygon fill="midnightblue" stroke="midnightblue" points="838.836,-29.5353 828.284,-28.5835 835.939,-35.9079 838.836,-29.5353"/>
</g>
<!-- Node9 -->
<g id="node17" class="node"><title>Node9</title>
<polygon fill="white" stroke="#bfbfbf" points="885.5,-7.5 885.5,-28.5 1010.5,-28.5 1010.5,-7.5 885.5,-7.5"/>
<text text-anchor="middle" x="948" y="-15.5" font-family="Helvetica,sans-Serif" font-size="10.00">QtWidgets/QPushButton</text>
</g>
<!-- Node1&#45;&gt;Node9 -->
<g id="edge16" class="edge"><title>Node1&#45;&gt;Node9</title>
<path fill="none" stroke="midnightblue" d="M948,-72.2666C948,-63.1799 948,-49.8919 948,-38.7395"/>
<polygon fill="midnightblue" stroke="midnightblue" points="951.5,-38.5337 948,-28.5337 944.5,-38.5337 951.5,-38.5337"/>
</g>
<!-- Node10 -->
<g id="node19" class="node"><title>Node10</title>
<polygon fill="white" stroke="#bfbfbf" points="1027.5,-7.5 1027.5,-28.5 1146.5,-28.5 1146.5,-7.5 1027.5,-7.5"/>
<text text-anchor="middle" x="1087" y="-15.5" font-family="Helvetica,sans-Serif" font-size="10.00">QtWidgets/QCheckBox</text>
</g>
<!-- Node1&#45;&gt;Node10 -->
<g id="edge18" class="edge"><title>Node1&#45;&gt;Node10</title>
<path fill="none" stroke="midnightblue" d="M970.642,-72.412C993.562,-61.6941 1029.21,-45.025 1055.01,-32.9601"/>
<polygon fill="midnightblue" stroke="midnightblue" points="1056.79,-35.99 1064.37,-28.5835 1053.83,-29.6491 1056.79,-35.99"/>
</g>
<!-- Node11 -->
<g id="node21" class="node"><title>Node11</title>
<polygon fill="white" stroke="#bfbfbf" points="1164,-7.5 1164,-28.5 1286,-28.5 1286,-7.5 1164,-7.5"/>
<text text-anchor="middle" x="1225" y="-15.5" font-family="Helvetica,sans-Serif" font-size="10.00">QtWidgets/QComboBox</text>
</g>
<!-- Node1&#45;&gt;Node11 -->
<g id="edge20" class="edge"><title>Node1&#45;&gt;Node11</title>
<path fill="none" stroke="midnightblue" d="M996.191,-72.4647C1038.2,-63.1835 1100.74,-49.1344 1155,-36 1161.47,-34.4331 1168.27,-32.7422 1174.98,-31.0461"/>
<polygon fill="midnightblue" stroke="midnightblue" points="1175.87,-34.4305 1184.7,-28.571 1174.15,-27.6469 1175.87,-34.4305"/>
</g>
<!-- Node12 -->
<g id="node23" class="node"><title>Node12</title>
<polygon fill="white" stroke="#bfbfbf" points="1304,-7.5 1304,-28.5 1446,-28.5 1446,-7.5 1304,-7.5"/>
<text text-anchor="middle" x="1375" y="-15.5" font-family="Helvetica,sans-Serif" font-size="10.00">QtWidgets/QFontComboBox</text>
</g>
<!-- Node1&#45;&gt;Node12 -->
<g id="edge22" class="edge"><title>Node1&#45;&gt;Node12</title>
<path fill="none" stroke="midnightblue" d="M1018.73,-75.2406C1089.05,-67.0984 1199.87,-53.1122 1295,-36 1303.55,-34.4619 1312.57,-32.6341 1321.35,-30.7421"/>
<polygon fill="midnightblue" stroke="midnightblue" points="1322.11,-34.1588 1331.13,-28.5909 1320.61,-27.3224 1322.11,-34.1588"/>
</g>
<!-- Node13 -->
<g id="node25" class="node"><title>Node13</title>
<polygon fill="white" stroke="#bfbfbf" points="1463.5,-7.5 1463.5,-28.5 1560.5,-28.5 1560.5,-7.5 1463.5,-7.5"/>
<text text-anchor="middle" x="1512" y="-15.5" font-family="Helvetica,sans-Serif" font-size="10.00">QtWidgets/QLabel</text>
</g>
<!-- Node1&#45;&gt;Node13 -->
<g id="edge24" class="edge"><title>Node1&#45;&gt;Node13</title>
<path fill="none" stroke="midnightblue" d="M1018.81,-81.194C1117.45,-77.6034 1301.41,-66.9994 1455,-36 1460.87,-34.8162 1466.98,-33.2527 1472.93,-31.5404"/>
<polygon fill="midnightblue" stroke="midnightblue" points="1474.18,-34.819 1482.73,-28.5592 1472.14,-28.1222 1474.18,-34.819"/>
</g>
<!-- Node14 -->
<g id="node27" class="node"><title>Node14</title>
<polygon fill="white" stroke="#bfbfbf" points="1577.5,-7.5 1577.5,-28.5 1660.5,-28.5 1660.5,-7.5 1577.5,-7.5"/>
<text text-anchor="middle" x="1619" y="-15.5" font-family="Helvetica,sans-Serif" font-size="10.00">QtGui/QScreen</text>
</g>
<!-- Node1&#45;&gt;Node14 -->
<g id="edge26" class="edge"><title>Node1&#45;&gt;Node14</title>
<path fill="none" stroke="midnightblue" d="M1018.61,-80.0548C1158.38,-73.8302 1465.71,-58.0743 1569,-36 1574.06,-34.919 1579.3,-33.4482 1584.4,-31.8102"/>
<polygon fill="midnightblue" stroke="midnightblue" points="1585.64,-35.0846 1593.95,-28.5127 1583.36,-28.4678 1585.64,-35.0846"/>
</g>
<!-- Node15 -->
<g id="node29" class="node"><title>Node15</title>
<polygon fill="white" stroke="#bfbfbf" points="1678,-7.5 1678,-28.5 1792,-28.5 1792,-7.5 1678,-7.5"/>
<text text-anchor="middle" x="1735" y="-15.5" font-family="Helvetica,sans-Serif" font-size="10.00">QtGui/QFontDatabase</text>
</g>
<!-- Node1&#45;&gt;Node15 -->
<g id="edge28" class="edge"><title>Node1&#45;&gt;Node15</title>
<path fill="none" stroke="midnightblue" d="M1018.65,-80.2066C1174.81,-73.7371 1545.28,-56.687 1669,-36 1676.41,-34.7607 1684.19,-33.0344 1691.71,-31.1375"/>
<polygon fill="midnightblue" stroke="midnightblue" points="1692.61,-34.5195 1701.37,-28.5723 1690.81,-27.7535 1692.61,-34.5195"/>
</g>
<!-- Node16 -->
<g id="node31" class="node"><title>Node16</title>
<polygon fill="white" stroke="#bfbfbf" points="1809.5,-7.5 1809.5,-28.5 1858.5,-28.5 1858.5,-7.5 1809.5,-7.5"/>
<text text-anchor="middle" x="1834" y="-15.5" font-family="Helvetica,sans-Serif" font-size="10.00">QTimer</text>
</g>
<!-- Node1&#45;&gt;Node16 -->
<g id="edge30" class="edge"><title>Node1&#45;&gt;Node16</title>
<path fill="none" stroke="midnightblue" d="M1018.55,-80.8993C1209.45,-74.9634 1726.78,-57.1183 1801,-36 1803.62,-35.2555 1806.26,-34.2762 1808.84,-33.1582"/>
<polygon fill="midnightblue" stroke="midnightblue" points="1810.45,-36.2693 1817.83,-28.6739 1807.32,-30.0053 1810.45,-36.2693"/>
</g>
</g>
</svg>
