<?xml version="1.0" encoding="UTF-8" standalone="no"?>
<!DOCTYPE svg PUBLIC "-//W3C//DTD SVG 1.1//EN"
 "http://www.w3.org/Graphics/SVG/1.1/DTD/svg11.dtd">
<!-- Generated by graphviz version 2.26.3 (20100126.1600)
 -->
<!-- Title: Network&#45;Music/audiograph.h Pages: 1 -->
<svg width="332pt" height="88pt"
 viewBox="0.00 0.00 332.00 88.00" xmlns="http://www.w3.org/2000/svg" xmlns:xlink="http://www.w3.org/1999/xlink">
<g id="graph1" class="graph" transform="scale(1 1) rotate(0) translate(4 84)">
<title>Network&#45;Music/audiograph.h</title>
<polygon fill="white" stroke="white" points="-4,5 -4,-84 329,-84 329,5 -4,5"/>
<!-- Node1 -->
<g id="node1" class="node"><title>Node1</title>
<polygon fill="#bfbfbf" stroke="black" points="90.5,-58.5 90.5,-79.5 231.5,-79.5 231.5,-58.5 90.5,-58.5"/>
<text text-anchor="middle" x="161" y="-66.5" font-family="Helvetica,sans-Serif" font-size="10.00">Network&#45;Music/audiograph.h</text>
</g>
<!-- Node2 -->
<g id="node3" class="node"><title>Node2</title>
<a xlink:href="audiograph_8cpp.html" target="_top" xlink:title="Network&#45;Music/audiograph.cpp">
<polygon fill="white" stroke="black" points="0,-0.5 0,-21.5 152,-21.5 152,-0.5 0,-0.5"/>
<text text-anchor="middle" x="76" y="-8.5" font-family="Helvetica,sans-Serif" font-size="10.00">Network&#45;Music/audiograph.cpp</text>
</a>
</g>
<!-- Node1&#45;&gt;Node2 -->
<g id="edge2" class="edge"><title>Node1&#45;&gt;Node2</title>
<path fill="none" stroke="midnightblue" d="M136.879,-52.5407C122.306,-42.5973 104.164,-30.2177 91.4915,-21.5707"/>
<polygon fill="midnightblue" stroke="midnightblue" points="135.177,-55.6166 145.41,-58.3619 139.122,-49.8344 135.177,-55.6166"/>
</g>
<!-- Node3 -->
<g id="node5" class="node"><title>Node3</title>
<a xlink:href="audiooutput_8cpp.html" target="_top" xlink:title="Network&#45;Music/audiooutput.cpp">
<polygon fill="white" stroke="black" points="169.5,-0.5 169.5,-21.5 324.5,-21.5 324.5,-0.5 169.5,-0.5"/>
<text text-anchor="middle" x="247" y="-8.5" font-family="Helvetica,sans-Serif" font-size="10.00">Network&#45;Music/audiooutput.cpp</text>
</a>
</g>
<!-- Node1&#45;&gt;Node3 -->
<g id="edge4" class="edge"><title>Node1&#45;&gt;Node3</title>
<path fill="none" stroke="midnightblue" d="M185.405,-52.5407C200.149,-42.5973 218.505,-30.2177 231.326,-21.5707"/>
<polygon fill="midnightblue" stroke="midnightblue" points="183.107,-49.8687 176.774,-58.3619 187.021,-55.6722 183.107,-49.8687"/>
</g>
</g>
</svg>
