<?xml version="1.0" encoding="UTF-8" standalone="no"?>
<!DOCTYPE svg PUBLIC "-//W3C//DTD SVG 1.1//EN"
 "http://www.w3.org/Graphics/SVG/1.1/DTD/svg11.dtd">
<!-- Generated by graphviz version 2.26.3 (20100126.1600)
 -->
<!-- Title: Network&#45;Music/audiooutput.cpp Pages: 1 -->
<svg width="3616pt" height="218pt"
 viewBox="0.00 0.00 3616.00 218.00" xmlns="http://www.w3.org/2000/svg" xmlns:xlink="http://www.w3.org/1999/xlink">
<g id="graph1" class="graph" transform="scale(1 1) rotate(0) translate(4 214)">
<title>Network&#45;Music/audiooutput.cpp</title>
<polygon fill="white" stroke="white" points="-4,5 -4,-214 3613,-214 3613,5 -4,5"/>
<!-- Node1 -->
<g id="node1" class="node"><title>Node1</title>
<polygon fill="#bfbfbf" stroke="black" points="1378.5,-188.5 1378.5,-209.5 1533.5,-209.5 1533.5,-188.5 1378.5,-188.5"/>
<text text-anchor="middle" x="1456" y="-196.5" font-family="Helvetica,sans-Serif" font-size="10.00">Network&#45;Music/audiooutput.cpp</text>
</g>
<!-- Node2 -->
<g id="node3" class="node"><title>Node2</title>
<polygon fill="white" stroke="#bfbfbf" points="0,-65.5 0,-86.5 96,-86.5 96,-65.5 0,-65.5"/>
<text text-anchor="middle" x="48" y="-73.5" font-family="Helvetica,sans-Serif" font-size="10.00">QAudioDeviceInfo</text>
</g>
<!-- Node1&#45;&gt;Node2 -->
<g id="edge2" class="edge"><title>Node1&#45;&gt;Node2</title>
<path fill="none" stroke="midnightblue" d="M1378.27,-198.487C1117.71,-196.444 285.1,-187.205 170,-152 130.431,-139.897 90.9375,-111.588 68.0222,-93.144"/>
<polygon fill="midnightblue" stroke="midnightblue" points="70.0314,-90.2647 60.0858,-86.6127 65.5832,-95.6697 70.0314,-90.2647"/>
</g>
<!-- Node3 -->
<g id="node5" class="node"><title>Node3</title>
<polygon fill="white" stroke="#bfbfbf" points="196,-65.5 196,-86.5 274,-86.5 274,-65.5 196,-65.5"/>
<text text-anchor="middle" x="235" y="-73.5" font-family="Helvetica,sans-Serif" font-size="10.00">QAudioOutput</text>
</g>
<!-- Node1&#45;&gt;Node3 -->
<g id="edge4" class="edge"><title>Node1&#45;&gt;Node3</title>
<path fill="none" stroke="midnightblue" d="M1378.3,-197.868C1144.62,-194.157 458.46,-180.9 362,-152 321.006,-139.718 279.599,-111.25 255.667,-92.8546"/>
<polygon fill="midnightblue" stroke="midnightblue" points="257.701,-90.002 247.674,-86.5818 253.38,-95.5088 257.701,-90.002"/>
</g>
<!-- Node4 -->
<g id="node7" class="node"><title>Node4</title>
<polygon fill="white" stroke="#bfbfbf" points="2641.5,-130.5 2641.5,-151.5 2694.5,-151.5 2694.5,-130.5 2641.5,-130.5"/>
<text text-anchor="middle" x="2668" y="-138.5" font-family="Helvetica,sans-Serif" font-size="10.00">QDebug</text>
</g>
<!-- Node1&#45;&gt;Node4 -->
<g id="edge6" class="edge"><title>Node1&#45;&gt;Node4</title>
<path fill="none" stroke="midnightblue" d="M1533.82,-198.572C1757.72,-196.923 2401.58,-189.138 2631.45,-151.832"/>
<polygon fill="midnightblue" stroke="midnightblue" points="2632.15,-155.264 2641.43,-150.149 2630.98,-148.362 2632.15,-155.264"/>
</g>
<!-- Node5 -->
<g id="node9" class="node"><title>Node5</title>
<polygon fill="white" stroke="#bfbfbf" points="2711.5,-130.5 2711.5,-151.5 2788.5,-151.5 2788.5,-130.5 2711.5,-130.5"/>
<text text-anchor="middle" x="2750" y="-138.5" font-family="Helvetica,sans-Serif" font-size="10.00">QVBoxLayout</text>
</g>
<!-- Node1&#45;&gt;Node5 -->
<g id="edge8" class="edge"><title>Node1&#45;&gt;Node5</title>
<path fill="none" stroke="midnightblue" d="M1533.68,-198.027C1766.36,-194.807 2456.19,-182.962 2701.44,-151.959"/>
<polygon fill="midnightblue" stroke="midnightblue" points="2701.92,-155.427 2711.38,-150.659 2701.01,-148.486 2701.92,-155.427"/>
</g>
<!-- Node6 -->
<g id="node11" class="node"><title>Node6</title>
<polygon fill="white" stroke="#bfbfbf" points="2806,-130.5 2806,-151.5 2858,-151.5 2858,-130.5 2806,-130.5"/>
<text text-anchor="middle" x="2832" y="-138.5" font-family="Helvetica,sans-Serif" font-size="10.00">qmath.h</text>
</g>
<!-- Node1&#45;&gt;Node6 -->
<g id="edge10" class="edge"><title>Node1&#45;&gt;Node6</title>
<path fill="none" stroke="midnightblue" d="M1533.51,-197.501C1794.56,-192.287 2633.92,-174.132 2795.75,-151.621"/>
<polygon fill="midnightblue" stroke="midnightblue" points="2796.47,-155.052 2805.81,-150.063 2795.4,-148.134 2796.47,-155.052"/>
</g>
<!-- Node7 -->
<g id="node13" class="node"><title>Node7</title>
<polygon fill="white" stroke="#bfbfbf" points="2875.5,-130.5 2875.5,-151.5 2934.5,-151.5 2934.5,-130.5 2875.5,-130.5"/>
<text text-anchor="middle" x="2905" y="-138.5" font-family="Helvetica,sans-Serif" font-size="10.00">qendian.h</text>
</g>
<!-- Node1&#45;&gt;Node7 -->
<g id="edge12" class="edge"><title>Node1&#45;&gt;Node7</title>
<path fill="none" stroke="midnightblue" d="M1533.69,-197.54C1804.03,-192.308 2695.98,-173.719 2865.2,-151.806"/>
<polygon fill="midnightblue" stroke="midnightblue" points="2865.89,-155.243 2875.29,-150.358 2864.89,-148.314 2865.89,-155.243"/>
</g>
<!-- Node8 -->
<g id="node15" class="node"><title>Node8</title>
<polygon fill="white" stroke="#bfbfbf" points="387.5,-65.5 387.5,-86.5 434.5,-86.5 434.5,-65.5 387.5,-65.5"/>
<text text-anchor="middle" x="411" y="-73.5" font-family="Helvetica,sans-Serif" font-size="10.00">QHash</text>
</g>
<!-- Node1&#45;&gt;Node8 -->
<g id="edge14" class="edge"><title>Node1&#45;&gt;Node8</title>
<path fill="none" stroke="midnightblue" d="M1378.39,-196.273C1251.71,-191.233 992.79,-178.467 775,-152 626.304,-133.93 584.082,-144.33 443,-94 440.854,-93.2343 438.683,-92.3315 436.536,-91.3447"/>
<polygon fill="midnightblue" stroke="midnightblue" points="437.922,-88.1213 427.43,-86.6464 434.712,-94.342 437.922,-88.1213"/>
</g>
<!-- Node9 -->
<g id="node17" class="node"><title>Node9</title>
<polygon fill="white" stroke="#bfbfbf" points="2952,-130.5 2952,-151.5 3006,-151.5 3006,-130.5 2952,-130.5"/>
<text text-anchor="middle" x="2979" y="-138.5" font-family="Helvetica,sans-Serif" font-size="10.00">QThread</text>
</g>
<!-- Node1&#45;&gt;Node9 -->
<g id="edge16" class="edge"><title>Node1&#45;&gt;Node9</title>
<path fill="none" stroke="midnightblue" d="M1533.91,-197.745C1814.21,-193.068 2763.83,-175.762 2941.53,-151.691"/>
<polygon fill="midnightblue" stroke="midnightblue" points="2942.29,-155.116 2951.66,-150.171 2941.25,-148.194 2942.29,-155.116"/>
</g>
<!-- Node10 -->
<g id="node19" class="node"><title>Node10</title>
<polygon fill="white" stroke="#bfbfbf" points="1046,-65.5 1046,-86.5 1092,-86.5 1092,-65.5 1046,-65.5"/>
<text text-anchor="middle" x="1069" y="-73.5" font-family="Helvetica,sans-Serif" font-size="10.00">pcap.h</text>
</g>
<!-- Node1&#45;&gt;Node10 -->
<g id="edge18" class="edge"><title>Node1&#45;&gt;Node10</title>
<path fill="none" stroke="midnightblue" d="M1408.02,-188.443C1338.67,-172.378 1207.11,-138.862 1101,-94 1099.15,-93.2181 1097.27,-92.3562 1095.4,-91.4456"/>
<polygon fill="midnightblue" stroke="midnightblue" points="1096.73,-88.1893 1086.25,-86.6343 1093.47,-94.3854 1096.73,-88.1893"/>
</g>
<!-- Node11 -->
<g id="node21" class="node"><title>Node11</title>
<a xlink:href="audiooutput_8h.html" target="_top" xlink:title="audiooutput.h">
<polygon fill="white" stroke="black" points="1590.5,-130.5 1590.5,-151.5 1665.5,-151.5 1665.5,-130.5 1590.5,-130.5"/>
<text text-anchor="middle" x="1628" y="-138.5" font-family="Helvetica,sans-Serif" font-size="10.00">audiooutput.h</text>
</a>
</g>
<!-- Node1&#45;&gt;Node11 -->
<g id="edge20" class="edge"><title>Node1&#45;&gt;Node11</title>
<path fill="none" stroke="midnightblue" d="M1487.15,-188.497C1515.19,-179.041 1556.58,-165.083 1587.25,-154.743"/>
<polygon fill="midnightblue" stroke="midnightblue" points="1588.44,-158.035 1596.79,-151.523 1586.2,-151.402 1588.44,-158.035"/>
</g>
<!-- Node29 -->
<g id="node59" class="node"><title>Node29</title>
<a xlink:href="tone_8h.html" target="_top" xlink:title="tone.h">
<polygon fill="white" stroke="black" points="179,-130.5 179,-151.5 223,-151.5 223,-130.5 179,-130.5"/>
<text text-anchor="middle" x="201" y="-138.5" font-family="Helvetica,sans-Serif" font-size="10.00">tone.h</text>
</a>
</g>
<!-- Node1&#45;&gt;Node29 -->
<g id="edge60" class="edge"><title>Node1&#45;&gt;Node29</title>
<path fill="none" stroke="midnightblue" d="M1378.32,-197.234C1149.89,-191.836 482.833,-174.536 266,-152 255.242,-150.882 243.57,-149.09 233.123,-147.275"/>
<polygon fill="midnightblue" stroke="midnightblue" points="233.628,-143.81 223.165,-145.476 232.383,-150.698 233.628,-143.81"/>
</g>
<!-- Node32 -->
<g id="node69" class="node"><title>Node32</title>
<a xlink:href="packetcapturer_8h.html" target="_top" xlink:title="packetcapturer.h">
<polygon fill="white" stroke="black" points="783.5,-130.5 783.5,-151.5 872.5,-151.5 872.5,-130.5 783.5,-130.5"/>
<text text-anchor="middle" x="828" y="-138.5" font-family="Helvetica,sans-Serif" font-size="10.00">packetcapturer.h</text>
</a>
</g>
<!-- Node1&#45;&gt;Node32 -->
<g id="edge74" class="edge"><title>Node1&#45;&gt;Node32</title>
<path fill="none" stroke="midnightblue" d="M1378.37,-191.83C1249.48,-179.927 994.491,-156.377 882.694,-146.051"/>
<polygon fill="midnightblue" stroke="midnightblue" points="882.93,-142.558 872.65,-145.124 882.286,-149.529 882.93,-142.558"/>
</g>
<!-- Node39 -->
<g id="node85" class="node"><title>Node39</title>
<a xlink:href="tonemanager_8h.html" target="_top" xlink:title="tonemanager.h">
<polygon fill="white" stroke="black" points="370.5,-130.5 370.5,-151.5 451.5,-151.5 451.5,-130.5 370.5,-130.5"/>
<text text-anchor="middle" x="411" y="-138.5" font-family="Helvetica,sans-Serif" font-size="10.00">tonemanager.h</text>
</a>
</g>
<!-- Node1&#45;&gt;Node39 -->
<g id="edge92" class="edge"><title>Node1&#45;&gt;Node39</title>
<path fill="none" stroke="midnightblue" d="M1378.46,-194.77C1228.76,-186.593 889.465,-168.009 604,-152 555.707,-149.292 500.62,-146.147 461.695,-143.915"/>
<polygon fill="midnightblue" stroke="midnightblue" points="461.847,-140.418 451.663,-143.339 461.446,-147.406 461.847,-140.418"/>
</g>
<!-- Node41 -->
<g id="node92" class="node"><title>Node41</title>
<a xlink:href="audiograph_8h.html" target="_top" xlink:title="audiograph.h">
<polygon fill="white" stroke="red" points="2552,-130.5 2552,-151.5 2624,-151.5 2624,-130.5 2552,-130.5"/>
<text text-anchor="middle" x="2588" y="-138.5" font-family="Helvetica,sans-Serif" font-size="10.00">audiograph.h</text>
</a>
</g>
<!-- Node1&#45;&gt;Node41 -->
<g id="edge102" class="edge"><title>Node1&#45;&gt;Node41</title>
<path fill="none" stroke="midnightblue" d="M1533.81,-195.013C1752.5,-183.808 2367.99,-152.272 2541.78,-143.368"/>
<polygon fill="midnightblue" stroke="midnightblue" points="2542.06,-146.858 2551.87,-142.851 2541.71,-139.867 2542.06,-146.858"/>
</g>
<!-- Node11&#45;&gt;Node3 -->
<g id="edge24" class="edge"><title>Node11&#45;&gt;Node3</title>
<path fill="none" stroke="midnightblue" d="M1590.32,-140.409C1385.86,-137.109 414.109,-120.148 283,-94 278.129,-93.0285 273.1,-91.625 268.214,-90.0241"/>
<polygon fill="midnightblue" stroke="midnightblue" points="269.076,-86.6151 258.481,-86.5359 266.714,-93.2046 269.076,-86.6151"/>
</g>
<!-- Node11&#45;&gt;Node8 -->
<g id="edge44" class="edge"><title>Node11&#45;&gt;Node8</title>
<path fill="none" stroke="midnightblue" d="M1590.47,-140.557C1401.13,-138.183 555.482,-125.86 443,-94 440.388,-93.2601 437.759,-92.2681 435.191,-91.1284"/>
<polygon fill="midnightblue" stroke="midnightblue" points="436.791,-88.0154 426.299,-86.5399 433.581,-94.236 436.791,-88.0154"/>
</g>
<!-- Node12 -->
<g id="node23" class="node"><title>Node12</title>
<polygon fill="white" stroke="#bfbfbf" points="2139.5,-65.5 2139.5,-86.5 2186.5,-86.5 2186.5,-65.5 2139.5,-65.5"/>
<text text-anchor="middle" x="2163" y="-73.5" font-family="Helvetica,sans-Serif" font-size="10.00">math.h</text>
</g>
<!-- Node11&#45;&gt;Node12 -->
<g id="edge22" class="edge"><title>Node11&#45;&gt;Node12</title>
<path fill="none" stroke="midnightblue" d="M1665.6,-139.516C1766.96,-135.193 2044.04,-121.165 2131,-94 2133.45,-93.235 2135.92,-92.2656 2138.34,-91.175"/>
<polygon fill="midnightblue" stroke="midnightblue" points="2140.04,-94.2391 2147.32,-86.5439 2136.83,-88.0181 2140.04,-94.2391"/>
</g>
<!-- Node13 -->
<g id="node26" class="node"><title>Node13</title>
<polygon fill="white" stroke="#bfbfbf" points="1813,-0.5 1813,-21.5 1881,-21.5 1881,-0.5 1813,-0.5"/>
<text text-anchor="middle" x="1847" y="-8.5" font-family="Helvetica,sans-Serif" font-size="10.00">QByteArray</text>
</g>
<!-- Node11&#45;&gt;Node13 -->
<g id="edge26" class="edge"><title>Node11&#45;&gt;Node13</title>
<path fill="none" stroke="midnightblue" d="M1665.89,-140.759C1787.04,-139.601 2159.21,-132.88 2195,-94 2205.84,-82.2283 2205.53,-70.0471 2195,-58 2175.27,-35.4258 1980.39,-19.7929 1891.18,-13.7627"/>
<polygon fill="midnightblue" stroke="midnightblue" points="1891.3,-10.2636 1881.09,-13.0917 1890.84,-17.2481 1891.3,-10.2636"/>
</g>
<!-- Node14 -->
<g id="node28" class="node"><title>Node14</title>
<polygon fill="white" stroke="#bfbfbf" points="2241.5,-65.5 2241.5,-86.5 2314.5,-86.5 2314.5,-65.5 2241.5,-65.5"/>
<text text-anchor="middle" x="2278" y="-73.5" font-family="Helvetica,sans-Serif" font-size="10.00">QComboBox</text>
</g>
<!-- Node11&#45;&gt;Node14 -->
<g id="edge28" class="edge"><title>Node11&#45;&gt;Node14</title>
<path fill="none" stroke="midnightblue" d="M1665.89,-139.358C1780.11,-134.198 2119.85,-117.262 2228,-94 2233,-92.9242 2238.18,-91.4698 2243.23,-89.8515"/>
<polygon fill="midnightblue" stroke="midnightblue" points="2244.38,-93.1588 2252.69,-86.5934 2242.1,-86.5402 2244.38,-93.1588"/>
</g>
<!-- Node15 -->
<g id="node30" class="node"><title>Node15</title>
<polygon fill="white" stroke="#bfbfbf" points="783.5,-0.5 783.5,-21.5 848.5,-21.5 848.5,-0.5 783.5,-0.5"/>
<text text-anchor="middle" x="816" y="-8.5" font-family="Helvetica,sans-Serif" font-size="10.00">QIODevice</text>
</g>
<!-- Node11&#45;&gt;Node15 -->
<g id="edge30" class="edge"><title>Node11&#45;&gt;Node15</title>
<path fill="none" stroke="midnightblue" d="M1636.5,-130.31C1649.31,-112.868 1670.11,-78.2112 1651,-58 1623.55,-28.9618 1025.72,-15.1076 858.888,-11.798"/>
<polygon fill="midnightblue" stroke="midnightblue" points="858.6,-8.29178 848.533,-11.5952 858.463,-15.2904 858.6,-8.29178"/>
</g>
<!-- Node16 -->
<g id="node32" class="node"><title>Node16</title>
<polygon fill="white" stroke="#bfbfbf" points="2331.5,-65.5 2331.5,-86.5 2378.5,-86.5 2378.5,-65.5 2331.5,-65.5"/>
<text text-anchor="middle" x="2355" y="-73.5" font-family="Helvetica,sans-Serif" font-size="10.00">QLabel</text>
</g>
<!-- Node11&#45;&gt;Node16 -->
<g id="edge32" class="edge"><title>Node11&#45;&gt;Node16</title>
<path fill="none" stroke="midnightblue" d="M1665.74,-140.635C1791.94,-139.075 2198.28,-131.213 2323,-94 2325.46,-93.2665 2327.93,-92.3186 2330.36,-91.242"/>
<polygon fill="midnightblue" stroke="midnightblue" points="2332.05,-94.3117 2339.35,-86.6325 2328.85,-88.0837 2332.05,-94.3117"/>
</g>
<!-- Node17 -->
<g id="node34" class="node"><title>Node17</title>
<polygon fill="white" stroke="#bfbfbf" points="1110,-65.5 1110,-86.5 1190,-86.5 1190,-65.5 1110,-65.5"/>
<text text-anchor="middle" x="1150" y="-73.5" font-family="Helvetica,sans-Serif" font-size="10.00">QMainWindow</text>
</g>
<!-- Node11&#45;&gt;Node17 -->
<g id="edge34" class="edge"><title>Node11&#45;&gt;Node17</title>
<path fill="none" stroke="midnightblue" d="M1590.47,-139.943C1515.25,-137.158 1341.05,-127.348 1199,-94 1194.29,-92.8932 1189.4,-91.4641 1184.63,-89.8956"/>
<polygon fill="midnightblue" stroke="midnightblue" points="1185.67,-86.5504 1175.07,-86.5386 1183.35,-93.1549 1185.67,-86.5504"/>
</g>
<!-- Node18 -->
<g id="node36" class="node"><title>Node18</title>
<polygon fill="white" stroke="#bfbfbf" points="547.5,-65.5 547.5,-86.5 600.5,-86.5 600.5,-65.5 547.5,-65.5"/>
<text text-anchor="middle" x="574" y="-73.5" font-family="Helvetica,sans-Serif" font-size="10.00">QObject</text>
</g>
<!-- Node11&#45;&gt;Node18 -->
<g id="edge36" class="edge"><title>Node11&#45;&gt;Node18</title>
<path fill="none" stroke="midnightblue" d="M1590.45,-140.216C1417.88,-136.484 705.148,-119.634 609,-94 605.994,-93.1985 602.95,-92.1128 599.977,-90.8692"/>
<polygon fill="midnightblue" stroke="midnightblue" points="601.385,-87.6633 590.853,-86.5138 598.37,-93.9804 601.385,-87.6633"/>
</g>
<!-- Node19 -->
<g id="node38" class="node"><title>Node19</title>
<polygon fill="white" stroke="#bfbfbf" points="1207.5,-65.5 1207.5,-86.5 1282.5,-86.5 1282.5,-65.5 1207.5,-65.5"/>
<text text-anchor="middle" x="1245" y="-73.5" font-family="Helvetica,sans-Serif" font-size="10.00">QPushButton</text>
</g>
<!-- Node11&#45;&gt;Node19 -->
<g id="edge38" class="edge"><title>Node11&#45;&gt;Node19</title>
<path fill="none" stroke="midnightblue" d="M1590.29,-138.633C1527.38,-134.046 1397.44,-121.836 1291,-94 1286.89,-92.926 1282.65,-91.5944 1278.49,-90.1449"/>
<polygon fill="midnightblue" stroke="midnightblue" points="1279.59,-86.8203 1269,-86.6146 1277.15,-93.3812 1279.59,-86.8203"/>
</g>
<!-- Node20 -->
<g id="node40" class="node"><title>Node20</title>
<polygon fill="white" stroke="#bfbfbf" points="1299.5,-65.5 1299.5,-86.5 1348.5,-86.5 1348.5,-65.5 1299.5,-65.5"/>
<text text-anchor="middle" x="1324" y="-73.5" font-family="Helvetica,sans-Serif" font-size="10.00">QSlider</text>
</g>
<!-- Node11&#45;&gt;Node20 -->
<g id="edge40" class="edge"><title>Node11&#45;&gt;Node20</title>
<path fill="none" stroke="midnightblue" d="M1590.21,-138.364C1536.92,-133.777 1437.26,-121.987 1357,-94 1354.71,-93.2022 1352.39,-92.2573 1350.1,-91.2247"/>
<polygon fill="midnightblue" stroke="midnightblue" points="1351.48,-88.0016 1340.98,-86.6383 1348.34,-94.2561 1351.48,-88.0016"/>
</g>
<!-- Node21 -->
<g id="node42" class="node"><title>Node21</title>
<polygon fill="white" stroke="#bfbfbf" points="2395.5,-65.5 2395.5,-86.5 2444.5,-86.5 2444.5,-65.5 2395.5,-65.5"/>
<text text-anchor="middle" x="2420" y="-73.5" font-family="Helvetica,sans-Serif" font-size="10.00">QTimer</text>
</g>
<!-- Node11&#45;&gt;Node21 -->
<g id="edge42" class="edge"><title>Node11&#45;&gt;Node21</title>
<path fill="none" stroke="midnightblue" d="M1665.9,-140.822C1799.7,-139.857 2249.36,-133.669 2387,-94 2389.61,-93.2466 2392.25,-92.2613 2394.84,-91.1395"/>
<polygon fill="midnightblue" stroke="midnightblue" points="2396.44,-94.2493 2403.83,-86.6497 2393.32,-87.9869 2396.44,-94.2493"/>
</g>
<!-- Node22 -->
<g id="node45" class="node"><title>Node22</title>
<polygon fill="white" stroke="#bfbfbf" points="1366,-65.5 1366,-86.5 1434,-86.5 1434,-65.5 1366,-65.5"/>
<text text-anchor="middle" x="1400" y="-73.5" font-family="Helvetica,sans-Serif" font-size="10.00">QStatusBar</text>
</g>
<!-- Node11&#45;&gt;Node22 -->
<g id="edge46" class="edge"><title>Node11&#45;&gt;Node22</title>
<path fill="none" stroke="midnightblue" d="M1590.33,-133.143C1552.61,-124.879 1493.13,-110.758 1443,-94 1439.68,-92.8887 1436.25,-91.6381 1432.84,-90.3273"/>
<polygon fill="midnightblue" stroke="midnightblue" points="1434,-87.0222 1423.42,-86.539 1431.39,-93.5169 1434,-87.0222"/>
</g>
<!-- Node23 -->
<g id="node47" class="node"><title>Node23</title>
<polygon fill="white" stroke="#bfbfbf" points="1451.5,-65.5 1451.5,-86.5 1512.5,-86.5 1512.5,-65.5 1451.5,-65.5"/>
<text text-anchor="middle" x="1482" y="-73.5" font-family="Helvetica,sans-Serif" font-size="10.00">QSpinBox</text>
</g>
<!-- Node11&#45;&gt;Node23 -->
<g id="edge48" class="edge"><title>Node11&#45;&gt;Node23</title>
<path fill="none" stroke="midnightblue" d="M1603.72,-130.488C1582,-121.046 1549.31,-106.747 1521,-94 1518.68,-92.955 1516.28,-91.8688 1513.88,-90.7709"/>
<polygon fill="midnightblue" stroke="midnightblue" points="1515.2,-87.5278 1504.65,-86.541 1512.28,-93.8907 1515.2,-87.5278"/>
</g>
<!-- Node24 -->
<g id="node49" class="node"><title>Node24</title>
<polygon fill="white" stroke="#bfbfbf" points="1529.5,-65.5 1529.5,-86.5 1642.5,-86.5 1642.5,-65.5 1529.5,-65.5"/>
<text text-anchor="middle" x="1586" y="-73.5" font-family="Helvetica,sans-Serif" font-size="10.00">QtCharts/QChartView</text>
</g>
<!-- Node11&#45;&gt;Node24 -->
<g id="edge50" class="edge"><title>Node11&#45;&gt;Node24</title>
<path fill="none" stroke="midnightblue" d="M1621.06,-130.267C1614.89,-120.707 1605.71,-106.496 1598.29,-95.0152"/>
<polygon fill="midnightblue" stroke="midnightblue" points="1601.17,-93.0334 1592.81,-86.5337 1595.29,-96.8324 1601.17,-93.0334"/>
</g>
<!-- Node25 -->
<g id="node51" class="node"><title>Node25</title>
<polygon fill="white" stroke="#bfbfbf" points="1697.5,-65.5 1697.5,-86.5 1806.5,-86.5 1806.5,-65.5 1697.5,-65.5"/>
<text text-anchor="middle" x="1752" y="-73.5" font-family="Helvetica,sans-Serif" font-size="10.00">QtCharts/QPieSeries</text>
</g>
<!-- Node11&#45;&gt;Node25 -->
<g id="edge52" class="edge"><title>Node11&#45;&gt;Node25</title>
<path fill="none" stroke="midnightblue" d="M1648.2,-130.412C1668.47,-119.788 1699.89,-103.318 1722.85,-91.28"/>
<polygon fill="midnightblue" stroke="midnightblue" points="1724.58,-94.3262 1731.81,-86.5835 1721.33,-88.1264 1724.58,-94.3262"/>
</g>
<!-- Node26 -->
<g id="node53" class="node"><title>Node26</title>
<polygon fill="white" stroke="#bfbfbf" points="1823.5,-65.5 1823.5,-86.5 1926.5,-86.5 1926.5,-65.5 1823.5,-65.5"/>
<text text-anchor="middle" x="1875" y="-73.5" font-family="Helvetica,sans-Serif" font-size="10.00">QtCharts/QPieSlice</text>
</g>
<!-- Node11&#45;&gt;Node26 -->
<g id="edge54" class="edge"><title>Node11&#45;&gt;Node26</title>
<path fill="none" stroke="midnightblue" d="M1665.74,-132.045C1703.6,-122.937 1763.53,-108.182 1815,-94 1820.24,-92.5557 1825.73,-90.9889 1831.16,-89.4025"/>
<polygon fill="midnightblue" stroke="midnightblue" points="1832.21,-92.7401 1840.81,-86.5483 1830.23,-86.0273 1832.21,-92.7401"/>
</g>
<!-- Node27 -->
<g id="node55" class="node"><title>Node27</title>
<polygon fill="white" stroke="#bfbfbf" points="1944,-65.5 1944,-86.5 2000,-86.5 2000,-65.5 1944,-65.5"/>
<text text-anchor="middle" x="1972" y="-73.5" font-family="Helvetica,sans-Serif" font-size="10.00">QtCharts</text>
</g>
<!-- Node11&#45;&gt;Node27 -->
<g id="edge56" class="edge"><title>Node11&#45;&gt;Node27</title>
<path fill="none" stroke="midnightblue" d="M1665.67,-138.882C1724.4,-134.773 1840.8,-123.381 1935,-94 1937.81,-93.1226 1940.68,-92.0606 1943.51,-90.8963"/>
<polygon fill="midnightblue" stroke="midnightblue" points="1945.2,-93.9752 1952.86,-86.6631 1942.31,-87.598 1945.2,-93.9752"/>
</g>
<!-- Node28 -->
<g id="node57" class="node"><title>Node28</title>
<polygon fill="white" stroke="#bfbfbf" points="2018,-65.5 2018,-86.5 2122,-86.5 2122,-65.5 2018,-65.5"/>
<text text-anchor="middle" x="2070" y="-73.5" font-family="Helvetica,sans-Serif" font-size="10.00">QtDataVisualization</text>
</g>
<!-- Node11&#45;&gt;Node28 -->
<g id="edge58" class="edge"><title>Node11&#45;&gt;Node28</title>
<path fill="none" stroke="midnightblue" d="M1665.65,-138.416C1734.41,-133.241 1884.69,-119.825 2009,-94 2015.24,-92.7029 2021.77,-91.0751 2028.14,-89.3317"/>
<polygon fill="midnightblue" stroke="midnightblue" points="2029.31,-92.64 2037.96,-86.5278 2027.38,-85.9093 2029.31,-92.64"/>
</g>
<!-- Node29&#45;&gt;Node2 -->
<g id="edge62" class="edge"><title>Node29&#45;&gt;Node2</title>
<path fill="none" stroke="midnightblue" d="M178.752,-131.548C153.435,-120.793 111.786,-103.099 82.3039,-90.5736"/>
<polygon fill="midnightblue" stroke="midnightblue" points="83.3858,-87.2305 72.8134,-86.5416 80.6486,-93.6732 83.3858,-87.2305"/>
</g>
<!-- Node29&#45;&gt;Node3 -->
<g id="edge64" class="edge"><title>Node29&#45;&gt;Node3</title>
<path fill="none" stroke="midnightblue" d="M206.614,-130.267C211.516,-120.896 218.755,-107.057 224.695,-95.7004"/>
<polygon fill="midnightblue" stroke="midnightblue" points="227.956,-97.017 229.49,-86.5337 221.754,-93.7724 227.956,-97.017"/>
</g>
<!-- Node30 -->
<g id="node63" class="node"><title>Node30</title>
<a xlink:href="generator_8h.html" target="_top" xlink:title="generator.h">
<polygon fill="white" stroke="black" points="113.5,-65.5 113.5,-86.5 178.5,-86.5 178.5,-65.5 113.5,-65.5"/>
<text text-anchor="middle" x="146" y="-73.5" font-family="Helvetica,sans-Serif" font-size="10.00">generator.h</text>
</a>
</g>
<!-- Node29&#45;&gt;Node30 -->
<g id="edge66" class="edge"><title>Node29&#45;&gt;Node30</title>
<path fill="none" stroke="midnightblue" d="M191.918,-130.267C183.669,-120.517 171.327,-105.932 161.515,-94.3365"/>
<polygon fill="midnightblue" stroke="midnightblue" points="164.044,-91.9068 154.913,-86.5337 158.701,-96.4284 164.044,-91.9068"/>
</g>
<!-- Node30&#45;&gt;Node13 -->
<g id="edge68" class="edge"><title>Node30&#45;&gt;Node13</title>
<path fill="none" stroke="midnightblue" d="M165.911,-65.4227C172.449,-62.4542 179.87,-59.6018 187,-58 348.449,-21.7277 1555.34,-12.7138 1802.76,-11.2395"/>
<polygon fill="midnightblue" stroke="midnightblue" points="1802.84,-14.7392 1812.82,-11.1806 1802.8,-7.73929 1802.84,-14.7392"/>
</g>
<!-- Node30&#45;&gt;Node15 -->
<g id="edge70" class="edge"><title>Node30&#45;&gt;Node15</title>
<path fill="none" stroke="midnightblue" d="M166.376,-65.4317C172.813,-62.5397 180.06,-59.7287 187,-58 298.509,-30.2225 649.965,-16.4004 772.973,-12.3219"/>
<polygon fill="midnightblue" stroke="midnightblue" points="773.254,-15.8147 783.135,-11.99 773.026,-8.81841 773.254,-15.8147"/>
</g>
<!-- Node31 -->
<g id="node67" class="node"><title>Node31</title>
<polygon fill="white" stroke="#bfbfbf" points="213,-0.5 213,-21.5 293,-21.5 293,-0.5 213,-0.5"/>
<text text-anchor="middle" x="253" y="-8.5" font-family="Helvetica,sans-Serif" font-size="10.00">QAudioFormat</text>
</g>
<!-- Node30&#45;&gt;Node31 -->
<g id="edge72" class="edge"><title>Node30&#45;&gt;Node31</title>
<path fill="none" stroke="midnightblue" d="M163.669,-65.2666C180.886,-54.8074 207.267,-38.782 226.902,-26.8541"/>
<polygon fill="midnightblue" stroke="midnightblue" points="228.93,-29.7169 235.66,-21.5337 225.296,-23.7343 228.93,-29.7169"/>
</g>
<!-- Node32&#45;&gt;Node10 -->
<g id="edge78" class="edge"><title>Node32&#45;&gt;Node10</title>
<path fill="none" stroke="midnightblue" d="M872.729,-134.81C915.813,-127.955 982.321,-115.007 1037,-94 1039.08,-93.2014 1041.19,-92.2854 1043.28,-91.2991"/>
<polygon fill="midnightblue" stroke="midnightblue" points="1044.92,-94.3891 1052.18,-86.6699 1041.69,-88.1786 1044.92,-94.3891"/>
</g>
<!-- Node32&#45;&gt;Node18 -->
<g id="edge76" class="edge"><title>Node32&#45;&gt;Node18</title>
<path fill="none" stroke="midnightblue" d="M783.425,-134.962C738.489,-128.062 667.59,-114.937 609,-94 606.579,-93.1349 604.114,-92.1352 601.669,-91.0593"/>
<polygon fill="midnightblue" stroke="midnightblue" points="603.014,-87.8225 592.484,-86.6547 599.987,-94.1344 603.014,-87.8225"/>
</g>
<!-- Node33 -->
<g id="node73" class="node"><title>Node33</title>
<polygon fill="white" stroke="#bfbfbf" points="791.5,-65.5 791.5,-86.5 864.5,-86.5 864.5,-65.5 791.5,-65.5"/>
<text text-anchor="middle" x="828" y="-73.5" font-family="Helvetica,sans-Serif" font-size="10.00">sys/socket.h</text>
</g>
<!-- Node32&#45;&gt;Node33 -->
<g id="edge80" class="edge"><title>Node32&#45;&gt;Node33</title>
<path fill="none" stroke="midnightblue" d="M828,-130.267C828,-121.18 828,-107.892 828,-96.7395"/>
<polygon fill="midnightblue" stroke="midnightblue" points="831.5,-96.5337 828,-86.5337 824.5,-96.5337 831.5,-96.5337"/>
</g>
<!-- Node34 -->
<g id="node75" class="node"><title>Node34</title>
<polygon fill="white" stroke="#bfbfbf" points="881.5,-65.5 881.5,-86.5 946.5,-86.5 946.5,-65.5 881.5,-65.5"/>
<text text-anchor="middle" x="914" y="-73.5" font-family="Helvetica,sans-Serif" font-size="10.00">netinet/in.h</text>
</g>
<!-- Node32&#45;&gt;Node34 -->
<g id="edge82" class="edge"><title>Node32&#45;&gt;Node34</title>
<path fill="none" stroke="midnightblue" d="M842.201,-130.267C855.726,-120.044 876.287,-104.504 891.944,-92.6699"/>
<polygon fill="midnightblue" stroke="midnightblue" points="894.196,-95.3556 900.063,-86.5337 889.975,-89.7712 894.196,-95.3556"/>
</g>
<!-- Node35 -->
<g id="node77" class="node"><title>Node35</title>
<polygon fill="white" stroke="#bfbfbf" points="963.5,-65.5 963.5,-86.5 1028.5,-86.5 1028.5,-65.5 963.5,-65.5"/>
<text text-anchor="middle" x="996" y="-73.5" font-family="Helvetica,sans-Serif" font-size="10.00">netinet/ip.h</text>
</g>
<!-- Node32&#45;&gt;Node35 -->
<g id="edge84" class="edge"><title>Node32&#45;&gt;Node35</title>
<path fill="none" stroke="midnightblue" d="M857.958,-130.479C883.815,-121.264 922.086,-107.302 955,-94 957.703,-92.9077 960.494,-91.7492 963.288,-90.5672"/>
<polygon fill="midnightblue" stroke="midnightblue" points="964.885,-93.6906 972.685,-86.521 962.116,-87.2613 964.885,-93.6906"/>
</g>
<!-- Node36 -->
<g id="node79" class="node"><title>Node36</title>
<polygon fill="white" stroke="#bfbfbf" points="451.5,-65.5 451.5,-86.5 530.5,-86.5 530.5,-65.5 451.5,-65.5"/>
<text text-anchor="middle" x="491" y="-73.5" font-family="Helvetica,sans-Serif" font-size="10.00">netinet/ether.h</text>
</g>
<!-- Node32&#45;&gt;Node36 -->
<g id="edge86" class="edge"><title>Node32&#45;&gt;Node36</title>
<path fill="none" stroke="midnightblue" d="M783.362,-136.511C726.088,-130.123 623.985,-116.607 539,-94 534.674,-92.8492 530.195,-91.4558 525.79,-89.9595"/>
<polygon fill="midnightblue" stroke="midnightblue" points="526.948,-86.6566 516.354,-86.5739 524.584,-93.2454 526.948,-86.6566"/>
</g>
<!-- Node37 -->
<g id="node81" class="node"><title>Node37</title>
<polygon fill="white" stroke="#bfbfbf" points="617.5,-65.5 617.5,-86.5 694.5,-86.5 694.5,-65.5 617.5,-65.5"/>
<text text-anchor="middle" x="656" y="-73.5" font-family="Helvetica,sans-Serif" font-size="10.00">net/ethernet.h</text>
</g>
<!-- Node32&#45;&gt;Node37 -->
<g id="edge88" class="edge"><title>Node32&#45;&gt;Node37</title>
<path fill="none" stroke="midnightblue" d="M799.684,-130.409C774.336,-120.916 736.165,-106.586 703,-94 699.896,-92.822 696.677,-91.597 693.447,-90.3651"/>
<polygon fill="midnightblue" stroke="midnightblue" points="694.415,-86.988 683.824,-86.6882 691.916,-93.527 694.415,-86.988"/>
</g>
<!-- Node38 -->
<g id="node83" class="node"><title>Node38</title>
<polygon fill="white" stroke="#bfbfbf" points="712,-65.5 712,-86.5 774,-86.5 774,-65.5 712,-65.5"/>
<text text-anchor="middle" x="743" y="-73.5" font-family="Helvetica,sans-Serif" font-size="10.00">arpa/inet.h</text>
</g>
<!-- Node32&#45;&gt;Node38 -->
<g id="edge90" class="edge"><title>Node32&#45;&gt;Node38</title>
<path fill="none" stroke="midnightblue" d="M813.964,-130.267C800.596,-120.044 780.275,-104.504 764.799,-92.6699"/>
<polygon fill="midnightblue" stroke="midnightblue" points="766.845,-89.828 756.775,-86.5337 762.592,-95.3885 766.845,-89.828"/>
</g>
<!-- Node39&#45;&gt;Node8 -->
<g id="edge96" class="edge"><title>Node39&#45;&gt;Node8</title>
<path fill="none" stroke="midnightblue" d="M411,-130.267C411,-121.18 411,-107.892 411,-96.7395"/>
<polygon fill="midnightblue" stroke="midnightblue" points="414.5,-96.5337 411,-86.5337 407.5,-96.5337 414.5,-96.5337"/>
</g>
<!-- Node39&#45;&gt;Node18 -->
<g id="edge94" class="edge"><title>Node39&#45;&gt;Node18</title>
<path fill="none" stroke="midnightblue" d="M442.991,-130.479C469.148,-121.586 506.916,-108.077 539,-94 541.084,-93.0855 543.219,-92.1042 545.355,-91.0889"/>
<polygon fill="midnightblue" stroke="midnightblue" points="547.173,-94.0947 554.583,-86.5228 544.068,-87.8207 547.173,-94.0947"/>
</g>
<!-- Node39&#45;&gt;Node31 -->
<g id="edge100" class="edge"><title>Node39&#45;&gt;Node31</title>
<path fill="none" stroke="midnightblue" d="M404.089,-130.451C392.593,-113.514 368.108,-79.9374 341,-58 325.13,-45.1576 305.219,-34.1777 288.353,-26.0676"/>
<polygon fill="midnightblue" stroke="midnightblue" points="289.37,-22.6804 278.827,-21.6317 286.415,-29.0261 289.37,-22.6804"/>
</g>
<!-- Node40 -->
<g id="node89" class="node"><title>Node40</title>
<polygon fill="white" stroke="#bfbfbf" points="292,-65.5 292,-86.5 332,-86.5 332,-65.5 292,-65.5"/>
<text text-anchor="middle" x="312" y="-73.5" font-family="Helvetica,sans-Serif" font-size="10.00">QList</text>
</g>
<!-- Node39&#45;&gt;Node40 -->
<g id="edge98" class="edge"><title>Node39&#45;&gt;Node40</title>
<path fill="none" stroke="midnightblue" d="M394.652,-130.267C378.938,-119.949 354.975,-104.216 336.89,-92.3421"/>
<polygon fill="midnightblue" stroke="midnightblue" points="338.324,-89.0964 328.044,-86.5337 334.482,-94.9479 338.324,-89.0964"/>
</g>
<!-- Node41&#45;&gt;Node21 -->
<g id="edge122" class="edge"><title>Node41&#45;&gt;Node21</title>
<path fill="none" stroke="midnightblue" d="M2552.71,-130.467C2525.11,-121.813 2486.01,-108.631 2453,-94 2451.17,-93.1869 2449.3,-92.3094 2447.42,-91.3947"/>
<polygon fill="midnightblue" stroke="midnightblue" points="2448.72,-88.1247 2438.23,-86.6376 2445.5,-94.3417 2448.72,-88.1247"/>
</g>
<!-- Node42 -->
<g id="node94" class="node"><title>Node42</title>
<polygon fill="white" stroke="#bfbfbf" points="3292,-59 3292,-93 3396,-93 3396,-59 3292,-59"/>
<text text-anchor="start" x="3300" y="-80" font-family="Helvetica,sans-Serif" font-size="10.00">QtDataVisualization</text>
<text text-anchor="middle" x="3344" y="-67" font-family="Helvetica,sans-Serif" font-size="10.00">/q3dscatter.h</text>
</g>
<!-- Node41&#45;&gt;Node42 -->
<g id="edge104" class="edge"><title>Node41&#45;&gt;Node42</title>
<path fill="none" stroke="midnightblue" d="M2624.24,-131.534C2627.19,-130.949 2630.14,-130.426 2633,-130 2915.83,-87.9664 2996.02,-141.979 3281.7,-93.9738"/>
<polygon fill="midnightblue" stroke="midnightblue" points="3282.68,-97.3569 3291.94,-92.2228 3281.5,-90.4568 3282.68,-97.3569"/>
</g>
<!-- Node43 -->
<g id="node96" class="node"><title>Node43</title>
<polygon fill="white" stroke="#bfbfbf" points="3413.5,-59 3413.5,-93 3518.5,-93 3518.5,-59 3413.5,-59"/>
<text text-anchor="start" x="3421.5" y="-80" font-family="Helvetica,sans-Serif" font-size="10.00">QtDataVisualization</text>
<text text-anchor="middle" x="3466" y="-67" font-family="Helvetica,sans-Serif" font-size="10.00">/qabstract3dseries.h</text>
</g>
<!-- Node41&#45;&gt;Node43 -->
<g id="edge106" class="edge"><title>Node41&#45;&gt;Node43</title>
<path fill="none" stroke="midnightblue" d="M2624.23,-131.507C2627.18,-130.928 2630.13,-130.413 2633,-130 2969.65,-81.4696 3064.44,-149.661 3403.19,-94.08"/>
<polygon fill="midnightblue" stroke="midnightblue" points="3403.99,-97.4943 3413.28,-92.3993 3402.84,-90.5894 3403.99,-97.4943"/>
</g>
<!-- Node44 -->
<g id="node98" class="node"><title>Node44</title>
<polygon fill="white" stroke="#bfbfbf" points="3536,-65.5 3536,-86.5 3608,-86.5 3608,-65.5 3536,-65.5"/>
<text text-anchor="middle" x="3572" y="-73.5" font-family="Helvetica,sans-Serif" font-size="10.00">QtGui/QFont</text>
</g>
<!-- Node41&#45;&gt;Node44 -->
<g id="edge108" class="edge"><title>Node41&#45;&gt;Node44</title>
<path fill="none" stroke="midnightblue" d="M2624.23,-131.487C2627.18,-130.912 2630.13,-130.404 2633,-130 3026.76,-74.5119 3138.11,-177.042 3527,-94 3531.47,-93.0451 3536.07,-91.6845 3540.55,-90.1334"/>
<polygon fill="midnightblue" stroke="midnightblue" points="3541.94,-93.3482 3550.04,-86.5173 3539.45,-86.8069 3541.94,-93.3482"/>
</g>
<!-- Node45 -->
<g id="node100" class="node"><title>Node45</title>
<polygon fill="white" stroke="#bfbfbf" points="2462,-65.5 2462,-86.5 2584,-86.5 2584,-65.5 2462,-65.5"/>
<text text-anchor="middle" x="2523" y="-73.5" font-family="Helvetica,sans-Serif" font-size="10.00">QtWidgets/QApplication</text>
</g>
<!-- Node41&#45;&gt;Node45 -->
<g id="edge110" class="edge"><title>Node41&#45;&gt;Node45</title>
<path fill="none" stroke="midnightblue" d="M2577.27,-130.267C2567.33,-120.328 2552.36,-105.363 2540.66,-93.6645"/>
<polygon fill="midnightblue" stroke="midnightblue" points="2543.08,-91.1299 2533.53,-86.5337 2538.13,-96.0797 2543.08,-91.1299"/>
</g>
<!-- Node46 -->
<g id="node102" class="node"><title>Node46</title>
<polygon fill="white" stroke="#bfbfbf" points="2602,-65.5 2602,-86.5 2706,-86.5 2706,-65.5 2602,-65.5"/>
<text text-anchor="middle" x="2654" y="-73.5" font-family="Helvetica,sans-Serif" font-size="10.00">QtWidgets/QWidget</text>
</g>
<!-- Node41&#45;&gt;Node46 -->
<g id="edge112" class="edge"><title>Node41&#45;&gt;Node46</title>
<path fill="none" stroke="midnightblue" d="M2598.9,-130.267C2608.99,-120.328 2624.18,-105.363 2636.06,-93.6645"/>
<polygon fill="midnightblue" stroke="midnightblue" points="2638.64,-96.0443 2643.3,-86.5337 2633.72,-91.0569 2638.64,-96.0443"/>
</g>
<!-- Node47 -->
<g id="node104" class="node"><title>Node47</title>
<polygon fill="white" stroke="#bfbfbf" points="2724,-65.5 2724,-86.5 2852,-86.5 2852,-65.5 2724,-65.5"/>
<text text-anchor="middle" x="2788" y="-73.5" font-family="Helvetica,sans-Serif" font-size="10.00">QtWidgets/QHBoxLayout</text>
</g>
<!-- Node41&#45;&gt;Node47 -->
<g id="edge114" class="edge"><title>Node41&#45;&gt;Node47</title>
<path fill="none" stroke="midnightblue" d="M2620.58,-130.412C2654.72,-119.316 2708.48,-101.843 2745.84,-89.7021"/>
<polygon fill="midnightblue" stroke="midnightblue" points="2747.01,-93.0031 2755.44,-86.5835 2744.84,-86.3458 2747.01,-93.0031"/>
</g>
<!-- Node48 -->
<g id="node106" class="node"><title>Node48</title>
<polygon fill="white" stroke="#bfbfbf" points="2869.5,-65.5 2869.5,-86.5 2996.5,-86.5 2996.5,-65.5 2869.5,-65.5"/>
<text text-anchor="middle" x="2933" y="-73.5" font-family="Helvetica,sans-Serif" font-size="10.00">QtWidgets/QVBoxLayout</text>
</g>
<!-- Node41&#45;&gt;Node48 -->
<g id="edge116" class="edge"><title>Node41&#45;&gt;Node48</title>
<path fill="none" stroke="midnightblue" d="M2624.29,-131.854C2627.23,-131.197 2630.16,-130.57 2633,-130 2733.58,-109.803 2760.47,-114.461 2861,-94 2868.37,-92.4991 2876.13,-90.7461 2883.71,-88.9342"/>
<polygon fill="midnightblue" stroke="midnightblue" points="2884.65,-92.3087 2893.53,-86.5345 2882.99,-85.5088 2884.65,-92.3087"/>
</g>
<!-- Node49 -->
<g id="node108" class="node"><title>Node49</title>
<polygon fill="white" stroke="#bfbfbf" points="3013.5,-65.5 3013.5,-86.5 3138.5,-86.5 3138.5,-65.5 3013.5,-65.5"/>
<text text-anchor="middle" x="3076" y="-73.5" font-family="Helvetica,sans-Serif" font-size="10.00">QtWidgets/QPushButton</text>
</g>
<!-- Node41&#45;&gt;Node49 -->
<g id="edge118" class="edge"><title>Node41&#45;&gt;Node49</title>
<path fill="none" stroke="midnightblue" d="M2624.26,-131.665C2627.2,-131.05 2630.15,-130.484 2633,-130 2796.76,-102.208 2841.36,-122.492 3005,-94 3012.84,-92.635 3021.09,-90.8618 3029.08,-88.9615"/>
<polygon fill="midnightblue" stroke="midnightblue" points="3030.14,-92.304 3039.01,-86.5076 3028.46,-85.5083 3030.14,-92.304"/>
</g>
<!-- Node50 -->
<g id="node110" class="node"><title>Node50</title>
<polygon fill="white" stroke="#bfbfbf" points="3155.5,-65.5 3155.5,-86.5 3274.5,-86.5 3274.5,-65.5 3155.5,-65.5"/>
<text text-anchor="middle" x="3215" y="-73.5" font-family="Helvetica,sans-Serif" font-size="10.00">QtWidgets/QCheckBox</text>
</g>
<!-- Node41&#45;&gt;Node50 -->
<g id="edge120" class="edge"><title>Node41&#45;&gt;Node50</title>
<path fill="none" stroke="midnightblue" d="M2624.24,-131.581C2627.19,-130.985 2630.14,-130.447 2633,-130 2859.26,-94.6839 2921.08,-131.467 3147,-94 3154.71,-92.7216 3162.81,-90.9578 3170.63,-89.0311"/>
<polygon fill="midnightblue" stroke="midnightblue" points="3171.52,-92.4154 3180.33,-86.5277 3169.77,-85.6375 3171.52,-92.4154"/>
</g>
</g>
</svg>
