<?xml version="1.0" encoding="UTF-8" standalone="no"?>
<!DOCTYPE svg PUBLIC "-//W3C//DTD SVG 1.1//EN"
 "http://www.w3.org/Graphics/SVG/1.1/DTD/svg11.dtd">
<!-- Generated by graphviz version 2.26.3 (20100126.1600)
 -->
<!-- Title: tone::SetGenerator Pages: 1 -->
<svg width="242pt" height="70pt"
 viewBox="0.00 0.00 242.00 70.00" xmlns="http://www.w3.org/2000/svg" xmlns:xlink="http://www.w3.org/1999/xlink">
<g id="graph1" class="graph" transform="scale(1 1) rotate(0) translate(4 66)">
<title>tone::SetGenerator</title>
<polygon fill="white" stroke="white" points="-4,5 -4,-66 239,-66 239,5 -4,5"/>
<!-- Node1 -->
<g id="node1" class="node"><title>Node1</title>
<polygon fill="#bfbfbf" stroke="black" points="0.5,-20.5 0.5,-41.5 99.5,-41.5 99.5,-20.5 0.5,-20.5"/>
<text text-anchor="middle" x="50" y="-28.5" font-family="Helvetica,sans-Serif" font-size="10.00">tone::SetGenerator</text>
</g>
<!-- Node2 -->
<g id="node3" class="node"><title>Node2</title>
<a xlink:href="class_generator.html#a9aa165c8eca0883e9792d63153701f49" target="_top" xlink:title="Generator::SetPos">
<polygon fill="white" stroke="black" points="136,-40.5 136,-61.5 234,-61.5 234,-40.5 136,-40.5"/>
<text text-anchor="middle" x="185" y="-48.5" font-family="Helvetica,sans-Serif" font-size="10.00">Generator::SetPos</text>
</a>
</g>
<!-- Node1&#45;&gt;Node2 -->
<g id="edge2" class="edge"><title>Node1&#45;&gt;Node2</title>
<path fill="none" stroke="midnightblue" d="M99.5024,-38.3337C108.048,-39.5997 117.009,-40.9273 125.781,-42.2268"/>
<polygon fill="midnightblue" stroke="midnightblue" points="125.55,-45.7307 135.955,-43.734 126.576,-38.8062 125.55,-45.7307"/>
</g>
<!-- Node3 -->
<g id="node5" class="node"><title>Node3</title>
<a xlink:href="class_generator.html#ada073b90efc5104c049eef04844c8801" target="_top" xlink:title="Generator::GetPos">
<polygon fill="white" stroke="black" points="136,-0.5 136,-21.5 234,-21.5 234,-0.5 136,-0.5"/>
<text text-anchor="middle" x="185" y="-8.5" font-family="Helvetica,sans-Serif" font-size="10.00">Generator::GetPos</text>
</a>
</g>
<!-- Node1&#45;&gt;Node3 -->
<g id="edge4" class="edge"><title>Node1&#45;&gt;Node3</title>
<path fill="none" stroke="midnightblue" d="M99.5024,-23.6663C108.048,-22.4003 117.009,-21.0727 125.781,-19.7732"/>
<polygon fill="midnightblue" stroke="midnightblue" points="126.576,-23.1938 135.955,-18.266 125.55,-16.2693 126.576,-23.1938"/>
</g>
</g>
</svg>
