<?xml version="1.0" encoding="UTF-8" standalone="no"?>
<!DOCTYPE svg PUBLIC "-//W3C//DTD SVG 1.1//EN"
 "http://www.w3.org/Graphics/SVG/1.1/DTD/svg11.dtd">
<!-- Generated by graphviz version 2.26.3 (20100126.1600)
 -->
<!-- Title: ToneManager::SLOT_NumberOfTonesChanged Pages: 1 -->
<svg width="328pt" height="226pt"
 viewBox="0.00 0.00 328.00 226.00" xmlns="http://www.w3.org/2000/svg" xmlns:xlink="http://www.w3.org/1999/xlink">
<g id="graph1" class="graph" transform="scale(1 1) rotate(0) translate(4 222)">
<title>ToneManager::SLOT_NumberOfTonesChanged</title>
<polygon fill="white" stroke="white" points="-4,5 -4,-222 325,-222 325,5 -4,5"/>
<!-- Node1 -->
<g id="node1" class="node"><title>Node1</title>
<polygon fill="#bfbfbf" stroke="black" points="0.5,-98 0.5,-132 147.5,-132 147.5,-98 0.5,-98"/>
<text text-anchor="start" x="8.5" y="-119" font-family="Helvetica,sans-Serif" font-size="10.00">ToneManager::SLOT_Number</text>
<text text-anchor="middle" x="74" y="-106" font-family="Helvetica,sans-Serif" font-size="10.00">OfTonesChanged</text>
</g>
<!-- Node2 -->
<g id="node3" class="node"><title>Node2</title>
<a xlink:href="class_tone_manager.html#a5145a5a45c5b673c0301550285a04b61" target="_top" xlink:title="ToneManager::AddTone">
<polygon fill="white" stroke="black" points="191.5,-196.5 191.5,-217.5 312.5,-217.5 312.5,-196.5 191.5,-196.5"/>
<text text-anchor="middle" x="252" y="-204.5" font-family="Helvetica,sans-Serif" font-size="10.00">ToneManager::AddTone</text>
</a>
</g>
<!-- Node1&#45;&gt;Node2 -->
<g id="edge2" class="edge"><title>Node1&#45;&gt;Node2</title>
<path fill="none" stroke="midnightblue" d="M96.0336,-132.232C117.467,-148.295 151.47,-171.97 184,-187 188.887,-189.258 194.09,-191.328 199.358,-193.209"/>
<polygon fill="midnightblue" stroke="midnightblue" points="198.262,-196.533 208.856,-196.39 200.485,-189.896 198.262,-196.533"/>
</g>
<!-- Node3 -->
<g id="node5" class="node"><title>Node3</title>
<a xlink:href="class_tone_manager.html#a9c6253effbaab4dca2b087bc4ab88598" target="_top" xlink:title="ToneManager::Start\l_Audio">
<polygon fill="white" stroke="black" points="200.5,-144 200.5,-178 303.5,-178 303.5,-144 200.5,-144"/>
<text text-anchor="start" x="208.5" y="-165" font-family="Helvetica,sans-Serif" font-size="10.00">ToneManager::Start</text>
<text text-anchor="middle" x="252" y="-152" font-family="Helvetica,sans-Serif" font-size="10.00">_Audio</text>
</a>
</g>
<!-- Node1&#45;&gt;Node3 -->
<g id="edge4" class="edge"><title>Node1&#45;&gt;Node3</title>
<path fill="none" stroke="midnightblue" d="M140.028,-132.063C156.496,-136.319 174.092,-140.866 190.34,-145.066"/>
<polygon fill="midnightblue" stroke="midnightblue" points="189.704,-148.516 200.261,-147.629 191.455,-141.739 189.704,-148.516"/>
</g>
<!-- Node4 -->
<g id="node7" class="node"><title>Node4</title>
<a xlink:href="class_tone_manager.html#a350057c72bfef92eafd78fcf663a4780" target="_top" xlink:title="ToneManager::Set_Volume">
<polygon fill="white" stroke="black" points="184.5,-104.5 184.5,-125.5 319.5,-125.5 319.5,-104.5 184.5,-104.5"/>
<text text-anchor="middle" x="252" y="-112.5" font-family="Helvetica,sans-Serif" font-size="10.00">ToneManager::Set_Volume</text>
</a>
</g>
<!-- Node1&#45;&gt;Node4 -->
<g id="edge6" class="edge"><title>Node1&#45;&gt;Node4</title>
<path fill="none" stroke="midnightblue" d="M147.684,-115C156.415,-115 165.348,-115 174.134,-115"/>
<polygon fill="midnightblue" stroke="midnightblue" points="174.359,-118.5 184.359,-115 174.359,-111.5 174.359,-118.5"/>
</g>
<!-- Node5 -->
<g id="node9" class="node"><title>Node5</title>
<a xlink:href="class_tone_manager.html#adef20253e76dd81cb8b730a04a4c611d" target="_top" xlink:title="ToneManager::Resume\l_Audio">
<polygon fill="white" stroke="black" points="192.5,-52 192.5,-86 311.5,-86 311.5,-52 192.5,-52"/>
<text text-anchor="start" x="200.5" y="-73" font-family="Helvetica,sans-Serif" font-size="10.00">ToneManager::Resume</text>
<text text-anchor="middle" x="252" y="-60" font-family="Helvetica,sans-Serif" font-size="10.00">_Audio</text>
</a>
</g>
<!-- Node1&#45;&gt;Node5 -->
<g id="edge8" class="edge"><title>Node1&#45;&gt;Node5</title>
<path fill="none" stroke="midnightblue" d="M140.028,-97.9367C153.801,-94.3772 168.363,-90.6142 182.265,-87.0214"/>
<polygon fill="midnightblue" stroke="midnightblue" points="183.445,-90.3315 192.251,-84.4407 181.694,-83.5541 183.445,-90.3315"/>
</g>
<!-- Node6 -->
<g id="node11" class="node"><title>Node6</title>
<a xlink:href="class_tone_manager.html#a1585c35147c628bffcca0683d87e9275" target="_top" xlink:title="ToneManager::Pause\l_Audio">
<polygon fill="white" stroke="black" points="197,-0 197,-34 307,-34 307,-0 197,-0"/>
<text text-anchor="start" x="205" y="-21" font-family="Helvetica,sans-Serif" font-size="10.00">ToneManager::Pause</text>
<text text-anchor="middle" x="252" y="-8" font-family="Helvetica,sans-Serif" font-size="10.00">_Audio</text>
</a>
</g>
<!-- Node1&#45;&gt;Node6 -->
<g id="edge10" class="edge"><title>Node1&#45;&gt;Node6</title>
<path fill="none" stroke="midnightblue" d="M97.1447,-97.7385C118.817,-82.0964 152.497,-59.0972 184,-43 187.289,-41.3197 190.712,-39.6842 194.197,-38.1052"/>
<polygon fill="midnightblue" stroke="midnightblue" points="195.733,-41.2544 203.516,-34.0657 192.949,-34.8319 195.733,-41.2544"/>
</g>
</g>
</svg>
