<?xml version="1.0" encoding="UTF-8" standalone="no"?>
<!DOCTYPE svg PUBLIC "-//W3C//DTD SVG 1.1//EN"
 "http://www.w3.org/Graphics/SVG/1.1/DTD/svg11.dtd">
<!-- Generated by graphviz version 2.26.3 (20100126.1600)
 -->
<!-- Title: ToneManager::AddTone Pages: 1 -->
<svg width="316pt" height="94pt"
 viewBox="0.00 0.00 316.00 94.00" xmlns="http://www.w3.org/2000/svg" xmlns:xlink="http://www.w3.org/1999/xlink">
<g id="graph1" class="graph" transform="scale(1 1) rotate(0) translate(4 90)">
<title>ToneManager::AddTone</title>
<polygon fill="white" stroke="white" points="-4,5 -4,-90 313,-90 313,5 -4,5"/>
<!-- Node1 -->
<g id="node1" class="node"><title>Node1</title>
<polygon fill="#bfbfbf" stroke="black" points="0.5,-32.5 0.5,-53.5 121.5,-53.5 121.5,-32.5 0.5,-32.5"/>
<text text-anchor="middle" x="61" y="-40.5" font-family="Helvetica,sans-Serif" font-size="10.00">ToneManager::AddTone</text>
</g>
<!-- Node2 -->
<g id="node3" class="node"><title>Node2</title>
<a xlink:href="class_tone_manager.html#a2de4f382875c53549d203e37c03a1b5c" target="_top" xlink:title="ToneManager::SLOT_Initialize\lTones">
<polygon fill="white" stroke="black" points="158.5,-52 158.5,-86 307.5,-86 307.5,-52 158.5,-52"/>
<text text-anchor="start" x="166.5" y="-73" font-family="Helvetica,sans-Serif" font-size="10.00">ToneManager::SLOT_Initialize</text>
<text text-anchor="middle" x="233" y="-60" font-family="Helvetica,sans-Serif" font-size="10.00">Tones</text>
</a>
</g>
<!-- Node1&#45;&gt;Node2 -->
<g id="edge2" class="edge"><title>Node1&#45;&gt;Node2</title>
<path fill="none" stroke="midnightblue" d="M131.538,-53.6627C140.408,-55.0035 149.505,-56.3787 158.435,-57.7285"/>
<polygon fill="midnightblue" stroke="midnightblue" points="132.052,-50.2007 121.641,-52.1666 131.005,-57.122 132.052,-50.2007"/>
</g>
<!-- Node3 -->
<g id="node5" class="node"><title>Node3</title>
<a xlink:href="class_tone_manager.html#a4491c3853b267e69d839e5d07db6c65f" target="_top" xlink:title="ToneManager::SLOT_Number\lOfTonesChanged">
<polygon fill="white" stroke="black" points="159.5,-0 159.5,-34 306.5,-34 306.5,-0 159.5,-0"/>
<text text-anchor="start" x="167.5" y="-21" font-family="Helvetica,sans-Serif" font-size="10.00">ToneManager::SLOT_Number</text>
<text text-anchor="middle" x="233" y="-8" font-family="Helvetica,sans-Serif" font-size="10.00">OfTonesChanged</text>
</a>
</g>
<!-- Node1&#45;&gt;Node3 -->
<g id="edge4" class="edge"><title>Node1&#45;&gt;Node3</title>
<path fill="none" stroke="midnightblue" d="M131.782,-32.3004C140.873,-30.9262 150.198,-29.5166 159.333,-28.1357"/>
<polygon fill="midnightblue" stroke="midnightblue" points="131.005,-28.878 121.641,-33.8334 132.052,-35.7993 131.005,-28.878"/>
</g>
</g>
</svg>
