<?xml version="1.0" encoding="UTF-8" standalone="no"?>
<!DOCTYPE svg PUBLIC "-//W3C//DTD SVG 1.1//EN"
 "http://www.w3.org/Graphics/SVG/1.1/DTD/svg11.dtd">
<!-- Generated by graphviz version 2.26.3 (20100126.1600)
 -->
<!-- Title: PacketCapturer::SIG_NEW_TONE Pages: 1 -->
<svg width="622pt" height="42pt"
 viewBox="0.00 0.00 622.00 42.00" xmlns="http://www.w3.org/2000/svg" xmlns:xlink="http://www.w3.org/1999/xlink">
<g id="graph1" class="graph" transform="scale(1 1) rotate(0) translate(4 38)">
<title>PacketCapturer::SIG_NEW_TONE</title>
<polygon fill="white" stroke="white" points="-4,5 -4,-38 619,-38 619,5 -4,5"/>
<!-- Node1 -->
<g id="node1" class="node"><title>Node1</title>
<polygon fill="#bfbfbf" stroke="black" points="0,-0 0,-34 108,-34 108,-0 0,-0"/>
<text text-anchor="start" x="8" y="-21" font-family="Helvetica,sans-Serif" font-size="10.00">PacketCapturer::SIG</text>
<text text-anchor="middle" x="54" y="-8" font-family="Helvetica,sans-Serif" font-size="10.00">_NEW_TONE</text>
</g>
<!-- Node2 -->
<g id="node3" class="node"><title>Node2</title>
<a xlink:href="class_packet_capturer.html#a4df4e57d6ad6d62bf48f3e7a421a98d0" target="_top" xlink:title="PacketCapturer::ChangeEmitter">
<polygon fill="white" stroke="black" points="144,-6.5 144,-27.5 300,-27.5 300,-6.5 144,-6.5"/>
<text text-anchor="middle" x="222" y="-14.5" font-family="Helvetica,sans-Serif" font-size="10.00">PacketCapturer::ChangeEmitter</text>
</a>
</g>
<!-- Node1&#45;&gt;Node2 -->
<g id="edge2" class="edge"><title>Node1&#45;&gt;Node2</title>
<path fill="none" stroke="midnightblue" d="M118.168,-17C126.571,-17 135.256,-17 143.858,-17"/>
<polygon fill="midnightblue" stroke="midnightblue" points="118.081,-13.5001 108.081,-17 118.081,-20.5001 118.081,-13.5001"/>
</g>
<!-- Node3 -->
<g id="node5" class="node"><title>Node3</title>
<a xlink:href="namespacepacketprocess.html#a17240af943c2d732bb5242e802445a5f" target="_top" xlink:title="packetprocess::Callback\l_ProcessPacket">
<polygon fill="white" stroke="black" points="336.5,-0 336.5,-34 461.5,-34 461.5,-0 336.5,-0"/>
<text text-anchor="start" x="344.5" y="-21" font-family="Helvetica,sans-Serif" font-size="10.00">packetprocess::Callback</text>
<text text-anchor="middle" x="399" y="-8" font-family="Helvetica,sans-Serif" font-size="10.00">_ProcessPacket</text>
</a>
</g>
<!-- Node2&#45;&gt;Node3 -->
<g id="edge4" class="edge"><title>Node2&#45;&gt;Node3</title>
<path fill="none" stroke="midnightblue" d="M310.428,-17C319.201,-17 327.975,-17 336.406,-17"/>
<polygon fill="midnightblue" stroke="midnightblue" points="310.15,-13.5001 300.15,-17 310.15,-20.5001 310.15,-13.5001"/>
</g>
<!-- Node4 -->
<g id="node7" class="node"><title>Node4</title>
<a xlink:href="class_packet_capturer.html#a3f008c97baedf3417013623b05b0de34" target="_top" xlink:title="PacketCapturer::SLOT\l_CAPTURE">
<polygon fill="white" stroke="black" points="498,-0 498,-34 614,-34 614,-0 498,-0"/>
<text text-anchor="start" x="506" y="-21" font-family="Helvetica,sans-Serif" font-size="10.00">PacketCapturer::SLOT</text>
<text text-anchor="middle" x="556" y="-8" font-family="Helvetica,sans-Serif" font-size="10.00">_CAPTURE</text>
</a>
</g>
<!-- Node3&#45;&gt;Node4 -->
<g id="edge6" class="edge"><title>Node3&#45;&gt;Node4</title>
<path fill="none" stroke="midnightblue" d="M471.7,-17C480.447,-17 489.291,-17 497.793,-17"/>
<polygon fill="midnightblue" stroke="midnightblue" points="471.502,-13.5001 461.502,-17 471.502,-20.5001 471.502,-13.5001"/>
</g>
</g>
</svg>
