<?xml version="1.0" encoding="UTF-8" standalone="no"?>
<!DOCTYPE svg PUBLIC "-//W3C//DTD SVG 1.1//EN"
 "http://www.w3.org/Graphics/SVG/1.1/DTD/svg11.dtd">
<!-- Generated by graphviz version 2.26.3 (20100126.1600)
 -->
<!-- Title: Generator::start Pages: 1 -->
<svg width="246pt" height="110pt"
 viewBox="0.00 0.00 246.00 110.00" xmlns="http://www.w3.org/2000/svg" xmlns:xlink="http://www.w3.org/1999/xlink">
<g id="graph1" class="graph" transform="scale(1 1) rotate(0) translate(4 106)">
<title>Generator::start</title>
<polygon fill="white" stroke="white" points="-4,5 -4,-106 243,-106 243,5 -4,5"/>
<!-- Node1 -->
<g id="node1" class="node"><title>Node1</title>
<polygon fill="#bfbfbf" stroke="black" points="0.5,-40.5 0.5,-61.5 85.5,-61.5 85.5,-40.5 0.5,-40.5"/>
<text text-anchor="middle" x="43" y="-48.5" font-family="Helvetica,sans-Serif" font-size="10.00">Generator::start</text>
</g>
<!-- Node2 -->
<g id="node3" class="node"><title>Node2</title>
<a xlink:href="classtone.html#aab27a99690337d475f6be5188798c732" target="_top" xlink:title="tone::DoStartPlaying">
<polygon fill="white" stroke="black" points="126.5,-80.5 126.5,-101.5 233.5,-101.5 233.5,-80.5 126.5,-80.5"/>
<text text-anchor="middle" x="180" y="-88.5" font-family="Helvetica,sans-Serif" font-size="10.00">tone::DoStartPlaying</text>
</a>
</g>
<!-- Node1&#45;&gt;Node2 -->
<g id="edge2" class="edge"><title>Node1&#45;&gt;Node2</title>
<path fill="none" stroke="midnightblue" d="M88.6752,-64.3358C106.601,-69.5696 126.881,-75.4909 143.77,-80.4218"/>
<polygon fill="midnightblue" stroke="midnightblue" points="89.5753,-60.9526 78.9951,-61.5095 87.6134,-67.672 89.5753,-60.9526"/>
</g>
<!-- Node3 -->
<g id="node5" class="node"><title>Node3</title>
<a xlink:href="classtone.html#add8491d03d8b82453b42a236b111c02a" target="_top" xlink:title="tone::DoResumeAudio">
<polygon fill="white" stroke="black" points="122,-40.5 122,-61.5 238,-61.5 238,-40.5 122,-40.5"/>
<text text-anchor="middle" x="180" y="-48.5" font-family="Helvetica,sans-Serif" font-size="10.00">tone::DoResumeAudio</text>
</a>
</g>
<!-- Node1&#45;&gt;Node3 -->
<g id="edge4" class="edge"><title>Node1&#45;&gt;Node3</title>
<path fill="none" stroke="midnightblue" d="M95.7882,-51C104.314,-51 113.184,-51 121.828,-51"/>
<polygon fill="midnightblue" stroke="midnightblue" points="95.5967,-47.5001 85.5967,-51 95.5966,-54.5001 95.5967,-47.5001"/>
</g>
<!-- Node4 -->
<g id="node7" class="node"><title>Node4</title>
<a xlink:href="classtone.html#a989956fe95107f983464d2ac01b19211" target="_top" xlink:title="tone::SetFrequency">
<polygon fill="white" stroke="black" points="129,-0.5 129,-21.5 231,-21.5 231,-0.5 129,-0.5"/>
<text text-anchor="middle" x="180" y="-8.5" font-family="Helvetica,sans-Serif" font-size="10.00">tone::SetFrequency</text>
</a>
</g>
<!-- Node1&#45;&gt;Node4 -->
<g id="edge6" class="edge"><title>Node1&#45;&gt;Node4</title>
<path fill="none" stroke="midnightblue" d="M88.6752,-37.6642C106.601,-32.4304 126.881,-26.5091 143.77,-21.5782"/>
<polygon fill="midnightblue" stroke="midnightblue" points="87.6134,-34.328 78.9951,-40.4905 89.5753,-41.0474 87.6134,-34.328"/>
</g>
</g>
</svg>
