<?xml version="1.0" encoding="UTF-8" standalone="no"?>
<!DOCTYPE svg PUBLIC "-//W3C//DTD SVG 1.1//EN"
 "http://www.w3.org/Graphics/SVG/1.1/DTD/svg11.dtd">
<!-- Generated by graphviz version 2.26.3 (20100126.1600)
 -->
<!-- Title: ToneManager::Resume_Audio Pages: 1 -->
<svg width="312pt" height="42pt"
 viewBox="0.00 0.00 312.00 42.00" xmlns="http://www.w3.org/2000/svg" xmlns:xlink="http://www.w3.org/1999/xlink">
<g id="graph1" class="graph" transform="scale(1 1) rotate(0) translate(4 38)">
<title>ToneManager::Resume_Audio</title>
<polygon fill="white" stroke="white" points="-4,5 -4,-38 309,-38 309,5 -4,5"/>
<!-- Node1 -->
<g id="node1" class="node"><title>Node1</title>
<polygon fill="#bfbfbf" stroke="black" points="0.5,-0 0.5,-34 119.5,-34 119.5,-0 0.5,-0"/>
<text text-anchor="start" x="8.5" y="-21" font-family="Helvetica,sans-Serif" font-size="10.00">ToneManager::Resume</text>
<text text-anchor="middle" x="60" y="-8" font-family="Helvetica,sans-Serif" font-size="10.00">_Audio</text>
</g>
<!-- Node2 -->
<g id="node3" class="node"><title>Node2</title>
<a xlink:href="class_tone_manager.html#a4491c3853b267e69d839e5d07db6c65f" target="_top" xlink:title="ToneManager::SLOT_Number\lOfTonesChanged">
<polygon fill="white" stroke="black" points="156.5,-0 156.5,-34 303.5,-34 303.5,-0 156.5,-0"/>
<text text-anchor="start" x="164.5" y="-21" font-family="Helvetica,sans-Serif" font-size="10.00">ToneManager::SLOT_Number</text>
<text text-anchor="middle" x="230" y="-8" font-family="Helvetica,sans-Serif" font-size="10.00">OfTonesChanged</text>
</a>
</g>
<!-- Node1&#45;&gt;Node2 -->
<g id="edge2" class="edge"><title>Node1&#45;&gt;Node2</title>
<path fill="none" stroke="midnightblue" d="M130.001,-17C138.678,-17 147.571,-17 156.302,-17"/>
<polygon fill="midnightblue" stroke="midnightblue" points="129.936,-13.5001 119.936,-17 129.936,-20.5001 129.936,-13.5001"/>
</g>
</g>
</svg>
