<?xml version="1.0" encoding="UTF-8" standalone="no"?>
<!DOCTYPE svg PUBLIC "-//W3C//DTD SVG 1.1//EN"
 "http://www.w3.org/Graphics/SVG/1.1/DTD/svg11.dtd">
<!-- Generated by graphviz version 2.26.3 (20100126.1600)
 -->
<!-- Title: ToneManager::Start_Audio Pages: 1 -->
<svg width="298pt" height="94pt"
 viewBox="0.00 0.00 298.00 94.00" xmlns="http://www.w3.org/2000/svg" xmlns:xlink="http://www.w3.org/1999/xlink">
<g id="graph1" class="graph" transform="scale(1 1) rotate(0) translate(4 90)">
<title>ToneManager::Start_Audio</title>
<polygon fill="white" stroke="white" points="-4,5 -4,-90 295,-90 295,5 -4,5"/>
<!-- Node1 -->
<g id="node1" class="node"><title>Node1</title>
<polygon fill="#bfbfbf" stroke="black" points="0.5,-26 0.5,-60 103.5,-60 103.5,-26 0.5,-26"/>
<text text-anchor="start" x="8.5" y="-47" font-family="Helvetica,sans-Serif" font-size="10.00">ToneManager::Start</text>
<text text-anchor="middle" x="52" y="-34" font-family="Helvetica,sans-Serif" font-size="10.00">_Audio</text>
</g>
<!-- Node2 -->
<g id="node3" class="node"><title>Node2</title>
<a xlink:href="class_tone_manager.html#a2de4f382875c53549d203e37c03a1b5c" target="_top" xlink:title="ToneManager::SLOT_Initialize\lTones">
<polygon fill="white" stroke="black" points="140.5,-52 140.5,-86 289.5,-86 289.5,-52 140.5,-52"/>
<text text-anchor="start" x="148.5" y="-73" font-family="Helvetica,sans-Serif" font-size="10.00">ToneManager::SLOT_Initialize</text>
<text text-anchor="middle" x="215" y="-60" font-family="Helvetica,sans-Serif" font-size="10.00">Tones</text>
</a>
</g>
<!-- Node1&#45;&gt;Node2 -->
<g id="edge2" class="edge"><title>Node1&#45;&gt;Node2</title>
<path fill="none" stroke="midnightblue" d="M113.611,-52.8275C122.308,-54.2148 131.327,-55.6534 140.238,-57.0748"/>
<polygon fill="midnightblue" stroke="midnightblue" points="114.001,-49.3455 103.574,-51.2266 112.898,-56.2581 114.001,-49.3455"/>
</g>
<!-- Node3 -->
<g id="node5" class="node"><title>Node3</title>
<a xlink:href="class_tone_manager.html#a4491c3853b267e69d839e5d07db6c65f" target="_top" xlink:title="ToneManager::SLOT_Number\lOfTonesChanged">
<polygon fill="white" stroke="black" points="141.5,-0 141.5,-34 288.5,-34 288.5,-0 141.5,-0"/>
<text text-anchor="start" x="149.5" y="-21" font-family="Helvetica,sans-Serif" font-size="10.00">ToneManager::SLOT_Number</text>
<text text-anchor="middle" x="215" y="-8" font-family="Helvetica,sans-Serif" font-size="10.00">OfTonesChanged</text>
</a>
</g>
<!-- Node1&#45;&gt;Node3 -->
<g id="edge4" class="edge"><title>Node1&#45;&gt;Node3</title>
<path fill="none" stroke="midnightblue" d="M113.645,-33.1671C122.719,-31.7197 132.143,-30.2165 141.428,-28.7354"/>
<polygon fill="midnightblue" stroke="midnightblue" points="112.898,-29.7419 103.574,-34.7734 114.001,-36.6545 112.898,-29.7419"/>
</g>
</g>
</svg>
