<?xml version="1.0" encoding="UTF-8" standalone="no"?>
<!DOCTYPE svg PUBLIC "-//W3C//DTD SVG 1.1//EN"
 "http://www.w3.org/Graphics/SVG/1.1/DTD/svg11.dtd">
<!-- Generated by graphviz version 2.26.3 (20100126.1600)
 -->
<!-- Title: ToneManager::Set_Volume Pages: 1 -->
<svg width="330pt" height="146pt"
 viewBox="0.00 0.00 330.00 146.00" xmlns="http://www.w3.org/2000/svg" xmlns:xlink="http://www.w3.org/1999/xlink">
<g id="graph1" class="graph" transform="scale(1 1) rotate(0) translate(4 142)">
<title>ToneManager::Set_Volume</title>
<polygon fill="white" stroke="white" points="-4,5 -4,-142 327,-142 327,5 -4,5"/>
<!-- Node1 -->
<g id="node1" class="node"><title>Node1</title>
<polygon fill="#bfbfbf" stroke="black" points="0.5,-58.5 0.5,-79.5 135.5,-79.5 135.5,-58.5 0.5,-58.5"/>
<text text-anchor="middle" x="68" y="-66.5" font-family="Helvetica,sans-Serif" font-size="10.00">ToneManager::Set_Volume</text>
</g>
<!-- Node2 -->
<g id="node3" class="node"><title>Node2</title>
<a xlink:href="class_tone_manager.html#a2de4f382875c53549d203e37c03a1b5c" target="_top" xlink:title="ToneManager::SLOT_Initialize\lTones">
<polygon fill="white" stroke="black" points="172.5,-104 172.5,-138 321.5,-138 321.5,-104 172.5,-104"/>
<text text-anchor="start" x="180.5" y="-125" font-family="Helvetica,sans-Serif" font-size="10.00">ToneManager::SLOT_Initialize</text>
<text text-anchor="middle" x="247" y="-112" font-family="Helvetica,sans-Serif" font-size="10.00">Tones</text>
</a>
</g>
<!-- Node1&#45;&gt;Node2 -->
<g id="edge2" class="edge"><title>Node1&#45;&gt;Node2</title>
<path fill="none" stroke="midnightblue" d="M113.924,-82.3411C136.564,-88.918 164.125,-96.9246 188.28,-103.942"/>
<polygon fill="midnightblue" stroke="midnightblue" points="114.803,-78.9517 104.223,-79.523 112.85,-85.6738 114.803,-78.9517"/>
</g>
<!-- Node3 -->
<g id="node5" class="node"><title>Node3</title>
<a xlink:href="class_tone_manager.html#af3235b97bd5eb323707df906c2057194" target="_top" xlink:title="ToneManager::SLOT_Volume\lChanged">
<polygon fill="white" stroke="black" points="174,-52 174,-86 320,-86 320,-52 174,-52"/>
<text text-anchor="start" x="182" y="-73" font-family="Helvetica,sans-Serif" font-size="10.00">ToneManager::SLOT_Volume</text>
<text text-anchor="middle" x="247" y="-60" font-family="Helvetica,sans-Serif" font-size="10.00">Changed</text>
</a>
</g>
<!-- Node1&#45;&gt;Node3 -->
<g id="edge4" class="edge"><title>Node1&#45;&gt;Node3</title>
<path fill="none" stroke="midnightblue" d="M145.721,-69C155.062,-69 164.578,-69 173.851,-69"/>
<polygon fill="midnightblue" stroke="midnightblue" points="145.672,-65.5001 135.672,-69 145.672,-72.5001 145.672,-65.5001"/>
</g>
<!-- Node4 -->
<g id="node7" class="node"><title>Node4</title>
<a xlink:href="class_tone_manager.html#a4491c3853b267e69d839e5d07db6c65f" target="_top" xlink:title="ToneManager::SLOT_Number\lOfTonesChanged">
<polygon fill="white" stroke="black" points="173.5,-0 173.5,-34 320.5,-34 320.5,-0 173.5,-0"/>
<text text-anchor="start" x="181.5" y="-21" font-family="Helvetica,sans-Serif" font-size="10.00">ToneManager::SLOT_Number</text>
<text text-anchor="middle" x="247" y="-8" font-family="Helvetica,sans-Serif" font-size="10.00">OfTonesChanged</text>
</a>
</g>
<!-- Node1&#45;&gt;Node4 -->
<g id="edge6" class="edge"><title>Node1&#45;&gt;Node4</title>
<path fill="none" stroke="midnightblue" d="M113.924,-55.6589C136.564,-49.082 164.125,-41.0754 188.28,-34.0582"/>
<polygon fill="midnightblue" stroke="midnightblue" points="112.85,-52.3262 104.223,-58.477 114.803,-59.0483 112.85,-52.3262"/>
</g>
</g>
</svg>
