<?xml version="1.0" encoding="UTF-8" standalone="no"?>
<!DOCTYPE svg PUBLIC "-//W3C//DTD SVG 1.1//EN"
 "http://www.w3.org/Graphics/SVG/1.1/DTD/svg11.dtd">
<!-- Generated by graphviz version 2.26.3 (20100126.1600)
 -->
<!-- Title: PacketCapturer::SLOT_CAPTURE Pages: 1 -->
<svg width="622pt" height="42pt"
 viewBox="0.00 0.00 622.00 42.00" xmlns="http://www.w3.org/2000/svg" xmlns:xlink="http://www.w3.org/1999/xlink">
<g id="graph1" class="graph" transform="scale(1 1) rotate(0) translate(4 38)">
<title>PacketCapturer::SLOT_CAPTURE</title>
<polygon fill="white" stroke="white" points="-4,5 -4,-38 619,-38 619,5 -4,5"/>
<!-- Node1 -->
<g id="node1" class="node"><title>Node1</title>
<polygon fill="#bfbfbf" stroke="black" points="0,-0 0,-34 116,-34 116,-0 0,-0"/>
<text text-anchor="start" x="8" y="-21" font-family="Helvetica,sans-Serif" font-size="10.00">PacketCapturer::SLOT</text>
<text text-anchor="middle" x="58" y="-8" font-family="Helvetica,sans-Serif" font-size="10.00">_CAPTURE</text>
</g>
<!-- Node2 -->
<g id="node3" class="node"><title>Node2</title>
<a xlink:href="namespacepacketprocess.html#a17240af943c2d732bb5242e802445a5f" target="_top" xlink:title="packetprocess::Callback\l_ProcessPacket">
<polygon fill="white" stroke="black" points="152.5,-0 152.5,-34 277.5,-34 277.5,-0 152.5,-0"/>
<text text-anchor="start" x="160.5" y="-21" font-family="Helvetica,sans-Serif" font-size="10.00">packetprocess::Callback</text>
<text text-anchor="middle" x="215" y="-8" font-family="Helvetica,sans-Serif" font-size="10.00">_ProcessPacket</text>
</a>
</g>
<!-- Node1&#45;&gt;Node2 -->
<g id="edge2" class="edge"><title>Node1&#45;&gt;Node2</title>
<path fill="none" stroke="midnightblue" d="M116.015,-17C124.553,-17 133.44,-17 142.229,-17"/>
<polygon fill="midnightblue" stroke="midnightblue" points="142.477,-20.5001 152.477,-17 142.477,-13.5001 142.477,-20.5001"/>
</g>
<!-- Node3 -->
<g id="node5" class="node"><title>Node3</title>
<a xlink:href="class_packet_capturer.html#a4df4e57d6ad6d62bf48f3e7a421a98d0" target="_top" xlink:title="PacketCapturer::ChangeEmitter">
<polygon fill="white" stroke="black" points="314,-6.5 314,-27.5 470,-27.5 470,-6.5 314,-6.5"/>
<text text-anchor="middle" x="392" y="-14.5" font-family="Helvetica,sans-Serif" font-size="10.00">PacketCapturer::ChangeEmitter</text>
</a>
</g>
<!-- Node2&#45;&gt;Node3 -->
<g id="edge4" class="edge"><title>Node2&#45;&gt;Node3</title>
<path fill="none" stroke="midnightblue" d="M277.902,-17C286.258,-17 294.947,-17 303.634,-17"/>
<polygon fill="midnightblue" stroke="midnightblue" points="303.812,-20.5001 313.812,-17 303.812,-13.5001 303.812,-20.5001"/>
</g>
<!-- Node4 -->
<g id="node7" class="node"><title>Node4</title>
<a xlink:href="class_packet_capturer.html#a010699f00f58d9135c95eb358e40889b" target="_top" xlink:title="PacketCapturer::SIG\l_NEW_TONE">
<polygon fill="white" stroke="black" points="506,-0 506,-34 614,-34 614,-0 506,-0"/>
<text text-anchor="start" x="514" y="-21" font-family="Helvetica,sans-Serif" font-size="10.00">PacketCapturer::SIG</text>
<text text-anchor="middle" x="560" y="-8" font-family="Helvetica,sans-Serif" font-size="10.00">_NEW_TONE</text>
</a>
</g>
<!-- Node3&#45;&gt;Node4 -->
<g id="edge6" class="edge"><title>Node3&#45;&gt;Node4</title>
<path fill="none" stroke="midnightblue" d="M470.098,-17C478.627,-17 487.237,-17 495.575,-17"/>
<polygon fill="midnightblue" stroke="midnightblue" points="495.586,-20.5001 505.586,-17 495.586,-13.5001 495.586,-20.5001"/>
</g>
</g>
</svg>
