<?xml version="1.0" encoding="UTF-8" standalone="no"?>
<!DOCTYPE svg PUBLIC "-//W3C//DTD SVG 1.1//EN"
 "http://www.w3.org/Graphics/SVG/1.1/DTD/svg11.dtd">
<!-- Generated by graphviz version 2.26.3 (20100126.1600)
 -->
<!-- Title: ToneManager::SLOT_InitializeTones Pages: 1 -->
<svg width="330pt" height="122pt"
 viewBox="0.00 0.00 330.00 122.00" xmlns="http://www.w3.org/2000/svg" xmlns:xlink="http://www.w3.org/1999/xlink">
<g id="graph1" class="graph" transform="scale(1 1) rotate(0) translate(4 118)">
<title>ToneManager::SLOT_InitializeTones</title>
<polygon fill="white" stroke="white" points="-4,5 -4,-118 327,-118 327,5 -4,5"/>
<!-- Node1 -->
<g id="node1" class="node"><title>Node1</title>
<polygon fill="#bfbfbf" stroke="black" points="0.5,-46 0.5,-80 149.5,-80 149.5,-46 0.5,-46"/>
<text text-anchor="start" x="8.5" y="-67" font-family="Helvetica,sans-Serif" font-size="10.00">ToneManager::SLOT_Initialize</text>
<text text-anchor="middle" x="75" y="-54" font-family="Helvetica,sans-Serif" font-size="10.00">Tones</text>
</g>
<!-- Node2 -->
<g id="node3" class="node"><title>Node2</title>
<a xlink:href="class_tone_manager.html#a5145a5a45c5b673c0301550285a04b61" target="_top" xlink:title="ToneManager::AddTone">
<polygon fill="white" stroke="black" points="193.5,-92.5 193.5,-113.5 314.5,-113.5 314.5,-92.5 193.5,-92.5"/>
<text text-anchor="middle" x="254" y="-100.5" font-family="Helvetica,sans-Serif" font-size="10.00">ToneManager::AddTone</text>
</a>
</g>
<!-- Node1&#45;&gt;Node2 -->
<g id="edge2" class="edge"><title>Node1&#45;&gt;Node2</title>
<path fill="none" stroke="midnightblue" d="M149.616,-79.674C165.36,-83.1922 181.737,-86.8518 196.722,-90.2006"/>
<polygon fill="midnightblue" stroke="midnightblue" points="196.327,-93.6985 206.85,-92.4637 197.854,-86.867 196.327,-93.6985"/>
</g>
<!-- Node3 -->
<g id="node5" class="node"><title>Node3</title>
<a xlink:href="class_tone_manager.html#a350057c72bfef92eafd78fcf663a4780" target="_top" xlink:title="ToneManager::Set_Volume">
<polygon fill="white" stroke="black" points="186.5,-52.5 186.5,-73.5 321.5,-73.5 321.5,-52.5 186.5,-52.5"/>
<text text-anchor="middle" x="254" y="-60.5" font-family="Helvetica,sans-Serif" font-size="10.00">ToneManager::Set_Volume</text>
</a>
</g>
<!-- Node1&#45;&gt;Node3 -->
<g id="edge4" class="edge"><title>Node1&#45;&gt;Node3</title>
<path fill="none" stroke="midnightblue" d="M149.616,-63C158.372,-63 167.325,-63 176.124,-63"/>
<polygon fill="midnightblue" stroke="midnightblue" points="176.363,-66.5001 186.363,-63 176.363,-59.5001 176.363,-66.5001"/>
</g>
<!-- Node4 -->
<g id="node7" class="node"><title>Node4</title>
<a xlink:href="class_tone_manager.html#a9c6253effbaab4dca2b087bc4ab88598" target="_top" xlink:title="ToneManager::Start\l_Audio">
<polygon fill="white" stroke="black" points="202.5,-0 202.5,-34 305.5,-34 305.5,-0 202.5,-0"/>
<text text-anchor="start" x="210.5" y="-21" font-family="Helvetica,sans-Serif" font-size="10.00">ToneManager::Start</text>
<text text-anchor="middle" x="254" y="-8" font-family="Helvetica,sans-Serif" font-size="10.00">_Audio</text>
</a>
</g>
<!-- Node1&#45;&gt;Node4 -->
<g id="edge6" class="edge"><title>Node1&#45;&gt;Node4</title>
<path fill="none" stroke="midnightblue" d="M141.399,-45.9367C158.042,-41.6595 175.83,-37.0883 192.238,-32.8718"/>
<polygon fill="midnightblue" stroke="midnightblue" points="193.439,-36.177 202.253,-30.2981 191.697,-29.3973 193.439,-36.177"/>
</g>
</g>
</svg>
