<?xml version="1.0" encoding="UTF-8" standalone="no"?>
<!DOCTYPE svg PUBLIC "-//W3C//DTD SVG 1.1//EN"
 "http://www.w3.org/Graphics/SVG/1.1/DTD/svg11.dtd">
<!-- Generated by graphviz version 2.26.3 (20100126.1600)
 -->
<!-- Title: PacketCapturer::ChangeEmitter Pages: 1 -->
<svg width="478pt" height="42pt"
 viewBox="0.00 0.00 478.00 42.00" xmlns="http://www.w3.org/2000/svg" xmlns:xlink="http://www.w3.org/1999/xlink">
<g id="graph1" class="graph" transform="scale(1 1) rotate(0) translate(4 38)">
<title>PacketCapturer::ChangeEmitter</title>
<polygon fill="white" stroke="white" points="-4,5 -4,-38 475,-38 475,5 -4,5"/>
<!-- Node1 -->
<g id="node1" class="node"><title>Node1</title>
<polygon fill="#bfbfbf" stroke="black" points="0,-6.5 0,-27.5 156,-27.5 156,-6.5 0,-6.5"/>
<text text-anchor="middle" x="78" y="-14.5" font-family="Helvetica,sans-Serif" font-size="10.00">PacketCapturer::ChangeEmitter</text>
</g>
<!-- Node2 -->
<g id="node3" class="node"><title>Node2</title>
<a xlink:href="namespacepacketprocess.html#a17240af943c2d732bb5242e802445a5f" target="_top" xlink:title="packetprocess::Callback\l_ProcessPacket">
<polygon fill="white" stroke="black" points="192.5,-0 192.5,-34 317.5,-34 317.5,-0 192.5,-0"/>
<text text-anchor="start" x="200.5" y="-21" font-family="Helvetica,sans-Serif" font-size="10.00">packetprocess::Callback</text>
<text text-anchor="middle" x="255" y="-8" font-family="Helvetica,sans-Serif" font-size="10.00">_ProcessPacket</text>
</a>
</g>
<!-- Node1&#45;&gt;Node2 -->
<g id="edge2" class="edge"><title>Node1&#45;&gt;Node2</title>
<path fill="none" stroke="midnightblue" d="M166.428,-17C175.201,-17 183.975,-17 192.406,-17"/>
<polygon fill="midnightblue" stroke="midnightblue" points="166.15,-13.5001 156.15,-17 166.15,-20.5001 166.15,-13.5001"/>
</g>
<!-- Node3 -->
<g id="node5" class="node"><title>Node3</title>
<a xlink:href="class_packet_capturer.html#a3f008c97baedf3417013623b05b0de34" target="_top" xlink:title="PacketCapturer::SLOT\l_CAPTURE">
<polygon fill="white" stroke="black" points="354,-0 354,-34 470,-34 470,-0 354,-0"/>
<text text-anchor="start" x="362" y="-21" font-family="Helvetica,sans-Serif" font-size="10.00">PacketCapturer::SLOT</text>
<text text-anchor="middle" x="412" y="-8" font-family="Helvetica,sans-Serif" font-size="10.00">_CAPTURE</text>
</a>
</g>
<!-- Node2&#45;&gt;Node3 -->
<g id="edge4" class="edge"><title>Node2&#45;&gt;Node3</title>
<path fill="none" stroke="midnightblue" d="M327.7,-17C336.447,-17 345.291,-17 353.793,-17"/>
<polygon fill="midnightblue" stroke="midnightblue" points="327.502,-13.5001 317.502,-17 327.502,-20.5001 327.502,-13.5001"/>
</g>
</g>
</svg>
