<?xml version="1.0" encoding="UTF-8" standalone="no"?>
<!DOCTYPE svg PUBLIC "-//W3C//DTD SVG 1.1//EN"
 "http://www.w3.org/Graphics/SVG/1.1/DTD/svg11.dtd">
<!-- Generated by graphviz version 2.26.3 (20100126.1600)
 -->
<!-- Title: Network&#45;Music/generator.h Pages: 1 -->
<svg width="553pt" height="146pt"
 viewBox="0.00 0.00 553.00 146.00" xmlns="http://www.w3.org/2000/svg" xmlns:xlink="http://www.w3.org/1999/xlink">
<g id="graph1" class="graph" transform="scale(1 1) rotate(0) translate(4 142)">
<title>Network&#45;Music/generator.h</title>
<polygon fill="white" stroke="white" points="-4,5 -4,-142 550,-142 550,5 -4,5"/>
<!-- Node1 -->
<g id="node1" class="node"><title>Node1</title>
<polygon fill="#bfbfbf" stroke="black" points="306,-116.5 306,-137.5 440,-137.5 440,-116.5 306,-116.5"/>
<text text-anchor="middle" x="373" y="-124.5" font-family="Helvetica,sans-Serif" font-size="10.00">Network&#45;Music/generator.h</text>
</g>
<!-- Node2 -->
<g id="node3" class="node"><title>Node2</title>
<a xlink:href="tone_8h.html" target="_top" xlink:title="Network&#45;Music/tone.h">
<polygon fill="white" stroke="black" points="195.5,-58.5 195.5,-79.5 308.5,-79.5 308.5,-58.5 195.5,-58.5"/>
<text text-anchor="middle" x="252" y="-66.5" font-family="Helvetica,sans-Serif" font-size="10.00">Network&#45;Music/tone.h</text>
</a>
</g>
<!-- Node1&#45;&gt;Node2 -->
<g id="edge2" class="edge"><title>Node1&#45;&gt;Node2</title>
<path fill="none" stroke="midnightblue" d="M341.851,-112.069C320.661,-101.912 293.131,-88.7157 274.158,-79.6212"/>
<polygon fill="midnightblue" stroke="midnightblue" points="340.557,-115.33 351.088,-116.497 343.583,-109.018 340.557,-115.33"/>
</g>
<!-- Node5 -->
<g id="node9" class="node"><title>Node5</title>
<a xlink:href="tonemanager_8cpp.html" target="_top" xlink:title="Network&#45;Music/tonemanager.cpp">
<polygon fill="white" stroke="black" points="311.5,-0.5 311.5,-21.5 472.5,-21.5 472.5,-0.5 311.5,-0.5"/>
<text text-anchor="middle" x="392" y="-8.5" font-family="Helvetica,sans-Serif" font-size="10.00">Network&#45;Music/tonemanager.cpp</text>
</a>
</g>
<!-- Node1&#45;&gt;Node5 -->
<g id="edge12" class="edge"><title>Node1&#45;&gt;Node5</title>
<path fill="none" stroke="midnightblue" d="M376.419,-106.123C380.486,-81.2984 387.115,-40.8235 390.251,-21.6792"/>
<polygon fill="midnightblue" stroke="midnightblue" points="372.916,-105.861 374.753,-116.295 379.824,-106.992 372.916,-105.861"/>
</g>
<!-- Node6 -->
<g id="node11" class="node"><title>Node6</title>
<a xlink:href="generator_8cpp.html" target="_top" xlink:title="Network&#45;Music/generator.cpp">
<polygon fill="white" stroke="black" points="400.5,-58.5 400.5,-79.5 545.5,-79.5 545.5,-58.5 400.5,-58.5"/>
<text text-anchor="middle" x="473" y="-66.5" font-family="Helvetica,sans-Serif" font-size="10.00">Network&#45;Music/generator.cpp</text>
</a>
</g>
<!-- Node1&#45;&gt;Node6 -->
<g id="edge10" class="edge"><title>Node1&#45;&gt;Node6</title>
<path fill="none" stroke="midnightblue" d="M400.412,-111.101C417.714,-101.066 439.585,-88.3808 454.775,-79.5707"/>
<polygon fill="midnightblue" stroke="midnightblue" points="398.236,-108.317 391.342,-116.362 401.748,-114.372 398.236,-108.317"/>
</g>
<!-- Node3 -->
<g id="node5" class="node"><title>Node3</title>
<a xlink:href="audiooutput_8cpp.html" target="_top" xlink:title="Network&#45;Music/audiooutput.cpp">
<polygon fill="white" stroke="black" points="-0.5,-0.5 -0.5,-21.5 154.5,-21.5 154.5,-0.5 -0.5,-0.5"/>
<text text-anchor="middle" x="77" y="-8.5" font-family="Helvetica,sans-Serif" font-size="10.00">Network&#45;Music/audiooutput.cpp</text>
</a>
</g>
<!-- Node2&#45;&gt;Node3 -->
<g id="edge4" class="edge"><title>Node2&#45;&gt;Node3</title>
<path fill="none" stroke="midnightblue" d="M210.6,-55.2787C179.416,-44.9437 137.299,-30.9849 108.751,-21.5231"/>
<polygon fill="midnightblue" stroke="midnightblue" points="209.715,-58.6729 220.309,-58.4966 211.918,-52.0283 209.715,-58.6729"/>
</g>
<!-- Node4 -->
<g id="node7" class="node"><title>Node4</title>
<a xlink:href="tone_8cpp.html" target="_top" xlink:title="Network&#45;Music/tone.cpp">
<polygon fill="white" stroke="black" points="171.5,-0.5 171.5,-21.5 294.5,-21.5 294.5,-0.5 171.5,-0.5"/>
<text text-anchor="middle" x="233" y="-8.5" font-family="Helvetica,sans-Serif" font-size="10.00">Network&#45;Music/tone.cpp</text>
</a>
</g>
<!-- Node2&#45;&gt;Node4 -->
<g id="edge6" class="edge"><title>Node2&#45;&gt;Node4</title>
<path fill="none" stroke="midnightblue" d="M245.377,-48.7838C242.375,-39.617 238.948,-29.1572 236.463,-21.5707"/>
<polygon fill="midnightblue" stroke="midnightblue" points="242.076,-49.9484 248.515,-58.3619 248.728,-47.7692 242.076,-49.9484"/>
</g>
<!-- Node2&#45;&gt;Node5 -->
<g id="edge8" class="edge"><title>Node2&#45;&gt;Node5</title>
<path fill="none" stroke="midnightblue" d="M286.722,-54.6153C311.406,-44.3889 344.015,-30.8796 366.363,-21.6212"/>
<polygon fill="midnightblue" stroke="midnightblue" points="285.252,-51.4357 277.353,-58.4966 287.931,-57.9027 285.252,-51.4357"/>
</g>
</g>
</svg>
