<?xml version="1.0" encoding="UTF-8" standalone="no"?>
<!DOCTYPE svg PUBLIC "-//W3C//DTD SVG 1.1//EN"
 "http://www.w3.org/Graphics/SVG/1.1/DTD/svg11.dtd">
<!-- Generated by graphviz version 2.26.3 (20100126.1600)
 -->
<!-- Title: Network&#45;Music/generator.cpp Pages: 1 -->
<svg width="374pt" height="146pt"
 viewBox="0.00 0.00 374.00 146.00" xmlns="http://www.w3.org/2000/svg" xmlns:xlink="http://www.w3.org/1999/xlink">
<g id="graph1" class="graph" transform="scale(1 1) rotate(0) translate(4 142)">
<title>Network&#45;Music/generator.cpp</title>
<polygon fill="white" stroke="white" points="-4,5 -4,-142 371,-142 371,5 -4,5"/>
<!-- Node1 -->
<g id="node1" class="node"><title>Node1</title>
<polygon fill="#bfbfbf" stroke="black" points="157.5,-116.5 157.5,-137.5 302.5,-137.5 302.5,-116.5 157.5,-116.5"/>
<text text-anchor="middle" x="230" y="-124.5" font-family="Helvetica,sans-Serif" font-size="10.00">Network&#45;Music/generator.cpp</text>
</g>
<!-- Node2 -->
<g id="node3" class="node"><title>Node2</title>
<a xlink:href="generator_8h.html" target="_top" xlink:title="generator.h">
<polygon fill="white" stroke="black" points="85.5,-58.5 85.5,-79.5 150.5,-79.5 150.5,-58.5 85.5,-58.5"/>
<text text-anchor="middle" x="118" y="-66.5" font-family="Helvetica,sans-Serif" font-size="10.00">generator.h</text>
</a>
</g>
<!-- Node1&#45;&gt;Node2 -->
<g id="edge2" class="edge"><title>Node1&#45;&gt;Node2</title>
<path fill="none" stroke="midnightblue" d="M209.718,-116.497C192.382,-107.519 167.21,-94.4835 147.62,-84.3387"/>
<polygon fill="midnightblue" stroke="midnightblue" points="148.999,-81.1118 138.51,-79.6212 145.78,-87.3278 148.999,-81.1118"/>
</g>
<!-- Node6 -->
<g id="node11" class="node"><title>Node6</title>
<polygon fill="white" stroke="#bfbfbf" points="168,-58.5 168,-79.5 220,-79.5 220,-58.5 168,-58.5"/>
<text text-anchor="middle" x="194" y="-66.5" font-family="Helvetica,sans-Serif" font-size="10.00">qmath.h</text>
</g>
<!-- Node1&#45;&gt;Node6 -->
<g id="edge10" class="edge"><title>Node1&#45;&gt;Node6</title>
<path fill="none" stroke="midnightblue" d="M223.397,-116.362C218.525,-108.513 211.762,-97.6159 205.95,-88.2527"/>
<polygon fill="midnightblue" stroke="midnightblue" points="208.809,-86.2213 200.561,-79.5707 202.861,-89.9129 208.809,-86.2213"/>
</g>
<!-- Node7 -->
<g id="node13" class="node"><title>Node7</title>
<polygon fill="white" stroke="#bfbfbf" points="237.5,-58.5 237.5,-79.5 296.5,-79.5 296.5,-58.5 237.5,-58.5"/>
<text text-anchor="middle" x="267" y="-66.5" font-family="Helvetica,sans-Serif" font-size="10.00">qendian.h</text>
</g>
<!-- Node1&#45;&gt;Node7 -->
<g id="edge12" class="edge"><title>Node1&#45;&gt;Node7</title>
<path fill="none" stroke="midnightblue" d="M236.786,-116.362C241.793,-108.513 248.745,-97.6159 254.718,-88.2527"/>
<polygon fill="midnightblue" stroke="midnightblue" points="257.829,-89.8837 260.257,-79.5707 251.928,-86.1189 257.829,-89.8837"/>
</g>
<!-- Node8 -->
<g id="node15" class="node"><title>Node8</title>
<polygon fill="white" stroke="#bfbfbf" points="313.5,-58.5 313.5,-79.5 366.5,-79.5 366.5,-58.5 313.5,-58.5"/>
<text text-anchor="middle" x="340" y="-66.5" font-family="Helvetica,sans-Serif" font-size="10.00">QDebug</text>
</g>
<!-- Node1&#45;&gt;Node8 -->
<g id="edge14" class="edge"><title>Node1&#45;&gt;Node8</title>
<path fill="none" stroke="midnightblue" d="M249.92,-116.497C266.946,-107.519 291.669,-94.4835 310.909,-84.3387"/>
<polygon fill="midnightblue" stroke="midnightblue" points="312.643,-87.3814 319.856,-79.6212 309.378,-81.1894 312.643,-87.3814"/>
</g>
<!-- Node3 -->
<g id="node5" class="node"><title>Node3</title>
<polygon fill="white" stroke="#bfbfbf" points="0,-0.5 0,-21.5 68,-21.5 68,-0.5 0,-0.5"/>
<text text-anchor="middle" x="34" y="-8.5" font-family="Helvetica,sans-Serif" font-size="10.00">QByteArray</text>
</g>
<!-- Node2&#45;&gt;Node3 -->
<g id="edge4" class="edge"><title>Node2&#45;&gt;Node3</title>
<path fill="none" stroke="midnightblue" d="M102.593,-58.3619C90.0418,-49.6955 72.1078,-37.3126 57.7255,-27.3819"/>
<polygon fill="midnightblue" stroke="midnightblue" points="59.5269,-24.3725 49.3092,-21.5707 55.5495,-30.1327 59.5269,-24.3725"/>
</g>
<!-- Node4 -->
<g id="node7" class="node"><title>Node4</title>
<polygon fill="white" stroke="#bfbfbf" points="85.5,-0.5 85.5,-21.5 150.5,-21.5 150.5,-0.5 85.5,-0.5"/>
<text text-anchor="middle" x="118" y="-8.5" font-family="Helvetica,sans-Serif" font-size="10.00">QIODevice</text>
</g>
<!-- Node2&#45;&gt;Node4 -->
<g id="edge6" class="edge"><title>Node2&#45;&gt;Node4</title>
<path fill="none" stroke="midnightblue" d="M118,-58.3619C118,-50.9219 118,-40.7427 118,-31.7276"/>
<polygon fill="midnightblue" stroke="midnightblue" points="121.5,-31.5706 118,-21.5707 114.5,-31.5707 121.5,-31.5706"/>
</g>
<!-- Node5 -->
<g id="node9" class="node"><title>Node5</title>
<polygon fill="white" stroke="#bfbfbf" points="168,-0.5 168,-21.5 248,-21.5 248,-0.5 168,-0.5"/>
<text text-anchor="middle" x="208" y="-8.5" font-family="Helvetica,sans-Serif" font-size="10.00">QAudioFormat</text>
</g>
<!-- Node2&#45;&gt;Node5 -->
<g id="edge8" class="edge"><title>Node2&#45;&gt;Node5</title>
<path fill="none" stroke="midnightblue" d="M134.507,-58.3619C148.082,-49.6138 167.533,-37.0786 183.015,-27.1015"/>
<polygon fill="midnightblue" stroke="midnightblue" points="185.088,-29.9297 191.597,-21.5707 181.296,-24.0457 185.088,-29.9297"/>
</g>
</g>
</svg>
