<?xml version="1.0" encoding="UTF-8" standalone="no"?>
<!DOCTYPE svg PUBLIC "-//W3C//DTD SVG 1.1//EN"
 "http://www.w3.org/Graphics/SVG/1.1/DTD/svg11.dtd">
<!-- Generated by graphviz version 2.26.3 (20100126.1600)
 -->
<!-- Title: Network&#45;Music/generator.h Pages: 1 -->
<svg width="256pt" height="88pt"
 viewBox="0.00 0.00 256.00 88.00" xmlns="http://www.w3.org/2000/svg" xmlns:xlink="http://www.w3.org/1999/xlink">
<g id="graph1" class="graph" transform="scale(1 1) rotate(0) translate(4 84)">
<title>Network&#45;Music/generator.h</title>
<polygon fill="white" stroke="white" points="-4,5 -4,-84 253,-84 253,5 -4,5"/>
<!-- Node1 -->
<g id="node1" class="node"><title>Node1</title>
<polygon fill="#bfbfbf" stroke="black" points="51,-58.5 51,-79.5 185,-79.5 185,-58.5 51,-58.5"/>
<text text-anchor="middle" x="118" y="-66.5" font-family="Helvetica,sans-Serif" font-size="10.00">Network&#45;Music/generator.h</text>
</g>
<!-- Node2 -->
<g id="node3" class="node"><title>Node2</title>
<polygon fill="white" stroke="#bfbfbf" points="0,-0.5 0,-21.5 68,-21.5 68,-0.5 0,-0.5"/>
<text text-anchor="middle" x="34" y="-8.5" font-family="Helvetica,sans-Serif" font-size="10.00">QByteArray</text>
</g>
<!-- Node1&#45;&gt;Node2 -->
<g id="edge2" class="edge"><title>Node1&#45;&gt;Node2</title>
<path fill="none" stroke="midnightblue" d="M102.593,-58.3619C90.0418,-49.6955 72.1078,-37.3126 57.7255,-27.3819"/>
<polygon fill="midnightblue" stroke="midnightblue" points="59.5269,-24.3725 49.3092,-21.5707 55.5495,-30.1327 59.5269,-24.3725"/>
</g>
<!-- Node3 -->
<g id="node5" class="node"><title>Node3</title>
<polygon fill="white" stroke="#bfbfbf" points="85.5,-0.5 85.5,-21.5 150.5,-21.5 150.5,-0.5 85.5,-0.5"/>
<text text-anchor="middle" x="118" y="-8.5" font-family="Helvetica,sans-Serif" font-size="10.00">QIODevice</text>
</g>
<!-- Node1&#45;&gt;Node3 -->
<g id="edge4" class="edge"><title>Node1&#45;&gt;Node3</title>
<path fill="none" stroke="midnightblue" d="M118,-58.3619C118,-50.9219 118,-40.7427 118,-31.7276"/>
<polygon fill="midnightblue" stroke="midnightblue" points="121.5,-31.5706 118,-21.5707 114.5,-31.5707 121.5,-31.5706"/>
</g>
<!-- Node4 -->
<g id="node7" class="node"><title>Node4</title>
<polygon fill="white" stroke="#bfbfbf" points="168,-0.5 168,-21.5 248,-21.5 248,-0.5 168,-0.5"/>
<text text-anchor="middle" x="208" y="-8.5" font-family="Helvetica,sans-Serif" font-size="10.00">QAudioFormat</text>
</g>
<!-- Node1&#45;&gt;Node4 -->
<g id="edge6" class="edge"><title>Node1&#45;&gt;Node4</title>
<path fill="none" stroke="midnightblue" d="M134.507,-58.3619C148.082,-49.6138 167.533,-37.0786 183.015,-27.1015"/>
<polygon fill="midnightblue" stroke="midnightblue" points="185.088,-29.9297 191.597,-21.5707 181.296,-24.0457 185.088,-29.9297"/>
</g>
</g>
</svg>
