<?xml version="1.0" encoding="UTF-8" standalone="no"?>
<!DOCTYPE svg PUBLIC "-//W3C//DTD SVG 1.1//EN"
 "http://www.w3.org/Graphics/SVG/1.1/DTD/svg11.dtd">
<!-- Generated by graphviz version 2.26.3 (20100126.1600)
 -->
<!-- Title: main Pages: 1 -->
<svg width="350pt" height="42pt"
 viewBox="0.00 0.00 350.00 42.00" xmlns="http://www.w3.org/2000/svg" xmlns:xlink="http://www.w3.org/1999/xlink">
<g id="graph1" class="graph" transform="scale(1 1) rotate(0) translate(4 38)">
<title>main</title>
<polygon fill="white" stroke="white" points="-4,5 -4,-38 347,-38 347,5 -4,5"/>
<!-- Node1 -->
<g id="node1" class="node"><title>Node1</title>
<polygon fill="#bfbfbf" stroke="black" points="0,-6.5 0,-27.5 38,-27.5 38,-6.5 0,-6.5"/>
<text text-anchor="middle" x="19" y="-14.5" font-family="Helvetica,sans-Serif" font-size="10.00">main</text>
</g>
<!-- Node2 -->
<g id="node3" class="node"><title>Node2</title>
<a xlink:href="class_audio_test.html#a717dfe69311252d9890838a250946064" target="_top" xlink:title="AudioTest::Setup">
<polygon fill="white" stroke="black" points="74,-6.5 74,-27.5 166,-27.5 166,-6.5 74,-6.5"/>
<text text-anchor="middle" x="120" y="-14.5" font-family="Helvetica,sans-Serif" font-size="10.00">AudioTest::Setup</text>
</a>
</g>
<!-- Node1&#45;&gt;Node2 -->
<g id="edge2" class="edge"><title>Node1&#45;&gt;Node2</title>
<path fill="none" stroke="midnightblue" d="M38.4738,-17C45.804,-17 54.5581,-17 63.5676,-17"/>
<polygon fill="midnightblue" stroke="midnightblue" points="63.786,-20.5001 73.7859,-17 63.7859,-13.5001 63.786,-20.5001"/>
</g>
<!-- Node3 -->
<g id="node5" class="node"><title>Node3</title>
<a xlink:href="class_audio_test.html#a44db884ba0eaf1838099d0aeb29a04d6" target="_top" xlink:title="AudioTest::SIGNAL_BEGIN\l_TONES">
<polygon fill="white" stroke="black" points="202,-0 202,-34 342,-34 342,-0 202,-0"/>
<text text-anchor="start" x="210" y="-21" font-family="Helvetica,sans-Serif" font-size="10.00">AudioTest::SIGNAL_BEGIN</text>
<text text-anchor="middle" x="272" y="-8" font-family="Helvetica,sans-Serif" font-size="10.00">_TONES</text>
</a>
</g>
<!-- Node2&#45;&gt;Node3 -->
<g id="edge4" class="edge"><title>Node2&#45;&gt;Node3</title>
<path fill="none" stroke="midnightblue" d="M166.018,-17C174.119,-17 182.762,-17 191.485,-17"/>
<polygon fill="midnightblue" stroke="midnightblue" points="191.733,-20.5001 201.733,-17 191.733,-13.5001 191.733,-20.5001"/>
</g>
</g>
</svg>
