<?xml version="1.0" encoding="UTF-8" standalone="no"?>
<!DOCTYPE svg PUBLIC "-//W3C//DTD SVG 1.1//EN"
 "http://www.w3.org/Graphics/SVG/1.1/DTD/svg11.dtd">
<!-- Generated by graphviz version 2.26.3 (20100126.1600)
 -->
<!-- Title: Network&#45;Music/mainwindow.cpp Pages: 1 -->
<svg width="166pt" height="146pt"
 viewBox="0.00 0.00 166.00 146.00" xmlns="http://www.w3.org/2000/svg" xmlns:xlink="http://www.w3.org/1999/xlink">
<g id="graph1" class="graph" transform="scale(1 1) rotate(0) translate(4 142)">
<title>Network&#45;Music/mainwindow.cpp</title>
<polygon fill="white" stroke="white" points="-4,5 -4,-142 163,-142 163,5 -4,5"/>
<!-- Node1 -->
<g id="node1" class="node"><title>Node1</title>
<polygon fill="#bfbfbf" stroke="black" points="0,-116.5 0,-137.5 158,-137.5 158,-116.5 0,-116.5"/>
<text text-anchor="middle" x="79" y="-124.5" font-family="Helvetica,sans-Serif" font-size="10.00">Network&#45;Music/mainwindow.cpp</text>
</g>
<!-- Node2 -->
<g id="node3" class="node"><title>Node2</title>
<a xlink:href="mainwindow_8h.html" target="_top" xlink:title="mainwindow.h">
<polygon fill="white" stroke="black" points="39.5,-58.5 39.5,-79.5 118.5,-79.5 118.5,-58.5 39.5,-58.5"/>
<text text-anchor="middle" x="79" y="-66.5" font-family="Helvetica,sans-Serif" font-size="10.00">mainwindow.h</text>
</a>
</g>
<!-- Node1&#45;&gt;Node2 -->
<g id="edge2" class="edge"><title>Node1&#45;&gt;Node2</title>
<path fill="none" stroke="midnightblue" d="M79,-116.362C79,-108.922 79,-98.7427 79,-89.7276"/>
<polygon fill="midnightblue" stroke="midnightblue" points="82.5001,-89.5706 79,-79.5707 75.5001,-89.5707 82.5001,-89.5706"/>
</g>
<!-- Node3 -->
<g id="node5" class="node"><title>Node3</title>
<polygon fill="white" stroke="#bfbfbf" points="39,-0.5 39,-21.5 119,-21.5 119,-0.5 39,-0.5"/>
<text text-anchor="middle" x="79" y="-8.5" font-family="Helvetica,sans-Serif" font-size="10.00">QMainWindow</text>
</g>
<!-- Node2&#45;&gt;Node3 -->
<g id="edge4" class="edge"><title>Node2&#45;&gt;Node3</title>
<path fill="none" stroke="midnightblue" d="M79,-58.3619C79,-50.9219 79,-40.7427 79,-31.7276"/>
<polygon fill="midnightblue" stroke="midnightblue" points="82.5001,-31.5706 79,-21.5707 75.5001,-31.5707 82.5001,-31.5706"/>
</g>
</g>
</svg>
