<?xml version="1.0" encoding="UTF-8" standalone="no"?>
<!DOCTYPE svg PUBLIC "-//W3C//DTD SVG 1.1//EN"
 "http://www.w3.org/Graphics/SVG/1.1/DTD/svg11.dtd">
<!-- Generated by graphviz version 2.26.3 (20100126.1600)
 -->
<!-- Title: Network&#45;Music/main.cpp Pages: 1 -->
<svg width="1664pt" height="146pt"
 viewBox="0.00 0.00 1664.00 146.00" xmlns="http://www.w3.org/2000/svg" xmlns:xlink="http://www.w3.org/1999/xlink">
<g id="graph1" class="graph" transform="scale(1 1) rotate(0) translate(4 142)">
<title>Network&#45;Music/main.cpp</title>
<polygon fill="white" stroke="white" points="-4,5 -4,-142 1661,-142 1661,5 -4,5"/>
<!-- Node1 -->
<g id="node1" class="node"><title>Node1</title>
<polygon fill="#bfbfbf" stroke="black" points="579.5,-116.5 579.5,-137.5 704.5,-137.5 704.5,-116.5 579.5,-116.5"/>
<text text-anchor="middle" x="642" y="-124.5" font-family="Helvetica,sans-Serif" font-size="10.00">Network&#45;Music/main.cpp</text>
</g>
<!-- Node2 -->
<g id="node3" class="node"><title>Node2</title>
<polygon fill="white" stroke="#bfbfbf" points="467,-58.5 467,-79.5 539,-79.5 539,-58.5 467,-58.5"/>
<text text-anchor="middle" x="503" y="-66.5" font-family="Helvetica,sans-Serif" font-size="10.00">QApplication</text>
</g>
<!-- Node1&#45;&gt;Node2 -->
<g id="edge2" class="edge"><title>Node1&#45;&gt;Node2</title>
<path fill="none" stroke="midnightblue" d="M616.828,-116.497C594.727,-107.275 562.361,-93.7695 537.787,-83.5153"/>
<polygon fill="midnightblue" stroke="midnightblue" points="539.031,-80.2421 528.454,-79.6212 536.335,-86.7022 539.031,-80.2421"/>
</g>
<!-- Node3 -->
<g id="node5" class="node"><title>Node3</title>
<polygon fill="white" stroke="#bfbfbf" points="556.5,-58.5 556.5,-79.5 641.5,-79.5 641.5,-58.5 556.5,-58.5"/>
<text text-anchor="middle" x="599" y="-66.5" font-family="Helvetica,sans-Serif" font-size="10.00">QSplashScreen</text>
</g>
<!-- Node1&#45;&gt;Node3 -->
<g id="edge4" class="edge"><title>Node1&#45;&gt;Node3</title>
<path fill="none" stroke="midnightblue" d="M634.113,-116.362C628.173,-108.35 619.878,-97.1605 612.841,-87.6696"/>
<polygon fill="midnightblue" stroke="midnightblue" points="615.604,-85.5193 606.837,-79.5707 609.981,-89.6883 615.604,-85.5193"/>
</g>
<!-- Node4 -->
<g id="node7" class="node"><title>Node4</title>
<polygon fill="white" stroke="#bfbfbf" points="658.5,-58.5 658.5,-79.5 711.5,-79.5 711.5,-58.5 658.5,-58.5"/>
<text text-anchor="middle" x="685" y="-66.5" font-family="Helvetica,sans-Serif" font-size="10.00">QDebug</text>
</g>
<!-- Node1&#45;&gt;Node4 -->
<g id="edge6" class="edge"><title>Node1&#45;&gt;Node4</title>
<path fill="none" stroke="midnightblue" d="M649.887,-116.362C655.827,-108.35 664.122,-97.1605 671.159,-87.6696"/>
<polygon fill="midnightblue" stroke="midnightblue" points="674.019,-89.6883 677.163,-79.5707 668.396,-85.5193 674.019,-89.6883"/>
</g>
<!-- Node5 -->
<g id="node9" class="node"><title>Node5</title>
<a xlink:href="audiooutput_8h.html" target="_top" xlink:title="audiooutput.h">
<polygon fill="white" stroke="black" points="728.5,-58.5 728.5,-79.5 803.5,-79.5 803.5,-58.5 728.5,-58.5"/>
<text text-anchor="middle" x="766" y="-66.5" font-family="Helvetica,sans-Serif" font-size="10.00">audiooutput.h</text>
</a>
</g>
<!-- Node1&#45;&gt;Node5 -->
<g id="edge8" class="edge"><title>Node1&#45;&gt;Node5</title>
<path fill="none" stroke="midnightblue" d="M664.455,-116.497C683.91,-107.397 712.28,-94.1273 734.091,-83.9253"/>
<polygon fill="midnightblue" stroke="midnightblue" points="735.717,-87.0285 743.293,-79.6212 732.752,-80.6878 735.717,-87.0285"/>
</g>
<!-- Node6 -->
<g id="node11" class="node"><title>Node6</title>
<polygon fill="white" stroke="#bfbfbf" points="-0.5,-0.5 -0.5,-21.5 46.5,-21.5 46.5,-0.5 -0.5,-0.5"/>
<text text-anchor="middle" x="23" y="-8.5" font-family="Helvetica,sans-Serif" font-size="10.00">math.h</text>
</g>
<!-- Node5&#45;&gt;Node6 -->
<g id="edge10" class="edge"><title>Node5&#45;&gt;Node6</title>
<path fill="none" stroke="midnightblue" d="M728.452,-59.4369C725.603,-58.8908 722.763,-58.4017 720,-58 430.382,-15.8852 347.375,-77.2452 56.556,-21.8491"/>
<polygon fill="midnightblue" stroke="midnightblue" points="57.0484,-18.3795 46.5656,-19.916 55.7185,-25.252 57.0484,-18.3795"/>
</g>
<!-- Node7 -->
<g id="node13" class="node"><title>Node7</title>
<polygon fill="white" stroke="#bfbfbf" points="64,-0.5 64,-21.5 142,-21.5 142,-0.5 64,-0.5"/>
<text text-anchor="middle" x="103" y="-8.5" font-family="Helvetica,sans-Serif" font-size="10.00">QAudioOutput</text>
</g>
<!-- Node5&#45;&gt;Node7 -->
<g id="edge12" class="edge"><title>Node5&#45;&gt;Node7</title>
<path fill="none" stroke="midnightblue" d="M728.447,-59.4653C725.6,-58.9126 722.761,-58.4143 720,-58 472.715,-20.8911 403.579,-57.4312 152.362,-21.9864"/>
<polygon fill="midnightblue" stroke="midnightblue" points="152.591,-18.4834 142.195,-20.5269 151.596,-25.4124 152.591,-18.4834"/>
</g>
<!-- Node8 -->
<g id="node15" class="node"><title>Node8</title>
<polygon fill="white" stroke="#bfbfbf" points="160,-0.5 160,-21.5 228,-21.5 228,-0.5 160,-0.5"/>
<text text-anchor="middle" x="194" y="-8.5" font-family="Helvetica,sans-Serif" font-size="10.00">QByteArray</text>
</g>
<!-- Node5&#45;&gt;Node8 -->
<g id="edge14" class="edge"><title>Node5&#45;&gt;Node8</title>
<path fill="none" stroke="midnightblue" d="M728.442,-59.5002C725.596,-58.9394 722.759,-58.4298 720,-58 510.523,-25.3631 451.217,-55.8571 238.09,-21.9254"/>
<polygon fill="midnightblue" stroke="midnightblue" points="238.584,-18.4599 228.153,-20.3147 237.464,-25.3697 238.584,-18.4599"/>
</g>
<!-- Node9 -->
<g id="node17" class="node"><title>Node9</title>
<polygon fill="white" stroke="#bfbfbf" points="245.5,-0.5 245.5,-21.5 318.5,-21.5 318.5,-0.5 245.5,-0.5"/>
<text text-anchor="middle" x="282" y="-8.5" font-family="Helvetica,sans-Serif" font-size="10.00">QComboBox</text>
</g>
<!-- Node5&#45;&gt;Node9 -->
<g id="edge16" class="edge"><title>Node5&#45;&gt;Node9</title>
<path fill="none" stroke="midnightblue" d="M728.434,-59.5529C725.589,-58.98 722.755,-58.4532 720,-58 550.139,-30.0587 501.785,-50.1279 328.697,-22.095"/>
<polygon fill="midnightblue" stroke="midnightblue" points="329.181,-18.6276 318.745,-20.4528 328.042,-25.5342 329.181,-18.6276"/>
</g>
<!-- Node10 -->
<g id="node19" class="node"><title>Node10</title>
<polygon fill="white" stroke="#bfbfbf" points="335.5,-0.5 335.5,-21.5 400.5,-21.5 400.5,-0.5 335.5,-0.5"/>
<text text-anchor="middle" x="368" y="-8.5" font-family="Helvetica,sans-Serif" font-size="10.00">QIODevice</text>
</g>
<!-- Node5&#45;&gt;Node10 -->
<g id="edge18" class="edge"><title>Node5&#45;&gt;Node10</title>
<path fill="none" stroke="midnightblue" d="M728.421,-59.6271C725.58,-59.037 722.749,-58.486 720,-58 586.191,-34.3438 547.479,-47.4484 410.601,-22.0951"/>
<polygon fill="midnightblue" stroke="midnightblue" points="411.049,-18.6179 400.574,-20.2021 409.751,-25.4964 411.049,-18.6179"/>
</g>
<!-- Node11 -->
<g id="node21" class="node"><title>Node11</title>
<polygon fill="white" stroke="#bfbfbf" points="417.5,-0.5 417.5,-21.5 464.5,-21.5 464.5,-0.5 417.5,-0.5"/>
<text text-anchor="middle" x="441" y="-8.5" font-family="Helvetica,sans-Serif" font-size="10.00">QLabel</text>
</g>
<!-- Node5&#45;&gt;Node11 -->
<g id="edge20" class="edge"><title>Node5&#45;&gt;Node11</title>
<path fill="none" stroke="midnightblue" d="M728.404,-59.7184C725.567,-59.1072 722.742,-58.5265 720,-58 614.245,-37.6912 582.652,-47.5242 474.615,-22.0715"/>
<polygon fill="midnightblue" stroke="midnightblue" points="475.161,-18.6031 464.62,-19.6687 473.525,-25.4092 475.161,-18.6031"/>
</g>
<!-- Node12 -->
<g id="node23" class="node"><title>Node12</title>
<polygon fill="white" stroke="#bfbfbf" points="482,-0.5 482,-21.5 562,-21.5 562,-0.5 482,-0.5"/>
<text text-anchor="middle" x="522" y="-8.5" font-family="Helvetica,sans-Serif" font-size="10.00">QMainWindow</text>
</g>
<!-- Node5&#45;&gt;Node12 -->
<g id="edge22" class="edge"><title>Node5&#45;&gt;Node12</title>
<path fill="none" stroke="midnightblue" d="M728.346,-59.9903C725.522,-59.3163 722.716,-58.647 720,-58 669.624,-45.9978 612.024,-32.3314 571.987,-22.8414"/>
<polygon fill="midnightblue" stroke="midnightblue" points="572.74,-19.4228 562.202,-20.5222 571.125,-26.2342 572.74,-19.4228"/>
</g>
<!-- Node13 -->
<g id="node25" class="node"><title>Node13</title>
<polygon fill="white" stroke="#bfbfbf" points="579.5,-0.5 579.5,-21.5 632.5,-21.5 632.5,-0.5 579.5,-0.5"/>
<text text-anchor="middle" x="606" y="-8.5" font-family="Helvetica,sans-Serif" font-size="10.00">QObject</text>
</g>
<!-- Node5&#45;&gt;Node13 -->
<g id="edge24" class="edge"><title>Node5&#45;&gt;Node13</title>
<path fill="none" stroke="midnightblue" d="M737.025,-58.4966C710.442,-48.8601 670.957,-34.547 642.285,-24.1532"/>
<polygon fill="midnightblue" stroke="midnightblue" points="643.227,-20.7719 632.633,-20.6543 640.841,-27.3529 643.227,-20.7719"/>
</g>
<!-- Node14 -->
<g id="node27" class="node"><title>Node14</title>
<polygon fill="white" stroke="#bfbfbf" points="649.5,-0.5 649.5,-21.5 724.5,-21.5 724.5,-0.5 649.5,-0.5"/>
<text text-anchor="middle" x="687" y="-8.5" font-family="Helvetica,sans-Serif" font-size="10.00">QPushButton</text>
</g>
<!-- Node5&#45;&gt;Node14 -->
<g id="edge26" class="edge"><title>Node5&#45;&gt;Node14</title>
<path fill="none" stroke="midnightblue" d="M751.51,-58.3619C739.817,-49.7773 723.157,-37.5459 709.697,-27.6636"/>
<polygon fill="midnightblue" stroke="midnightblue" points="711.53,-24.6675 701.398,-21.5707 707.387,-30.31 711.53,-24.6675"/>
</g>
<!-- Node15 -->
<g id="node29" class="node"><title>Node15</title>
<polygon fill="white" stroke="#bfbfbf" points="741.5,-0.5 741.5,-21.5 790.5,-21.5 790.5,-0.5 741.5,-0.5"/>
<text text-anchor="middle" x="766" y="-8.5" font-family="Helvetica,sans-Serif" font-size="10.00">QSlider</text>
</g>
<!-- Node5&#45;&gt;Node15 -->
<g id="edge28" class="edge"><title>Node5&#45;&gt;Node15</title>
<path fill="none" stroke="midnightblue" d="M766,-58.3619C766,-50.9219 766,-40.7427 766,-31.7276"/>
<polygon fill="midnightblue" stroke="midnightblue" points="769.5,-31.5706 766,-21.5707 762.5,-31.5707 769.5,-31.5706"/>
</g>
<!-- Node16 -->
<g id="node31" class="node"><title>Node16</title>
<polygon fill="white" stroke="#bfbfbf" points="807.5,-0.5 807.5,-21.5 856.5,-21.5 856.5,-0.5 807.5,-0.5"/>
<text text-anchor="middle" x="832" y="-8.5" font-family="Helvetica,sans-Serif" font-size="10.00">QTimer</text>
</g>
<!-- Node5&#45;&gt;Node16 -->
<g id="edge30" class="edge"><title>Node5&#45;&gt;Node16</title>
<path fill="none" stroke="midnightblue" d="M778.105,-58.3619C787.688,-49.9408 801.264,-38.0105 812.393,-28.2308"/>
<polygon fill="midnightblue" stroke="midnightblue" points="814.77,-30.8009 819.971,-21.5707 810.149,-25.5427 814.77,-30.8009"/>
</g>
<!-- Node17 -->
<g id="node33" class="node"><title>Node17</title>
<polygon fill="white" stroke="#bfbfbf" points="873.5,-0.5 873.5,-21.5 920.5,-21.5 920.5,-0.5 873.5,-0.5"/>
<text text-anchor="middle" x="897" y="-8.5" font-family="Helvetica,sans-Serif" font-size="10.00">QHash</text>
</g>
<!-- Node5&#45;&gt;Node17 -->
<g id="edge32" class="edge"><title>Node5&#45;&gt;Node17</title>
<path fill="none" stroke="midnightblue" d="M789.723,-58.4966C810.497,-49.299 840.893,-35.8411 864.031,-25.597"/>
<polygon fill="midnightblue" stroke="midnightblue" points="865.726,-28.6741 873.453,-21.4252 862.893,-22.2734 865.726,-28.6741"/>
</g>
<!-- Node18 -->
<g id="node35" class="node"><title>Node18</title>
<polygon fill="white" stroke="#bfbfbf" points="938,-0.5 938,-21.5 1006,-21.5 1006,-0.5 938,-0.5"/>
<text text-anchor="middle" x="972" y="-8.5" font-family="Helvetica,sans-Serif" font-size="10.00">QStatusBar</text>
</g>
<!-- Node5&#45;&gt;Node18 -->
<g id="edge34" class="edge"><title>Node5&#45;&gt;Node18</title>
<path fill="none" stroke="midnightblue" d="M803.305,-58.4966C838.279,-48.6497 890.595,-33.9197 927.681,-23.4781"/>
<polygon fill="midnightblue" stroke="midnightblue" points="929.033,-26.7336 937.71,-20.6543 927.136,-19.9956 929.033,-26.7336"/>
</g>
<!-- Node19 -->
<g id="node37" class="node"><title>Node19</title>
<polygon fill="white" stroke="#bfbfbf" points="1023.5,-0.5 1023.5,-21.5 1084.5,-21.5 1084.5,-0.5 1023.5,-0.5"/>
<text text-anchor="middle" x="1054" y="-8.5" font-family="Helvetica,sans-Serif" font-size="10.00">QSpinBox</text>
</g>
<!-- Node5&#45;&gt;Node19 -->
<g id="edge36" class="edge"><title>Node5&#45;&gt;Node19</title>
<path fill="none" stroke="midnightblue" d="M803.762,-62.941C850.728,-55.1711 933.546,-40.7051 1013.21,-22.2883"/>
<polygon fill="midnightblue" stroke="midnightblue" points="1014.47,-25.5882 1023.41,-19.9038 1012.88,-18.7719 1014.47,-25.5882"/>
</g>
<!-- Node20 -->
<g id="node39" class="node"><title>Node20</title>
<polygon fill="white" stroke="#bfbfbf" points="1101.5,-0.5 1101.5,-21.5 1214.5,-21.5 1214.5,-0.5 1101.5,-0.5"/>
<text text-anchor="middle" x="1158" y="-8.5" font-family="Helvetica,sans-Serif" font-size="10.00">QtCharts/QChartView</text>
</g>
<!-- Node5&#45;&gt;Node20 -->
<g id="edge38" class="edge"><title>Node5&#45;&gt;Node20</title>
<path fill="none" stroke="midnightblue" d="M803.81,-63.8769C862.967,-55.7933 981.259,-39.3567 1091.35,-22.234"/>
<polygon fill="midnightblue" stroke="midnightblue" points="1091.95,-25.6823 1101.29,-20.6819 1090.87,-18.766 1091.95,-25.6823"/>
</g>
<!-- Node21 -->
<g id="node41" class="node"><title>Node21</title>
<polygon fill="white" stroke="#bfbfbf" points="1231.5,-0.5 1231.5,-21.5 1340.5,-21.5 1340.5,-0.5 1231.5,-0.5"/>
<text text-anchor="middle" x="1286" y="-8.5" font-family="Helvetica,sans-Serif" font-size="10.00">QtCharts/QPieSeries</text>
</g>
<!-- Node5&#45;&gt;Node21 -->
<g id="edge40" class="edge"><title>Node5&#45;&gt;Node21</title>
<path fill="none" stroke="midnightblue" d="M803.726,-66.0248C880.45,-59.7791 1060.37,-44.1404 1221.32,-22.164"/>
<polygon fill="midnightblue" stroke="midnightblue" points="1221.97,-25.607 1231.4,-20.7753 1221.02,-18.6725 1221.97,-25.607"/>
</g>
<!-- Node22 -->
<g id="node43" class="node"><title>Node22</title>
<polygon fill="white" stroke="#bfbfbf" points="1357.5,-0.5 1357.5,-21.5 1460.5,-21.5 1460.5,-0.5 1357.5,-0.5"/>
<text text-anchor="middle" x="1409" y="-8.5" font-family="Helvetica,sans-Serif" font-size="10.00">QtCharts/QPieSlice</text>
</g>
<!-- Node5&#45;&gt;Node22 -->
<g id="edge42" class="edge"><title>Node5&#45;&gt;Node22</title>
<path fill="none" stroke="midnightblue" d="M803.652,-67.2833C895.12,-62.8313 1136.43,-49.3972 1347.32,-22.1218"/>
<polygon fill="midnightblue" stroke="midnightblue" points="1347.88,-25.5789 1357.34,-20.8125 1346.97,-18.6379 1347.88,-25.5789"/>
</g>
<!-- Node23 -->
<g id="node45" class="node"><title>Node23</title>
<polygon fill="white" stroke="#bfbfbf" points="1478,-0.5 1478,-21.5 1534,-21.5 1534,-0.5 1478,-0.5"/>
<text text-anchor="middle" x="1506" y="-8.5" font-family="Helvetica,sans-Serif" font-size="10.00">QtCharts</text>
</g>
<!-- Node5&#45;&gt;Node23 -->
<g id="edge44" class="edge"><title>Node5&#45;&gt;Node23</title>
<path fill="none" stroke="midnightblue" d="M803.918,-67.577C927.771,-62.759 1320.43,-46.099 1467.7,-21.8244"/>
<polygon fill="midnightblue" stroke="midnightblue" points="1468.62,-25.2179 1477.87,-20.0635 1467.42,-18.3205 1468.62,-25.2179"/>
</g>
<!-- Node24 -->
<g id="node47" class="node"><title>Node24</title>
<polygon fill="white" stroke="#bfbfbf" points="1552,-0.5 1552,-21.5 1656,-21.5 1656,-0.5 1552,-0.5"/>
<text text-anchor="middle" x="1604" y="-8.5" font-family="Helvetica,sans-Serif" font-size="10.00">QtDataVisualization</text>
</g>
<!-- Node5&#45;&gt;Node24 -->
<g id="edge46" class="edge"><title>Node5&#45;&gt;Node24</title>
<path fill="none" stroke="midnightblue" d="M803.741,-68.294C915.116,-65.8765 1252.19,-56.161 1541.54,-22.0515"/>
<polygon fill="midnightblue" stroke="midnightblue" points="1542.3,-25.4862 1551.82,-20.8278 1541.47,-18.5353 1542.3,-25.4862"/>
</g>
</g>
</svg>
