<?xml version="1.0" encoding="UTF-8" standalone="no"?>
<!DOCTYPE svg PUBLIC "-//W3C//DTD SVG 1.1//EN"
 "http://www.w3.org/Graphics/SVG/1.1/DTD/svg11.dtd">
<!-- Generated by graphviz version 2.26.3 (20100126.1600)
 -->
<!-- Title: packetprocess::Callback_ProcessPacket Pages: 1 -->
<svg width="470pt" height="42pt"
 viewBox="0.00 0.00 470.00 42.00" xmlns="http://www.w3.org/2000/svg" xmlns:xlink="http://www.w3.org/1999/xlink">
<g id="graph1" class="graph" transform="scale(1 1) rotate(0) translate(4 38)">
<title>packetprocess::Callback_ProcessPacket</title>
<polygon fill="white" stroke="white" points="-4,5 -4,-38 467,-38 467,5 -4,5"/>
<!-- Node1 -->
<g id="node1" class="node"><title>Node1</title>
<polygon fill="#bfbfbf" stroke="black" points="0.5,-0 0.5,-34 125.5,-34 125.5,-0 0.5,-0"/>
<text text-anchor="start" x="8.5" y="-21" font-family="Helvetica,sans-Serif" font-size="10.00">packetprocess::Callback</text>
<text text-anchor="middle" x="63" y="-8" font-family="Helvetica,sans-Serif" font-size="10.00">_ProcessPacket</text>
</g>
<!-- Node2 -->
<g id="node3" class="node"><title>Node2</title>
<a xlink:href="class_packet_capturer.html#a4df4e57d6ad6d62bf48f3e7a421a98d0" target="_top" xlink:title="PacketCapturer::ChangeEmitter">
<polygon fill="white" stroke="black" points="162,-6.5 162,-27.5 318,-27.5 318,-6.5 162,-6.5"/>
<text text-anchor="middle" x="240" y="-14.5" font-family="Helvetica,sans-Serif" font-size="10.00">PacketCapturer::ChangeEmitter</text>
</a>
</g>
<!-- Node1&#45;&gt;Node2 -->
<g id="edge2" class="edge"><title>Node1&#45;&gt;Node2</title>
<path fill="none" stroke="midnightblue" d="M125.902,-17C134.258,-17 142.947,-17 151.634,-17"/>
<polygon fill="midnightblue" stroke="midnightblue" points="151.812,-20.5001 161.812,-17 151.812,-13.5001 151.812,-20.5001"/>
</g>
<!-- Node3 -->
<g id="node5" class="node"><title>Node3</title>
<a xlink:href="class_packet_capturer.html#a010699f00f58d9135c95eb358e40889b" target="_top" xlink:title="PacketCapturer::SIG\l_NEW_TONE">
<polygon fill="white" stroke="black" points="354,-0 354,-34 462,-34 462,-0 354,-0"/>
<text text-anchor="start" x="362" y="-21" font-family="Helvetica,sans-Serif" font-size="10.00">PacketCapturer::SIG</text>
<text text-anchor="middle" x="408" y="-8" font-family="Helvetica,sans-Serif" font-size="10.00">_NEW_TONE</text>
</a>
</g>
<!-- Node2&#45;&gt;Node3 -->
<g id="edge4" class="edge"><title>Node2&#45;&gt;Node3</title>
<path fill="none" stroke="midnightblue" d="M318.098,-17C326.627,-17 335.237,-17 343.575,-17"/>
<polygon fill="midnightblue" stroke="midnightblue" points="343.586,-20.5001 353.586,-17 343.586,-13.5001 343.586,-20.5001"/>
</g>
</g>
</svg>
