<?xml version="1.0" encoding="UTF-8" standalone="no"?>
<!DOCTYPE svg PUBLIC "-//W3C//DTD SVG 1.1//EN"
 "http://www.w3.org/Graphics/SVG/1.1/DTD/svg11.dtd">
<!-- Generated by graphviz version 2.26.3 (20100126.1600)
 -->
<!-- Title: packetprocess::Callback_ProcessPacket Pages: 1 -->
<svg width="286pt" height="42pt"
 viewBox="0.00 0.00 286.00 42.00" xmlns="http://www.w3.org/2000/svg" xmlns:xlink="http://www.w3.org/1999/xlink">
<g id="graph1" class="graph" transform="scale(1 1) rotate(0) translate(4 38)">
<title>packetprocess::Callback_ProcessPacket</title>
<polygon fill="white" stroke="white" points="-4,5 -4,-38 283,-38 283,5 -4,5"/>
<!-- Node1 -->
<g id="node1" class="node"><title>Node1</title>
<polygon fill="#bfbfbf" stroke="black" points="0.5,-0 0.5,-34 125.5,-34 125.5,-0 0.5,-0"/>
<text text-anchor="start" x="8.5" y="-21" font-family="Helvetica,sans-Serif" font-size="10.00">packetprocess::Callback</text>
<text text-anchor="middle" x="63" y="-8" font-family="Helvetica,sans-Serif" font-size="10.00">_ProcessPacket</text>
</g>
<!-- Node2 -->
<g id="node3" class="node"><title>Node2</title>
<a xlink:href="class_packet_capturer.html#a3f008c97baedf3417013623b05b0de34" target="_top" xlink:title="PacketCapturer::SLOT\l_CAPTURE">
<polygon fill="white" stroke="black" points="162,-0 162,-34 278,-34 278,-0 162,-0"/>
<text text-anchor="start" x="170" y="-21" font-family="Helvetica,sans-Serif" font-size="10.00">PacketCapturer::SLOT</text>
<text text-anchor="middle" x="220" y="-8" font-family="Helvetica,sans-Serif" font-size="10.00">_CAPTURE</text>
</a>
</g>
<!-- Node1&#45;&gt;Node2 -->
<g id="edge2" class="edge"><title>Node1&#45;&gt;Node2</title>
<path fill="none" stroke="midnightblue" d="M135.7,-17C144.447,-17 153.291,-17 161.793,-17"/>
<polygon fill="midnightblue" stroke="midnightblue" points="135.502,-13.5001 125.502,-17 135.502,-20.5001 135.502,-13.5001"/>
</g>
</g>
</svg>
