<?xml version="1.0" encoding="UTF-8" standalone="no"?>
<!DOCTYPE svg PUBLIC "-//W3C//DTD SVG 1.1//EN"
 "http://www.w3.org/Graphics/SVG/1.1/DTD/svg11.dtd">
<!-- Generated by graphviz version 2.26.3 (20100126.1600)
 -->
<!-- Title: Network&#45;Music/packetcapturer.h Pages: 1 -->
<svg width="648pt" height="88pt"
 viewBox="0.00 0.00 648.00 88.00" xmlns="http://www.w3.org/2000/svg" xmlns:xlink="http://www.w3.org/1999/xlink">
<g id="graph1" class="graph" transform="scale(1 1) rotate(0) translate(4 84)">
<title>Network&#45;Music/packetcapturer.h</title>
<polygon fill="white" stroke="white" points="-4,5 -4,-84 645,-84 645,5 -4,5"/>
<!-- Node1 -->
<g id="node1" class="node"><title>Node1</title>
<polygon fill="#bfbfbf" stroke="black" points="218,-58.5 218,-79.5 376,-79.5 376,-58.5 218,-58.5"/>
<text text-anchor="middle" x="297" y="-66.5" font-family="Helvetica,sans-Serif" font-size="10.00">Network&#45;Music/packetcapturer.h</text>
</g>
<!-- Node2 -->
<g id="node3" class="node"><title>Node2</title>
<polygon fill="white" stroke="#bfbfbf" points="-0.5,-0.5 -0.5,-21.5 52.5,-21.5 52.5,-0.5 -0.5,-0.5"/>
<text text-anchor="middle" x="26" y="-8.5" font-family="Helvetica,sans-Serif" font-size="10.00">QObject</text>
</g>
<!-- Node1&#45;&gt;Node2 -->
<g id="edge2" class="edge"><title>Node1&#45;&gt;Node2</title>
<path fill="none" stroke="midnightblue" d="M234.475,-58.4479C189.002,-50.3383 125.814,-38.1748 62.4286,-22.1979"/>
<polygon fill="midnightblue" stroke="midnightblue" points="63.2227,-18.7885 52.6678,-19.7073 61.4919,-25.5711 63.2227,-18.7885"/>
</g>
<!-- Node3 -->
<g id="node5" class="node"><title>Node3</title>
<polygon fill="white" stroke="#bfbfbf" points="70,-0.5 70,-21.5 116,-21.5 116,-0.5 70,-0.5"/>
<text text-anchor="middle" x="93" y="-8.5" font-family="Helvetica,sans-Serif" font-size="10.00">pcap.h</text>
</g>
<!-- Node1&#45;&gt;Node3 -->
<g id="edge4" class="edge"><title>Node1&#45;&gt;Node3</title>
<path fill="none" stroke="midnightblue" d="M255.427,-58.4413C222.574,-49.9176 175.371,-37.2753 125.655,-22.0787"/>
<polygon fill="midnightblue" stroke="midnightblue" points="126.601,-18.708 116.014,-19.109 124.541,-25.3979 126.601,-18.708"/>
</g>
<!-- Node4 -->
<g id="node7" class="node"><title>Node4</title>
<polygon fill="white" stroke="#bfbfbf" points="133.5,-0.5 133.5,-21.5 206.5,-21.5 206.5,-0.5 133.5,-0.5"/>
<text text-anchor="middle" x="170" y="-8.5" font-family="Helvetica,sans-Serif" font-size="10.00">sys/socket.h</text>
</g>
<!-- Node1&#45;&gt;Node4 -->
<g id="edge6" class="edge"><title>Node1&#45;&gt;Node4</title>
<path fill="none" stroke="midnightblue" d="M274.001,-58.4966C253.987,-49.3562 224.759,-36.0082 202.381,-25.7883"/>
<polygon fill="midnightblue" stroke="midnightblue" points="203.807,-22.5918 193.257,-21.6212 200.899,-28.9592 203.807,-22.5918"/>
</g>
<!-- Node5 -->
<g id="node9" class="node"><title>Node5</title>
<polygon fill="white" stroke="#bfbfbf" points="223.5,-0.5 223.5,-21.5 288.5,-21.5 288.5,-0.5 223.5,-0.5"/>
<text text-anchor="middle" x="256" y="-8.5" font-family="Helvetica,sans-Serif" font-size="10.00">netinet/in.h</text>
</g>
<!-- Node1&#45;&gt;Node5 -->
<g id="edge8" class="edge"><title>Node1&#45;&gt;Node5</title>
<path fill="none" stroke="midnightblue" d="M289.48,-58.3619C283.874,-50.4313 276.068,-39.3885 269.403,-29.9606"/>
<polygon fill="midnightblue" stroke="midnightblue" points="272.103,-27.7161 263.472,-21.5707 266.387,-31.7568 272.103,-27.7161"/>
</g>
<!-- Node6 -->
<g id="node11" class="node"><title>Node6</title>
<polygon fill="white" stroke="#bfbfbf" points="305.5,-0.5 305.5,-21.5 370.5,-21.5 370.5,-0.5 305.5,-0.5"/>
<text text-anchor="middle" x="338" y="-8.5" font-family="Helvetica,sans-Serif" font-size="10.00">netinet/ip.h</text>
</g>
<!-- Node1&#45;&gt;Node6 -->
<g id="edge10" class="edge"><title>Node1&#45;&gt;Node6</title>
<path fill="none" stroke="midnightblue" d="M304.52,-58.3619C310.126,-50.4313 317.932,-39.3885 324.597,-29.9606"/>
<polygon fill="midnightblue" stroke="midnightblue" points="327.613,-31.7568 330.528,-21.5707 321.897,-27.7161 327.613,-31.7568"/>
</g>
<!-- Node7 -->
<g id="node13" class="node"><title>Node7</title>
<polygon fill="white" stroke="#bfbfbf" points="387.5,-0.5 387.5,-21.5 466.5,-21.5 466.5,-0.5 387.5,-0.5"/>
<text text-anchor="middle" x="427" y="-8.5" font-family="Helvetica,sans-Serif" font-size="10.00">netinet/ether.h</text>
</g>
<!-- Node1&#45;&gt;Node7 -->
<g id="edge12" class="edge"><title>Node1&#45;&gt;Node7</title>
<path fill="none" stroke="midnightblue" d="M320.542,-58.4966C341.029,-49.3562 370.947,-36.0082 393.854,-25.7883"/>
<polygon fill="midnightblue" stroke="midnightblue" points="395.488,-28.892 403.194,-21.6212 392.635,-22.4994 395.488,-28.892"/>
</g>
<!-- Node8 -->
<g id="node15" class="node"><title>Node8</title>
<polygon fill="white" stroke="#bfbfbf" points="483.5,-0.5 483.5,-21.5 560.5,-21.5 560.5,-0.5 483.5,-0.5"/>
<text text-anchor="middle" x="522" y="-8.5" font-family="Helvetica,sans-Serif" font-size="10.00">net/ethernet.h</text>
</g>
<!-- Node1&#45;&gt;Node8 -->
<g id="edge14" class="edge"><title>Node1&#45;&gt;Node8</title>
<path fill="none" stroke="midnightblue" d="M337.746,-58.4966C375.921,-48.6558 433.016,-33.9381 473.518,-23.4976"/>
<polygon fill="midnightblue" stroke="midnightblue" points="474.626,-26.8264 483.436,-20.9409 472.879,-20.048 474.626,-26.8264"/>
</g>
<!-- Node9 -->
<g id="node17" class="node"><title>Node9</title>
<polygon fill="white" stroke="#bfbfbf" points="578,-0.5 578,-21.5 640,-21.5 640,-0.5 578,-0.5"/>
<text text-anchor="middle" x="609" y="-8.5" font-family="Helvetica,sans-Serif" font-size="10.00">arpa/inet.h</text>
</g>
<!-- Node1&#45;&gt;Node9 -->
<g id="edge16" class="edge"><title>Node1&#45;&gt;Node9</title>
<path fill="none" stroke="midnightblue" d="M369.247,-58.4763C421.913,-50.3522 495.151,-38.1221 567.843,-22.1159"/>
<polygon fill="midnightblue" stroke="midnightblue" points="568.629,-25.5267 577.629,-19.9371 567.108,-18.694 568.629,-25.5267"/>
</g>
</g>
</svg>
