<?xml version="1.0" encoding="UTF-8" standalone="no"?>
<!DOCTYPE svg PUBLIC "-//W3C//DTD SVG 1.1//EN"
 "http://www.w3.org/Graphics/SVG/1.1/DTD/svg11.dtd">
<!-- Generated by graphviz version 2.26.3 (20100126.1600)
 -->
<!-- Title: Network&#45;Music/packetcapturer.h Pages: 1 -->
<svg width="348pt" height="88pt"
 viewBox="0.00 0.00 348.00 88.00" xmlns="http://www.w3.org/2000/svg" xmlns:xlink="http://www.w3.org/1999/xlink">
<g id="graph1" class="graph" transform="scale(1 1) rotate(0) translate(4 84)">
<title>Network&#45;Music/packetcapturer.h</title>
<polygon fill="white" stroke="white" points="-4,5 -4,-84 345,-84 345,5 -4,5"/>
<!-- Node1 -->
<g id="node1" class="node"><title>Node1</title>
<polygon fill="#bfbfbf" stroke="black" points="87,-58.5 87,-79.5 245,-79.5 245,-58.5 87,-58.5"/>
<text text-anchor="middle" x="166" y="-66.5" font-family="Helvetica,sans-Serif" font-size="10.00">Network&#45;Music/packetcapturer.h</text>
</g>
<!-- Node2 -->
<g id="node3" class="node"><title>Node2</title>
<a xlink:href="audiooutput_8cpp.html" target="_top" xlink:title="Network&#45;Music/audiooutput.cpp">
<polygon fill="white" stroke="black" points="-0.5,-0.5 -0.5,-21.5 154.5,-21.5 154.5,-0.5 -0.5,-0.5"/>
<text text-anchor="middle" x="77" y="-8.5" font-family="Helvetica,sans-Serif" font-size="10.00">Network&#45;Music/audiooutput.cpp</text>
</a>
</g>
<!-- Node1&#45;&gt;Node2 -->
<g id="edge2" class="edge"><title>Node1&#45;&gt;Node2</title>
<path fill="none" stroke="midnightblue" d="M141.174,-52.8215C125.844,-42.8312 106.614,-30.2993 93.2205,-21.5707"/>
<polygon fill="midnightblue" stroke="midnightblue" points="139.387,-55.8344 149.676,-58.3619 143.209,-49.9698 139.387,-55.8344"/>
</g>
<!-- Node3 -->
<g id="node5" class="node"><title>Node3</title>
<a xlink:href="packetcapturer_8cpp.html" target="_top" xlink:title="Network&#45;Music/packetcapturer.cpp">
<polygon fill="white" stroke="black" points="171.5,-0.5 171.5,-21.5 340.5,-21.5 340.5,-0.5 171.5,-0.5"/>
<text text-anchor="middle" x="256" y="-8.5" font-family="Helvetica,sans-Serif" font-size="10.00">Network&#45;Music/packetcapturer.cpp</text>
</a>
</g>
<!-- Node1&#45;&gt;Node3 -->
<g id="edge4" class="edge"><title>Node1&#45;&gt;Node3</title>
<path fill="none" stroke="midnightblue" d="M191.105,-52.8215C206.607,-42.8312 226.053,-30.2993 239.597,-21.5707"/>
<polygon fill="midnightblue" stroke="midnightblue" points="189.017,-50.0028 182.507,-58.3619 192.809,-55.8869 189.017,-50.0028"/>
</g>
</g>
</svg>
