<?xml version="1.0" encoding="UTF-8" standalone="no"?>
<!DOCTYPE svg PUBLIC "-//W3C//DTD SVG 1.1//EN"
 "http://www.w3.org/Graphics/SVG/1.1/DTD/svg11.dtd">
<!-- Generated by graphviz version 2.26.3 (20100126.1600)
 -->
<!-- Title: Network&#45;Music/packetcapturer.cpp Pages: 1 -->
<svg width="648pt" height="146pt"
 viewBox="0.00 0.00 648.00 146.00" xmlns="http://www.w3.org/2000/svg" xmlns:xlink="http://www.w3.org/1999/xlink">
<g id="graph1" class="graph" transform="scale(1 1) rotate(0) translate(4 142)">
<title>Network&#45;Music/packetcapturer.cpp</title>
<polygon fill="white" stroke="white" points="-4,5 -4,-142 645,-142 645,5 -4,5"/>
<!-- Node1 -->
<g id="node1" class="node"><title>Node1</title>
<polygon fill="#bfbfbf" stroke="black" points="216.5,-116.5 216.5,-137.5 385.5,-137.5 385.5,-116.5 216.5,-116.5"/>
<text text-anchor="middle" x="301" y="-124.5" font-family="Helvetica,sans-Serif" font-size="10.00">Network&#45;Music/packetcapturer.cpp</text>
</g>
<!-- Node2 -->
<g id="node3" class="node"><title>Node2</title>
<a xlink:href="packetcapturer_8h.html" target="_top" xlink:title="packetcapturer.h">
<polygon fill="white" stroke="black" points="211.5,-58.5 211.5,-79.5 300.5,-79.5 300.5,-58.5 211.5,-58.5"/>
<text text-anchor="middle" x="256" y="-66.5" font-family="Helvetica,sans-Serif" font-size="10.00">packetcapturer.h</text>
</a>
</g>
<!-- Node1&#45;&gt;Node2 -->
<g id="edge2" class="edge"><title>Node1&#45;&gt;Node2</title>
<path fill="none" stroke="midnightblue" d="M292.746,-116.362C286.53,-108.35 277.849,-97.1605 270.485,-87.6696"/>
<polygon fill="midnightblue" stroke="midnightblue" points="273.097,-85.326 264.201,-79.5707 267.566,-89.617 273.097,-85.326"/>
</g>
<!-- Node4 -->
<g id="node7" class="node"><title>Node4</title>
<polygon fill="white" stroke="#bfbfbf" points="0,-0.5 0,-21.5 46,-21.5 46,-0.5 0,-0.5"/>
<text text-anchor="middle" x="23" y="-8.5" font-family="Helvetica,sans-Serif" font-size="10.00">pcap.h</text>
</g>
<!-- Node1&#45;&gt;Node4 -->
<g id="edge20" class="edge"><title>Node1&#45;&gt;Node4</title>
<path fill="none" stroke="midnightblue" d="M275.345,-116.295C224.623,-95.1307 111.6,-47.9696 55.6574,-24.6268"/>
<polygon fill="midnightblue" stroke="midnightblue" points="56.8006,-21.3114 46.224,-20.6906 54.105,-27.7716 56.8006,-21.3114"/>
</g>
<!-- Node11 -->
<g id="node22" class="node"><title>Node11</title>
<polygon fill="white" stroke="#bfbfbf" points="318,-58.5 318,-79.5 374,-79.5 374,-58.5 318,-58.5"/>
<text text-anchor="middle" x="346" y="-66.5" font-family="Helvetica,sans-Serif" font-size="10.00">qdebug.h</text>
</g>
<!-- Node1&#45;&gt;Node11 -->
<g id="edge22" class="edge"><title>Node1&#45;&gt;Node11</title>
<path fill="none" stroke="midnightblue" d="M309.254,-116.362C315.47,-108.35 324.151,-97.1605 331.515,-87.6696"/>
<polygon fill="midnightblue" stroke="midnightblue" points="334.434,-89.617 337.799,-79.5707 328.903,-85.326 334.434,-89.617"/>
</g>
<!-- Node12 -->
<g id="node24" class="node"><title>Node12</title>
<polygon fill="white" stroke="#bfbfbf" points="392,-58.5 392,-79.5 464,-79.5 464,-58.5 392,-58.5"/>
<text text-anchor="middle" x="428" y="-66.5" font-family="Helvetica,sans-Serif" font-size="10.00">QApplication</text>
</g>
<!-- Node1&#45;&gt;Node12 -->
<g id="edge24" class="edge"><title>Node1&#45;&gt;Node12</title>
<path fill="none" stroke="midnightblue" d="M323.999,-116.497C344.013,-107.356 373.241,-94.0082 395.619,-83.7883"/>
<polygon fill="midnightblue" stroke="midnightblue" points="397.101,-86.9592 404.743,-79.6212 394.193,-80.5918 397.101,-86.9592"/>
</g>
<!-- Node3 -->
<g id="node5" class="node"><title>Node3</title>
<polygon fill="white" stroke="#bfbfbf" points="63.5,-0.5 63.5,-21.5 116.5,-21.5 116.5,-0.5 63.5,-0.5"/>
<text text-anchor="middle" x="90" y="-8.5" font-family="Helvetica,sans-Serif" font-size="10.00">QObject</text>
</g>
<!-- Node2&#45;&gt;Node3 -->
<g id="edge4" class="edge"><title>Node2&#45;&gt;Node3</title>
<path fill="none" stroke="midnightblue" d="M225.939,-58.4966C197.902,-48.7007 156.034,-34.0722 126.179,-23.6407"/>
<polygon fill="midnightblue" stroke="midnightblue" points="127.146,-20.2714 116.551,-20.277 124.837,-26.8796 127.146,-20.2714"/>
</g>
<!-- Node2&#45;&gt;Node4 -->
<g id="edge6" class="edge"><title>Node2&#45;&gt;Node4</title>
<path fill="none" stroke="midnightblue" d="M211.356,-59.9197C172.561,-51.7254 114.707,-38.7788 56.1199,-22.1392"/>
<polygon fill="midnightblue" stroke="midnightblue" points="56.9094,-18.7244 46.3316,-19.326 54.9758,-25.4521 56.9094,-18.7244"/>
</g>
<!-- Node5 -->
<g id="node9" class="node"><title>Node5</title>
<polygon fill="white" stroke="#bfbfbf" points="133.5,-0.5 133.5,-21.5 206.5,-21.5 206.5,-0.5 133.5,-0.5"/>
<text text-anchor="middle" x="170" y="-8.5" font-family="Helvetica,sans-Serif" font-size="10.00">sys/socket.h</text>
</g>
<!-- Node2&#45;&gt;Node5 -->
<g id="edge8" class="edge"><title>Node2&#45;&gt;Node5</title>
<path fill="none" stroke="midnightblue" d="M240.226,-58.3619C227.376,-49.6955 209.015,-37.3126 194.29,-27.3819"/>
<polygon fill="midnightblue" stroke="midnightblue" points="195.921,-24.2604 185.674,-21.5707 192.007,-30.0639 195.921,-24.2604"/>
</g>
<!-- Node6 -->
<g id="node11" class="node"><title>Node6</title>
<polygon fill="white" stroke="#bfbfbf" points="223.5,-0.5 223.5,-21.5 288.5,-21.5 288.5,-0.5 223.5,-0.5"/>
<text text-anchor="middle" x="256" y="-8.5" font-family="Helvetica,sans-Serif" font-size="10.00">netinet/in.h</text>
</g>
<!-- Node2&#45;&gt;Node6 -->
<g id="edge10" class="edge"><title>Node2&#45;&gt;Node6</title>
<path fill="none" stroke="midnightblue" d="M256,-58.3619C256,-50.9219 256,-40.7427 256,-31.7276"/>
<polygon fill="midnightblue" stroke="midnightblue" points="259.5,-31.5706 256,-21.5707 252.5,-31.5707 259.5,-31.5706"/>
</g>
<!-- Node7 -->
<g id="node13" class="node"><title>Node7</title>
<polygon fill="white" stroke="#bfbfbf" points="305.5,-0.5 305.5,-21.5 370.5,-21.5 370.5,-0.5 305.5,-0.5"/>
<text text-anchor="middle" x="338" y="-8.5" font-family="Helvetica,sans-Serif" font-size="10.00">netinet/ip.h</text>
</g>
<!-- Node2&#45;&gt;Node7 -->
<g id="edge12" class="edge"><title>Node2&#45;&gt;Node7</title>
<path fill="none" stroke="midnightblue" d="M271.04,-58.3619C283.293,-49.6955 300.799,-37.3126 314.839,-27.3819"/>
<polygon fill="midnightblue" stroke="midnightblue" points="316.912,-30.2028 323.055,-21.5707 312.87,-24.4879 316.912,-30.2028"/>
</g>
<!-- Node8 -->
<g id="node15" class="node"><title>Node8</title>
<polygon fill="white" stroke="#bfbfbf" points="387.5,-0.5 387.5,-21.5 466.5,-21.5 466.5,-0.5 387.5,-0.5"/>
<text text-anchor="middle" x="427" y="-8.5" font-family="Helvetica,sans-Serif" font-size="10.00">netinet/ether.h</text>
</g>
<!-- Node2&#45;&gt;Node8 -->
<g id="edge14" class="edge"><title>Node2&#45;&gt;Node8</title>
<path fill="none" stroke="midnightblue" d="M286.967,-58.4966C314.844,-49.0411 355.997,-35.0829 386.482,-24.7428"/>
<polygon fill="midnightblue" stroke="midnightblue" points="387.629,-28.0497 395.975,-21.5231 385.381,-21.4207 387.629,-28.0497"/>
</g>
<!-- Node9 -->
<g id="node17" class="node"><title>Node9</title>
<polygon fill="white" stroke="#bfbfbf" points="483.5,-0.5 483.5,-21.5 560.5,-21.5 560.5,-0.5 483.5,-0.5"/>
<text text-anchor="middle" x="522" y="-8.5" font-family="Helvetica,sans-Serif" font-size="10.00">net/ethernet.h</text>
</g>
<!-- Node2&#45;&gt;Node9 -->
<g id="edge16" class="edge"><title>Node2&#45;&gt;Node9</title>
<path fill="none" stroke="midnightblue" d="M300.513,-59.6988C342.637,-50.8405 407.907,-36.9699 473.227,-22.3739"/>
<polygon fill="midnightblue" stroke="midnightblue" points="474.291,-25.7224 483.284,-20.1209 472.761,-18.8917 474.291,-25.7224"/>
</g>
<!-- Node10 -->
<g id="node19" class="node"><title>Node10</title>
<polygon fill="white" stroke="#bfbfbf" points="578,-0.5 578,-21.5 640,-21.5 640,-0.5 578,-0.5"/>
<text text-anchor="middle" x="609" y="-8.5" font-family="Helvetica,sans-Serif" font-size="10.00">arpa/inet.h</text>
</g>
<!-- Node2&#45;&gt;Node10 -->
<g id="edge18" class="edge"><title>Node2&#45;&gt;Node10</title>
<path fill="none" stroke="midnightblue" d="M300.779,-59.4861C303.557,-58.9641 306.315,-58.4641 309,-58 420.811,-38.6786 452.991,-45.1333 567.771,-22.0555"/>
<polygon fill="midnightblue" stroke="midnightblue" points="568.554,-25.4681 577.651,-20.0379 567.153,-18.6096 568.554,-25.4681"/>
</g>
</g>
</svg>
