<?xml version="1.0" encoding="UTF-8" standalone="no"?>
<!DOCTYPE svg PUBLIC "-//W3C//DTD SVG 1.1//EN"
 "http://www.w3.org/Graphics/SVG/1.1/DTD/svg11.dtd">
<!-- Generated by graphviz version 2.26.3 (20100126.1600)
 -->
<!-- Title: ToneObject Pages: 1 -->
<svg width="99pt" height="174pt"
 viewBox="0.00 0.00 99.00 174.00" xmlns="http://www.w3.org/2000/svg" xmlns:xlink="http://www.w3.org/1999/xlink">
<g id="graph1" class="graph" transform="scale(1 1) rotate(0) translate(4 170)">
<title>ToneObject</title>
<polygon fill="white" stroke="white" points="-4,5 -4,-170 96,-170 96,5 -4,5"/>
<!-- Node1 -->
<g id="node1" class="node"><title>Node1</title>
<polygon fill="#bfbfbf" stroke="black" points="-0.5,-0.5 -0.5,-21.5 66.5,-21.5 66.5,-0.5 -0.5,-0.5"/>
<text text-anchor="middle" x="33" y="-8.5" font-family="Helvetica,sans-Serif" font-size="10.00">ToneObject</text>
</g>
<!-- Node2 -->
<g id="node2" class="node"><title>Node2</title>
<a xlink:href="classtone.html" target="_top" xlink:title="tone">
<polygon fill="white" stroke="black" points="15.5,-72.5 15.5,-93.5 50.5,-93.5 50.5,-72.5 15.5,-72.5"/>
<text text-anchor="middle" x="33" y="-80.5" font-family="Helvetica,sans-Serif" font-size="10.00">tone</text>
</a>
</g>
<!-- Node2&#45;&gt;Node1 -->
<g id="edge2" class="edge"><title>Node2&#45;&gt;Node1</title>
<path fill="none" stroke="#9a32cd" stroke-dasharray="5,2" d="M33,-62.2348C33,-48.969 33,-32.3188 33,-21.6674"/>
<polygon fill="#9a32cd" stroke="#9a32cd" points="29.5001,-62.3761 33,-72.3762 36.5001,-62.3762 29.5001,-62.3761"/>
<text text-anchor="middle" x="52.5" y="-44.5" font-family="Helvetica,sans-Serif" font-size="10.00"> theTone</text>
</g>
<!-- Node3 -->
<g id="node4" class="node"><title>Node3</title>
<a xlink:href="class_generator.html" target="_top" xlink:title="Generator">
<polygon fill="white" stroke="black" points="3.5,-144.5 3.5,-165.5 62.5,-165.5 62.5,-144.5 3.5,-144.5"/>
<text text-anchor="middle" x="33" y="-152.5" font-family="Helvetica,sans-Serif" font-size="10.00">Generator</text>
</a>
</g>
<!-- Node3&#45;&gt;Node2 -->
<g id="edge4" class="edge"><title>Node3&#45;&gt;Node2</title>
<path fill="none" stroke="#9a32cd" stroke-dasharray="5,2" d="M33,-134.235C33,-120.969 33,-104.319 33,-93.6674"/>
<polygon fill="#9a32cd" stroke="#9a32cd" points="29.5001,-134.376 33,-144.376 36.5001,-134.376 29.5001,-134.376"/>
<text text-anchor="middle" x="62" y="-116.5" font-family="Helvetica,sans-Serif" font-size="10.00"> m_generator</text>
</g>
</g>
</svg>
