<?xml version="1.0" encoding="UTF-8" standalone="no"?>
<!DOCTYPE svg PUBLIC "-//W3C//DTD SVG 1.1//EN"
 "http://www.w3.org/Graphics/SVG/1.1/DTD/svg11.dtd">
<!-- Generated by graphviz version 2.26.3 (20100126.1600)
 -->
<!-- Title: Network&#45;Music/tonemanager.h Pages: 1 -->
<svg width="340pt" height="88pt"
 viewBox="0.00 0.00 340.00 88.00" xmlns="http://www.w3.org/2000/svg" xmlns:xlink="http://www.w3.org/1999/xlink">
<g id="graph1" class="graph" transform="scale(1 1) rotate(0) translate(4 84)">
<title>Network&#45;Music/tonemanager.h</title>
<polygon fill="white" stroke="white" points="-4,5 -4,-84 337,-84 337,5 -4,5"/>
<!-- Node1 -->
<g id="node1" class="node"><title>Node1</title>
<polygon fill="#bfbfbf" stroke="black" points="89,-58.5 89,-79.5 239,-79.5 239,-58.5 89,-58.5"/>
<text text-anchor="middle" x="164" y="-66.5" font-family="Helvetica,sans-Serif" font-size="10.00">Network&#45;Music/tonemanager.h</text>
</g>
<!-- Node2 -->
<g id="node3" class="node"><title>Node2</title>
<a xlink:href="audiooutput_8cpp.html" target="_top" xlink:title="Network&#45;Music/audiooutput.cpp">
<polygon fill="white" stroke="black" points="-0.5,-0.5 -0.5,-21.5 154.5,-21.5 154.5,-0.5 -0.5,-0.5"/>
<text text-anchor="middle" x="77" y="-8.5" font-family="Helvetica,sans-Serif" font-size="10.00">Network&#45;Music/audiooutput.cpp</text>
</a>
</g>
<!-- Node1&#45;&gt;Node2 -->
<g id="edge2" class="edge"><title>Node1&#45;&gt;Node2</title>
<path fill="none" stroke="midnightblue" d="M139.311,-52.5407C124.396,-42.5973 105.827,-30.2177 92.856,-21.5707"/>
<polygon fill="midnightblue" stroke="midnightblue" points="137.781,-55.727 148.043,-58.3619 141.664,-49.9027 137.781,-55.727"/>
</g>
<!-- Node3 -->
<g id="node5" class="node"><title>Node3</title>
<a xlink:href="tonemanager_8cpp.html" target="_top" xlink:title="Network&#45;Music/tonemanager.cpp">
<polygon fill="white" stroke="black" points="171.5,-0.5 171.5,-21.5 332.5,-21.5 332.5,-0.5 171.5,-0.5"/>
<text text-anchor="middle" x="252" y="-8.5" font-family="Helvetica,sans-Serif" font-size="10.00">Network&#45;Music/tonemanager.cpp</text>
</a>
</g>
<!-- Node1&#45;&gt;Node3 -->
<g id="edge4" class="edge"><title>Node1&#45;&gt;Node3</title>
<path fill="none" stroke="midnightblue" d="M188.547,-52.8215C203.704,-42.8312 222.718,-30.2993 235.962,-21.5707"/>
<polygon fill="midnightblue" stroke="midnightblue" points="186.564,-49.9364 180.141,-58.3619 190.416,-55.7811 186.564,-49.9364"/>
</g>
</g>
</svg>
