<?xml version="1.0" encoding="UTF-8" standalone="no"?>
<!DOCTYPE svg PUBLIC "-//W3C//DTD SVG 1.1//EN"
 "http://www.w3.org/Graphics/SVG/1.1/DTD/svg11.dtd">
<!-- Generated by graphviz version 2.26.3 (20100126.1600)
 -->
<!-- Title: Network&#45;Music/tone.h Pages: 1 -->
<svg width="480pt" height="88pt"
 viewBox="0.00 0.00 480.00 88.00" xmlns="http://www.w3.org/2000/svg" xmlns:xlink="http://www.w3.org/1999/xlink">
<g id="graph1" class="graph" transform="scale(1 1) rotate(0) translate(4 84)">
<title>Network&#45;Music/tone.h</title>
<polygon fill="white" stroke="white" points="-4,5 -4,-84 477,-84 477,5 -4,5"/>
<!-- Node1 -->
<g id="node1" class="node"><title>Node1</title>
<polygon fill="#bfbfbf" stroke="black" points="176.5,-58.5 176.5,-79.5 289.5,-79.5 289.5,-58.5 176.5,-58.5"/>
<text text-anchor="middle" x="233" y="-66.5" font-family="Helvetica,sans-Serif" font-size="10.00">Network&#45;Music/tone.h</text>
</g>
<!-- Node2 -->
<g id="node3" class="node"><title>Node2</title>
<a xlink:href="audiooutput_8cpp.html" target="_top" xlink:title="Network&#45;Music/audiooutput.cpp">
<polygon fill="white" stroke="black" points="-0.5,-0.5 -0.5,-21.5 154.5,-21.5 154.5,-0.5 -0.5,-0.5"/>
<text text-anchor="middle" x="77" y="-8.5" font-family="Helvetica,sans-Serif" font-size="10.00">Network&#45;Music/audiooutput.cpp</text>
</a>
</g>
<!-- Node1&#45;&gt;Node2 -->
<g id="edge2" class="edge"><title>Node1&#45;&gt;Node2</title>
<path fill="none" stroke="midnightblue" d="M195.37,-55.0095C167.648,-44.7023 130.532,-30.903 105.303,-21.5231"/>
<polygon fill="midnightblue" stroke="midnightblue" points="194.157,-58.2923 204.75,-58.4966 196.596,-51.7311 194.157,-58.2923"/>
</g>
<!-- Node3 -->
<g id="node5" class="node"><title>Node3</title>
<a xlink:href="tone_8cpp.html" target="_top" xlink:title="Network&#45;Music/tone.cpp">
<polygon fill="white" stroke="black" points="171.5,-0.5 171.5,-21.5 294.5,-21.5 294.5,-0.5 171.5,-0.5"/>
<text text-anchor="middle" x="233" y="-8.5" font-family="Helvetica,sans-Serif" font-size="10.00">Network&#45;Music/tone.cpp</text>
</a>
</g>
<!-- Node1&#45;&gt;Node3 -->
<g id="edge4" class="edge"><title>Node1&#45;&gt;Node3</title>
<path fill="none" stroke="midnightblue" d="M233,-48.1906C233,-39.1684 233,-28.9941 233,-21.5707"/>
<polygon fill="midnightblue" stroke="midnightblue" points="229.5,-48.3619 233,-58.3619 236.5,-48.3619 229.5,-48.3619"/>
</g>
<!-- Node4 -->
<g id="node7" class="node"><title>Node4</title>
<a xlink:href="tonemanager_8cpp.html" target="_top" xlink:title="Network&#45;Music/tonemanager.cpp">
<polygon fill="white" stroke="black" points="311.5,-0.5 311.5,-21.5 472.5,-21.5 472.5,-0.5 311.5,-0.5"/>
<text text-anchor="middle" x="392" y="-8.5" font-family="Helvetica,sans-Serif" font-size="10.00">Network&#45;Music/tonemanager.cpp</text>
</a>
</g>
<!-- Node1&#45;&gt;Node4 -->
<g id="edge6" class="edge"><title>Node1&#45;&gt;Node4</title>
<path fill="none" stroke="midnightblue" d="M271.353,-55.0095C299.609,-44.7023 337.438,-30.903 363.152,-21.5231"/>
<polygon fill="midnightblue" stroke="midnightblue" points="269.989,-51.7816 261.794,-58.4966 272.388,-58.3577 269.989,-51.7816"/>
</g>
</g>
</svg>
