<?xml version="1.0" encoding="UTF-8" standalone="no"?>
<!DOCTYPE svg PUBLIC "-//W3C//DTD SVG 1.1//EN"
 "http://www.w3.org/Graphics/SVG/1.1/DTD/svg11.dtd">
<!-- Generated by graphviz version 2.26.3 (20100126.1600)
 -->
<!-- Title: Network&#45;Music/tonemanager.h Pages: 1 -->
<svg width="280pt" height="88pt"
 viewBox="0.00 0.00 280.00 88.00" xmlns="http://www.w3.org/2000/svg" xmlns:xlink="http://www.w3.org/1999/xlink">
<g id="graph1" class="graph" transform="scale(1 1) rotate(0) translate(4 84)">
<title>Network&#45;Music/tonemanager.h</title>
<polygon fill="white" stroke="white" points="-4,5 -4,-84 277,-84 277,5 -4,5"/>
<!-- Node1 -->
<g id="node1" class="node"><title>Node1</title>
<polygon fill="#bfbfbf" stroke="black" points="48,-58.5 48,-79.5 198,-79.5 198,-58.5 48,-58.5"/>
<text text-anchor="middle" x="123" y="-66.5" font-family="Helvetica,sans-Serif" font-size="10.00">Network&#45;Music/tonemanager.h</text>
</g>
<!-- Node2 -->
<g id="node3" class="node"><title>Node2</title>
<polygon fill="white" stroke="#bfbfbf" points="-0.5,-0.5 -0.5,-21.5 52.5,-21.5 52.5,-0.5 -0.5,-0.5"/>
<text text-anchor="middle" x="26" y="-8.5" font-family="Helvetica,sans-Serif" font-size="10.00">QObject</text>
</g>
<!-- Node1&#45;&gt;Node2 -->
<g id="edge2" class="edge"><title>Node1&#45;&gt;Node2</title>
<path fill="none" stroke="midnightblue" d="M105.209,-58.3619C90.4415,-49.532 69.2218,-36.844 52.4616,-26.8224"/>
<polygon fill="midnightblue" stroke="midnightblue" points="54.0574,-23.6987 43.6785,-21.5707 50.4651,-29.7066 54.0574,-23.6987"/>
</g>
<!-- Node3 -->
<g id="node5" class="node"><title>Node3</title>
<polygon fill="white" stroke="#bfbfbf" points="69.5,-0.5 69.5,-21.5 116.5,-21.5 116.5,-0.5 69.5,-0.5"/>
<text text-anchor="middle" x="93" y="-8.5" font-family="Helvetica,sans-Serif" font-size="10.00">QHash</text>
</g>
<!-- Node1&#45;&gt;Node3 -->
<g id="edge4" class="edge"><title>Node1&#45;&gt;Node3</title>
<path fill="none" stroke="midnightblue" d="M117.498,-58.3619C113.48,-50.5949 107.919,-39.8426 103.11,-30.5458"/>
<polygon fill="midnightblue" stroke="midnightblue" points="106.171,-28.8448 98.4676,-21.5707 99.9531,-32.0608 106.171,-28.8448"/>
</g>
<!-- Node4 -->
<g id="node7" class="node"><title>Node4</title>
<polygon fill="white" stroke="#bfbfbf" points="134,-0.5 134,-21.5 174,-21.5 174,-0.5 134,-0.5"/>
<text text-anchor="middle" x="154" y="-8.5" font-family="Helvetica,sans-Serif" font-size="10.00">QList</text>
</g>
<!-- Node1&#45;&gt;Node4 -->
<g id="edge6" class="edge"><title>Node1&#45;&gt;Node4</title>
<path fill="none" stroke="midnightblue" d="M128.686,-58.3619C132.837,-50.5949 138.584,-39.8426 143.553,-30.5458"/>
<polygon fill="midnightblue" stroke="midnightblue" points="146.723,-32.0398 148.35,-21.5707 140.55,-28.7401 146.723,-32.0398"/>
</g>
<!-- Node5 -->
<g id="node9" class="node"><title>Node5</title>
<polygon fill="white" stroke="#bfbfbf" points="192,-0.5 192,-21.5 272,-21.5 272,-0.5 192,-0.5"/>
<text text-anchor="middle" x="232" y="-8.5" font-family="Helvetica,sans-Serif" font-size="10.00">QAudioFormat</text>
</g>
<!-- Node1&#45;&gt;Node5 -->
<g id="edge8" class="edge"><title>Node1&#45;&gt;Node5</title>
<path fill="none" stroke="midnightblue" d="M142.739,-58.4966C159.61,-49.5194 184.109,-36.4835 203.174,-26.3387"/>
<polygon fill="midnightblue" stroke="midnightblue" points="204.856,-29.4086 212.039,-21.6212 201.567,-23.2289 204.856,-29.4086"/>
</g>
</g>
</svg>
