<?xml version="1.0" encoding="UTF-8" standalone="no"?>
<!DOCTYPE svg PUBLIC "-//W3C//DTD SVG 1.1//EN"
 "http://www.w3.org/Graphics/SVG/1.1/DTD/svg11.dtd">
<!-- Generated by graphviz version 2.26.3 (20100126.1600)
 -->
<!-- Title: Network&#45;Music/tone.cpp Pages: 1 -->
<svg width="1768pt" height="204pt"
 viewBox="0.00 0.00 1768.00 204.00" xmlns="http://www.w3.org/2000/svg" xmlns:xlink="http://www.w3.org/1999/xlink">
<g id="graph1" class="graph" transform="scale(1 1) rotate(0) translate(4 200)">
<title>Network&#45;Music/tone.cpp</title>
<polygon fill="white" stroke="white" points="-4,5 -4,-200 1765,-200 1765,5 -4,5"/>
<!-- Node1 -->
<g id="node1" class="node"><title>Node1</title>
<polygon fill="#bfbfbf" stroke="black" points="880.5,-174.5 880.5,-195.5 1003.5,-195.5 1003.5,-174.5 880.5,-174.5"/>
<text text-anchor="middle" x="942" y="-182.5" font-family="Helvetica,sans-Serif" font-size="10.00">Network&#45;Music/tone.cpp</text>
</g>
<!-- Node2 -->
<g id="node3" class="node"><title>Node2</title>
<a xlink:href="tone_8h.html" target="_top" xlink:title="tone.h">
<polygon fill="white" stroke="black" points="169,-116.5 169,-137.5 213,-137.5 213,-116.5 169,-116.5"/>
<text text-anchor="middle" x="191" y="-124.5" font-family="Helvetica,sans-Serif" font-size="10.00">tone.h</text>
</a>
</g>
<!-- Node1&#45;&gt;Node2 -->
<g id="edge2" class="edge"><title>Node1&#45;&gt;Node2</title>
<path fill="none" stroke="midnightblue" d="M880.223,-180.229C727.945,-168.468 338.605,-138.4 223.512,-129.511"/>
<polygon fill="midnightblue" stroke="midnightblue" points="223.487,-125.999 213.247,-128.718 222.948,-132.978 223.487,-125.999"/>
</g>
<!-- Node9 -->
<g id="node17" class="node"><title>Node9</title>
<a xlink:href="audiooutput_8h.html" target="_top" xlink:title="audiooutput.h">
<polygon fill="white" stroke="black" points="864.5,-116.5 864.5,-137.5 939.5,-137.5 939.5,-116.5 864.5,-116.5"/>
<text text-anchor="middle" x="902" y="-124.5" font-family="Helvetica,sans-Serif" font-size="10.00">audiooutput.h</text>
</a>
</g>
<!-- Node1&#45;&gt;Node9 -->
<g id="edge16" class="edge"><title>Node1&#45;&gt;Node9</title>
<path fill="none" stroke="midnightblue" d="M934.663,-174.362C929.194,-166.431 921.578,-155.389 915.076,-145.961"/>
<polygon fill="midnightblue" stroke="midnightblue" points="917.849,-143.816 909.29,-137.571 912.086,-147.79 917.849,-143.816"/>
</g>
<!-- Node26 -->
<g id="node54" class="node"><title>Node26</title>
<polygon fill="white" stroke="#bfbfbf" points="956.5,-116.5 956.5,-137.5 1009.5,-137.5 1009.5,-116.5 956.5,-116.5"/>
<text text-anchor="middle" x="983" y="-124.5" font-family="Helvetica,sans-Serif" font-size="10.00">QDebug</text>
</g>
<!-- Node1&#45;&gt;Node26 -->
<g id="edge56" class="edge"><title>Node1&#45;&gt;Node26</title>
<path fill="none" stroke="midnightblue" d="M949.52,-174.362C955.126,-166.431 962.932,-155.389 969.597,-145.961"/>
<polygon fill="midnightblue" stroke="midnightblue" points="972.613,-147.757 975.528,-137.571 966.897,-143.716 972.613,-147.757"/>
</g>
<!-- Node27 -->
<g id="node56" class="node"><title>Node27</title>
<polygon fill="white" stroke="#bfbfbf" points="1027,-116.5 1027,-137.5 1081,-137.5 1081,-116.5 1027,-116.5"/>
<text text-anchor="middle" x="1054" y="-124.5" font-family="Helvetica,sans-Serif" font-size="10.00">QThread</text>
</g>
<!-- Node1&#45;&gt;Node27 -->
<g id="edge58" class="edge"><title>Node1&#45;&gt;Node27</title>
<path fill="none" stroke="midnightblue" d="M962.282,-174.497C979.618,-165.519 1004.79,-152.484 1024.38,-142.339"/>
<polygon fill="midnightblue" stroke="midnightblue" points="1026.22,-145.328 1033.49,-137.621 1023,-139.112 1026.22,-145.328"/>
</g>
<!-- Node3 -->
<g id="node5" class="node"><title>Node3</title>
<polygon fill="white" stroke="#bfbfbf" points="0,-58.5 0,-79.5 96,-79.5 96,-58.5 0,-58.5"/>
<text text-anchor="middle" x="48" y="-66.5" font-family="Helvetica,sans-Serif" font-size="10.00">QAudioDeviceInfo</text>
</g>
<!-- Node2&#45;&gt;Node3 -->
<g id="edge4" class="edge"><title>Node2&#45;&gt;Node3</title>
<path fill="none" stroke="midnightblue" d="M168.97,-118.065C146.153,-108.81 110.153,-94.209 83.3503,-83.3379"/>
<polygon fill="midnightblue" stroke="midnightblue" points="84.5154,-80.0336 73.9331,-79.5183 81.8844,-86.5203 84.5154,-80.0336"/>
</g>
<!-- Node4 -->
<g id="node7" class="node"><title>Node4</title>
<polygon fill="white" stroke="#bfbfbf" points="196,-58.5 196,-79.5 274,-79.5 274,-58.5 196,-58.5"/>
<text text-anchor="middle" x="235" y="-66.5" font-family="Helvetica,sans-Serif" font-size="10.00">QAudioOutput</text>
</g>
<!-- Node2&#45;&gt;Node4 -->
<g id="edge6" class="edge"><title>Node2&#45;&gt;Node4</title>
<path fill="none" stroke="midnightblue" d="M199.07,-116.362C205.149,-108.35 213.637,-97.1605 220.837,-87.6696"/>
<polygon fill="midnightblue" stroke="midnightblue" points="223.725,-89.653 226.981,-79.5707 218.149,-85.4222 223.725,-89.653"/>
</g>
<!-- Node5 -->
<g id="node9" class="node"><title>Node5</title>
<a xlink:href="generator_8h.html" target="_top" xlink:title="generator.h">
<polygon fill="white" stroke="black" points="113.5,-58.5 113.5,-79.5 178.5,-79.5 178.5,-58.5 113.5,-58.5"/>
<text text-anchor="middle" x="146" y="-66.5" font-family="Helvetica,sans-Serif" font-size="10.00">generator.h</text>
</a>
</g>
<!-- Node2&#45;&gt;Node5 -->
<g id="edge8" class="edge"><title>Node2&#45;&gt;Node5</title>
<path fill="none" stroke="midnightblue" d="M182.746,-116.362C176.53,-108.35 167.849,-97.1605 160.485,-87.6696"/>
<polygon fill="midnightblue" stroke="midnightblue" points="163.097,-85.326 154.201,-79.5707 157.566,-89.617 163.097,-85.326"/>
</g>
<!-- Node6 -->
<g id="node11" class="node"><title>Node6</title>
<polygon fill="white" stroke="#bfbfbf" points="236,-0.5 236,-21.5 304,-21.5 304,-0.5 236,-0.5"/>
<text text-anchor="middle" x="270" y="-8.5" font-family="Helvetica,sans-Serif" font-size="10.00">QByteArray</text>
</g>
<!-- Node5&#45;&gt;Node6 -->
<g id="edge10" class="edge"><title>Node5&#45;&gt;Node6</title>
<path fill="none" stroke="midnightblue" d="M168.455,-58.4966C187.91,-49.397 216.28,-36.1273 238.091,-25.9253"/>
<polygon fill="midnightblue" stroke="midnightblue" points="239.717,-29.0285 247.293,-21.6212 236.752,-22.6878 239.717,-29.0285"/>
</g>
<!-- Node7 -->
<g id="node13" class="node"><title>Node7</title>
<polygon fill="white" stroke="#bfbfbf" points="951.5,-0.5 951.5,-21.5 1016.5,-21.5 1016.5,-0.5 951.5,-0.5"/>
<text text-anchor="middle" x="984" y="-8.5" font-family="Helvetica,sans-Serif" font-size="10.00">QIODevice</text>
</g>
<!-- Node5&#45;&gt;Node7 -->
<g id="edge12" class="edge"><title>Node5&#45;&gt;Node7</title>
<path fill="none" stroke="midnightblue" d="M178.544,-59.6289C181.388,-59.0047 184.235,-58.4476 187,-58 334.335,-34.1458 797.82,-17.1642 941.261,-12.3738"/>
<polygon fill="midnightblue" stroke="midnightblue" points="941.54,-15.8666 951.418,-12.0372 941.308,-8.87043 941.54,-15.8666"/>
</g>
<!-- Node8 -->
<g id="node15" class="node"><title>Node8</title>
<polygon fill="white" stroke="#bfbfbf" points="106,-0.5 106,-21.5 186,-21.5 186,-0.5 106,-0.5"/>
<text text-anchor="middle" x="146" y="-8.5" font-family="Helvetica,sans-Serif" font-size="10.00">QAudioFormat</text>
</g>
<!-- Node5&#45;&gt;Node8 -->
<g id="edge14" class="edge"><title>Node5&#45;&gt;Node8</title>
<path fill="none" stroke="midnightblue" d="M146,-58.3619C146,-50.9219 146,-40.7427 146,-31.7276"/>
<polygon fill="midnightblue" stroke="midnightblue" points="149.5,-31.5706 146,-21.5707 142.5,-31.5707 149.5,-31.5706"/>
</g>
<!-- Node9&#45;&gt;Node4 -->
<g id="edge20" class="edge"><title>Node9&#45;&gt;Node4</title>
<path fill="none" stroke="midnightblue" d="M864.441,-125.802C768.19,-122.369 505.003,-110.696 288,-80 286.744,-79.8223 285.473,-79.6328 284.192,-79.4331"/>
<polygon fill="midnightblue" stroke="midnightblue" points="284.711,-75.9711 274.263,-77.7337 283.53,-82.8708 284.711,-75.9711"/>
</g>
<!-- Node9&#45;&gt;Node6 -->
<g id="edge22" class="edge"><title>Node9&#45;&gt;Node6</title>
<path fill="none" stroke="midnightblue" d="M864.462,-125.759C743.398,-121.512 368.372,-106.343 321,-80 301.378,-69.0887 287.183,-47.1085 278.826,-30.875"/>
<polygon fill="midnightblue" stroke="midnightblue" points="281.879,-29.1464 274.381,-21.6604 275.574,-32.1879 281.879,-29.1464"/>
</g>
<!-- Node9&#45;&gt;Node7 -->
<g id="edge26" class="edge"><title>Node9&#45;&gt;Node7</title>
<path fill="none" stroke="midnightblue" d="M939.55,-117.451C942.398,-116.901 945.238,-116.408 948,-116 1015.72,-106.001 1516.03,-129.796 1563,-80 1569.71,-72.8869 1569.63,-65.1882 1563,-58 1544.84,-38.3066 1157.9,-18.9236 1026.91,-12.9045"/>
<polygon fill="midnightblue" stroke="midnightblue" points="1026.99,-9.4047 1016.84,-12.4451 1026.67,-16.3974 1026.99,-9.4047"/>
</g>
<!-- Node10 -->
<g id="node19" class="node"><title>Node10</title>
<polygon fill="white" stroke="#bfbfbf" points="1353.5,-58.5 1353.5,-79.5 1400.5,-79.5 1400.5,-58.5 1353.5,-58.5"/>
<text text-anchor="middle" x="1377" y="-66.5" font-family="Helvetica,sans-Serif" font-size="10.00">math.h</text>
</g>
<!-- Node9&#45;&gt;Node10 -->
<g id="edge18" class="edge"><title>Node9&#45;&gt;Node10</title>
<path fill="none" stroke="midnightblue" d="M939.566,-117.55C942.41,-116.978 945.245,-116.452 948,-116 1119.59,-87.8552 1169.89,-115.981 1343.44,-79.9308"/>
<polygon fill="midnightblue" stroke="midnightblue" points="1344.36,-83.3138 1353.41,-77.8165 1342.91,-76.4659 1344.36,-83.3138"/>
</g>
<!-- Node11 -->
<g id="node23" class="node"><title>Node11</title>
<polygon fill="white" stroke="#bfbfbf" points="1417.5,-58.5 1417.5,-79.5 1490.5,-79.5 1490.5,-58.5 1417.5,-58.5"/>
<text text-anchor="middle" x="1454" y="-66.5" font-family="Helvetica,sans-Serif" font-size="10.00">QComboBox</text>
</g>
<!-- Node9&#45;&gt;Node11 -->
<g id="edge24" class="edge"><title>Node9&#45;&gt;Node11</title>
<path fill="none" stroke="midnightblue" d="M939.56,-117.511C942.406,-116.948 945.242,-116.435 948,-116 1147.74,-84.5189 1204.26,-111.603 1407.17,-80.0897"/>
<polygon fill="midnightblue" stroke="midnightblue" points="1407.93,-83.5133 1417.26,-78.4937 1406.84,-76.5993 1407.93,-83.5133"/>
</g>
<!-- Node12 -->
<g id="node26" class="node"><title>Node12</title>
<polygon fill="white" stroke="#bfbfbf" points="1507.5,-58.5 1507.5,-79.5 1554.5,-79.5 1554.5,-58.5 1507.5,-58.5"/>
<text text-anchor="middle" x="1531" y="-66.5" font-family="Helvetica,sans-Serif" font-size="10.00">QLabel</text>
</g>
<!-- Node9&#45;&gt;Node12 -->
<g id="edge28" class="edge"><title>Node9&#45;&gt;Node12</title>
<path fill="none" stroke="midnightblue" d="M939.554,-117.472C942.401,-116.918 945.24,-116.417 948,-116 1187.34,-79.8317 1256.51,-126.992 1497.31,-79.8985"/>
<polygon fill="midnightblue" stroke="midnightblue" points="1498.3,-83.2704 1507.43,-77.8854 1496.94,-76.405 1498.3,-83.2704"/>
</g>
<!-- Node13 -->
<g id="node28" class="node"><title>Node13</title>
<polygon fill="white" stroke="#bfbfbf" points="1610,-58.5 1610,-79.5 1690,-79.5 1690,-58.5 1610,-58.5"/>
<text text-anchor="middle" x="1650" y="-66.5" font-family="Helvetica,sans-Serif" font-size="10.00">QMainWindow</text>
</g>
<!-- Node9&#45;&gt;Node13 -->
<g id="edge30" class="edge"><title>Node9&#45;&gt;Node13</title>
<path fill="none" stroke="midnightblue" d="M939.549,-117.441C942.397,-116.894 945.238,-116.404 948,-116 1233.41,-74.2905 1309.92,-116.885 1596,-80 1597.25,-79.8383 1598.52,-79.6639 1599.8,-79.4787"/>
<polygon fill="midnightblue" stroke="midnightblue" points="1600.4,-82.9278 1609.71,-77.874 1599.28,-76.0178 1600.4,-82.9278"/>
</g>
<!-- Node14 -->
<g id="node30" class="node"><title>Node14</title>
<polygon fill="white" stroke="#bfbfbf" points="1707.5,-58.5 1707.5,-79.5 1760.5,-79.5 1760.5,-58.5 1707.5,-58.5"/>
<text text-anchor="middle" x="1734" y="-66.5" font-family="Helvetica,sans-Serif" font-size="10.00">QObject</text>
</g>
<!-- Node9&#45;&gt;Node14 -->
<g id="edge32" class="edge"><title>Node9&#45;&gt;Node14</title>
<path fill="none" stroke="midnightblue" d="M939.546,-117.418C942.395,-116.876 945.236,-116.393 948,-116 1275.44,-69.4189 1368.12,-137.161 1697.12,-79.9449"/>
<polygon fill="midnightblue" stroke="midnightblue" points="1698.18,-83.3115 1707.42,-78.1261 1696.97,-76.4181 1698.18,-83.3115"/>
</g>
<!-- Node15 -->
<g id="node32" class="node"><title>Node15</title>
<polygon fill="white" stroke="#bfbfbf" points="329.5,-58.5 329.5,-79.5 404.5,-79.5 404.5,-58.5 329.5,-58.5"/>
<text text-anchor="middle" x="367" y="-66.5" font-family="Helvetica,sans-Serif" font-size="10.00">QPushButton</text>
</g>
<!-- Node9&#45;&gt;Node15 -->
<g id="edge34" class="edge"><title>Node9&#45;&gt;Node15</title>
<path fill="none" stroke="midnightblue" d="M864.346,-125.167C783.584,-120.853 587.639,-108.341 414.618,-80.096"/>
<polygon fill="midnightblue" stroke="midnightblue" points="415.006,-76.6127 404.569,-78.4332 413.863,-83.5188 415.006,-76.6127"/>
</g>
<!-- Node16 -->
<g id="node34" class="node"><title>Node16</title>
<polygon fill="white" stroke="#bfbfbf" points="421.5,-58.5 421.5,-79.5 470.5,-79.5 470.5,-58.5 421.5,-58.5"/>
<text text-anchor="middle" x="446" y="-66.5" font-family="Helvetica,sans-Serif" font-size="10.00">QSlider</text>
</g>
<!-- Node9&#45;&gt;Node16 -->
<g id="edge36" class="edge"><title>Node9&#45;&gt;Node16</title>
<path fill="none" stroke="midnightblue" d="M864.221,-125.476C791.41,-121.967 626.629,-111.247 480.734,-80.0427"/>
<polygon fill="midnightblue" stroke="midnightblue" points="481.225,-76.5675 470.709,-77.8591 479.735,-83.4071 481.225,-76.5675"/>
</g>
<!-- Node17 -->
<g id="node36" class="node"><title>Node17</title>
<polygon fill="white" stroke="#bfbfbf" points="487.5,-58.5 487.5,-79.5 536.5,-79.5 536.5,-58.5 487.5,-58.5"/>
<text text-anchor="middle" x="512" y="-66.5" font-family="Helvetica,sans-Serif" font-size="10.00">QTimer</text>
</g>
<!-- Node9&#45;&gt;Node17 -->
<g id="edge38" class="edge"><title>Node9&#45;&gt;Node17</title>
<path fill="none" stroke="midnightblue" d="M864.319,-124.416C800.474,-119.525 666.964,-107.087 546.48,-80.0339"/>
<polygon fill="midnightblue" stroke="midnightblue" points="547.25,-76.6198 536.721,-77.8037 545.69,-83.4438 547.25,-76.6198"/>
</g>
<!-- Node18 -->
<g id="node38" class="node"><title>Node18</title>
<polygon fill="white" stroke="#bfbfbf" points="553.5,-58.5 553.5,-79.5 600.5,-79.5 600.5,-58.5 553.5,-58.5"/>
<text text-anchor="middle" x="577" y="-66.5" font-family="Helvetica,sans-Serif" font-size="10.00">QHash</text>
</g>
<!-- Node9&#45;&gt;Node18 -->
<g id="edge40" class="edge"><title>Node9&#45;&gt;Node18</title>
<path fill="none" stroke="midnightblue" d="M864.117,-123.035C809.739,-116.885 706.37,-103.491 610.48,-80.0777"/>
<polygon fill="midnightblue" stroke="midnightblue" points="611.178,-76.6448 600.629,-77.6299 609.49,-83.4382 611.178,-76.6448"/>
</g>
<!-- Node19 -->
<g id="node40" class="node"><title>Node19</title>
<polygon fill="white" stroke="#bfbfbf" points="618,-58.5 618,-79.5 686,-79.5 686,-58.5 618,-58.5"/>
<text text-anchor="middle" x="652" y="-66.5" font-family="Helvetica,sans-Serif" font-size="10.00">QStatusBar</text>
</g>
<!-- Node9&#45;&gt;Node19 -->
<g id="edge42" class="edge"><title>Node9&#45;&gt;Node19</title>
<path fill="none" stroke="midnightblue" d="M864.155,-118.731C824.626,-110.022 760.571,-95.709 696.165,-80.2408"/>
<polygon fill="midnightblue" stroke="midnightblue" points="696.788,-76.7909 686.247,-77.8501 695.148,-83.596 696.788,-76.7909"/>
</g>
<!-- Node20 -->
<g id="node42" class="node"><title>Node20</title>
<polygon fill="white" stroke="#bfbfbf" points="703.5,-58.5 703.5,-79.5 764.5,-79.5 764.5,-58.5 703.5,-58.5"/>
<text text-anchor="middle" x="734" y="-66.5" font-family="Helvetica,sans-Serif" font-size="10.00">QSpinBox</text>
</g>
<!-- Node9&#45;&gt;Node20 -->
<g id="edge44" class="edge"><title>Node9&#45;&gt;Node20</title>
<path fill="none" stroke="midnightblue" d="M871.576,-116.497C844.306,-107.082 804.107,-93.2036 774.196,-82.8773"/>
<polygon fill="midnightblue" stroke="midnightblue" points="775.075,-79.4781 764.481,-79.5231 772.791,-86.0949 775.075,-79.4781"/>
</g>
<!-- Node21 -->
<g id="node44" class="node"><title>Node21</title>
<polygon fill="white" stroke="#bfbfbf" points="781.5,-58.5 781.5,-79.5 894.5,-79.5 894.5,-58.5 781.5,-58.5"/>
<text text-anchor="middle" x="838" y="-66.5" font-family="Helvetica,sans-Serif" font-size="10.00">QtCharts/QChartView</text>
</g>
<!-- Node9&#45;&gt;Node21 -->
<g id="edge46" class="edge"><title>Node9&#45;&gt;Node21</title>
<path fill="none" stroke="midnightblue" d="M890.261,-116.362C881.059,-108.023 868.06,-96.2418 857.328,-86.5162"/>
<polygon fill="midnightblue" stroke="midnightblue" points="859.424,-83.6924 849.664,-79.5707 854.724,-88.8793 859.424,-83.6924"/>
</g>
<!-- Node22 -->
<g id="node46" class="node"><title>Node22</title>
<polygon fill="white" stroke="#bfbfbf" points="911.5,-58.5 911.5,-79.5 1020.5,-79.5 1020.5,-58.5 911.5,-58.5"/>
<text text-anchor="middle" x="966" y="-66.5" font-family="Helvetica,sans-Serif" font-size="10.00">QtCharts/QPieSeries</text>
</g>
<!-- Node9&#45;&gt;Node22 -->
<g id="edge48" class="edge"><title>Node9&#45;&gt;Node22</title>
<path fill="none" stroke="midnightblue" d="M913.739,-116.362C922.941,-108.023 935.94,-96.2418 946.672,-86.5162"/>
<polygon fill="midnightblue" stroke="midnightblue" points="949.276,-88.8793 954.336,-79.5707 944.576,-83.6924 949.276,-88.8793"/>
</g>
<!-- Node23 -->
<g id="node48" class="node"><title>Node23</title>
<polygon fill="white" stroke="#bfbfbf" points="1037.5,-58.5 1037.5,-79.5 1140.5,-79.5 1140.5,-58.5 1037.5,-58.5"/>
<text text-anchor="middle" x="1089" y="-66.5" font-family="Helvetica,sans-Serif" font-size="10.00">QtCharts/QPieSlice</text>
</g>
<!-- Node9&#45;&gt;Node23 -->
<g id="edge50" class="edge"><title>Node9&#45;&gt;Node23</title>
<path fill="none" stroke="midnightblue" d="M935.864,-116.497C966.482,-107 1011.74,-92.9619 1045.12,-82.6087"/>
<polygon fill="midnightblue" stroke="midnightblue" points="1046.56,-85.8284 1055.07,-79.5231 1044.48,-79.1426 1046.56,-85.8284"/>
</g>
<!-- Node24 -->
<g id="node50" class="node"><title>Node24</title>
<polygon fill="white" stroke="#bfbfbf" points="1158,-58.5 1158,-79.5 1214,-79.5 1214,-58.5 1158,-58.5"/>
<text text-anchor="middle" x="1186" y="-66.5" font-family="Helvetica,sans-Serif" font-size="10.00">QtCharts</text>
</g>
<!-- Node9&#45;&gt;Node24 -->
<g id="edge52" class="edge"><title>Node9&#45;&gt;Node24</title>
<path fill="none" stroke="midnightblue" d="M939.616,-117.819C942.449,-117.184 945.267,-116.571 948,-116 1033.71,-98.0913 1058.94,-100.743 1147.83,-80.0883"/>
<polygon fill="midnightblue" stroke="midnightblue" points="1148.88,-83.4376 1157.81,-77.7355 1147.27,-76.6245 1148.88,-83.4376"/>
</g>
<!-- Node25 -->
<g id="node52" class="node"><title>Node25</title>
<polygon fill="white" stroke="#bfbfbf" points="1232,-58.5 1232,-79.5 1336,-79.5 1336,-58.5 1232,-58.5"/>
<text text-anchor="middle" x="1284" y="-66.5" font-family="Helvetica,sans-Serif" font-size="10.00">QtDataVisualization</text>
</g>
<!-- Node9&#45;&gt;Node25 -->
<g id="edge54" class="edge"><title>Node9&#45;&gt;Node25</title>
<path fill="none" stroke="midnightblue" d="M939.587,-117.673C942.427,-117.073 945.255,-116.507 948,-116 1066.02,-94.2251 1099.45,-98.6825 1221.66,-80.1445"/>
<polygon fill="midnightblue" stroke="midnightblue" points="1222.43,-83.5665 1231.78,-78.5869 1221.37,-76.6478 1222.43,-83.5665"/>
</g>
</g>
</svg>
