<?xml version="1.0" encoding="UTF-8" standalone="no"?>
<!DOCTYPE svg PUBLIC "-//W3C//DTD SVG 1.1//EN"
 "http://www.w3.org/Graphics/SVG/1.1/DTD/svg11.dtd">
<!-- Generated by graphviz version 2.26.3 (20100126.1600)
 -->
<!-- Title: Network&#45;Music/tone.h Pages: 1 -->
<svg width="380pt" height="146pt"
 viewBox="0.00 0.00 380.00 146.00" xmlns="http://www.w3.org/2000/svg" xmlns:xlink="http://www.w3.org/1999/xlink">
<g id="graph1" class="graph" transform="scale(1 1) rotate(0) translate(4 142)">
<title>Network&#45;Music/tone.h</title>
<polygon fill="white" stroke="white" points="-4,5 -4,-142 377,-142 377,5 -4,5"/>
<!-- Node1 -->
<g id="node1" class="node"><title>Node1</title>
<polygon fill="#bfbfbf" stroke="black" points="96.5,-116.5 96.5,-137.5 209.5,-137.5 209.5,-116.5 96.5,-116.5"/>
<text text-anchor="middle" x="153" y="-124.5" font-family="Helvetica,sans-Serif" font-size="10.00">Network&#45;Music/tone.h</text>
</g>
<!-- Node2 -->
<g id="node3" class="node"><title>Node2</title>
<polygon fill="white" stroke="#bfbfbf" points="0,-58.5 0,-79.5 96,-79.5 96,-58.5 0,-58.5"/>
<text text-anchor="middle" x="48" y="-66.5" font-family="Helvetica,sans-Serif" font-size="10.00">QAudioDeviceInfo</text>
</g>
<!-- Node1&#45;&gt;Node2 -->
<g id="edge2" class="edge"><title>Node1&#45;&gt;Node2</title>
<path fill="none" stroke="midnightblue" d="M133.741,-116.362C117.534,-107.409 94.1471,-94.4908 75.8909,-84.4064"/>
<polygon fill="midnightblue" stroke="midnightblue" points="77.5822,-81.3422 67.1365,-79.5707 74.1976,-87.4696 77.5822,-81.3422"/>
</g>
<!-- Node3 -->
<g id="node5" class="node"><title>Node3</title>
<polygon fill="white" stroke="#bfbfbf" points="114,-58.5 114,-79.5 192,-79.5 192,-58.5 114,-58.5"/>
<text text-anchor="middle" x="153" y="-66.5" font-family="Helvetica,sans-Serif" font-size="10.00">QAudioOutput</text>
</g>
<!-- Node1&#45;&gt;Node3 -->
<g id="edge4" class="edge"><title>Node1&#45;&gt;Node3</title>
<path fill="none" stroke="midnightblue" d="M153,-116.362C153,-108.922 153,-98.7427 153,-89.7276"/>
<polygon fill="midnightblue" stroke="midnightblue" points="156.5,-89.5706 153,-79.5707 149.5,-89.5707 156.5,-89.5706"/>
</g>
<!-- Node4 -->
<g id="node7" class="node"><title>Node4</title>
<a xlink:href="generator_8h.html" target="_top" xlink:title="generator.h">
<polygon fill="white" stroke="black" points="209.5,-58.5 209.5,-79.5 274.5,-79.5 274.5,-58.5 209.5,-58.5"/>
<text text-anchor="middle" x="242" y="-66.5" font-family="Helvetica,sans-Serif" font-size="10.00">generator.h</text>
</a>
</g>
<!-- Node1&#45;&gt;Node4 -->
<g id="edge6" class="edge"><title>Node1&#45;&gt;Node4</title>
<path fill="none" stroke="midnightblue" d="M169.324,-116.362C182.748,-107.614 201.983,-95.0786 217.293,-85.1015"/>
<polygon fill="midnightblue" stroke="midnightblue" points="219.312,-87.9628 225.78,-79.5707 215.491,-82.0982 219.312,-87.9628"/>
</g>
<!-- Node5 -->
<g id="node9" class="node"><title>Node5</title>
<polygon fill="white" stroke="#bfbfbf" points="124,-0.5 124,-21.5 192,-21.5 192,-0.5 124,-0.5"/>
<text text-anchor="middle" x="158" y="-8.5" font-family="Helvetica,sans-Serif" font-size="10.00">QByteArray</text>
</g>
<!-- Node4&#45;&gt;Node5 -->
<g id="edge8" class="edge"><title>Node4&#45;&gt;Node5</title>
<path fill="none" stroke="midnightblue" d="M226.593,-58.3619C214.042,-49.6955 196.108,-37.3126 181.725,-27.3819"/>
<polygon fill="midnightblue" stroke="midnightblue" points="183.527,-24.3725 173.309,-21.5707 179.55,-30.1327 183.527,-24.3725"/>
</g>
<!-- Node6 -->
<g id="node11" class="node"><title>Node6</title>
<polygon fill="white" stroke="#bfbfbf" points="209.5,-0.5 209.5,-21.5 274.5,-21.5 274.5,-0.5 209.5,-0.5"/>
<text text-anchor="middle" x="242" y="-8.5" font-family="Helvetica,sans-Serif" font-size="10.00">QIODevice</text>
</g>
<!-- Node4&#45;&gt;Node6 -->
<g id="edge10" class="edge"><title>Node4&#45;&gt;Node6</title>
<path fill="none" stroke="midnightblue" d="M242,-58.3619C242,-50.9219 242,-40.7427 242,-31.7276"/>
<polygon fill="midnightblue" stroke="midnightblue" points="245.5,-31.5706 242,-21.5707 238.5,-31.5707 245.5,-31.5706"/>
</g>
<!-- Node7 -->
<g id="node13" class="node"><title>Node7</title>
<polygon fill="white" stroke="#bfbfbf" points="292,-0.5 292,-21.5 372,-21.5 372,-0.5 292,-0.5"/>
<text text-anchor="middle" x="332" y="-8.5" font-family="Helvetica,sans-Serif" font-size="10.00">QAudioFormat</text>
</g>
<!-- Node4&#45;&gt;Node7 -->
<g id="edge12" class="edge"><title>Node4&#45;&gt;Node7</title>
<path fill="none" stroke="midnightblue" d="M258.507,-58.3619C272.082,-49.6138 291.533,-37.0786 307.015,-27.1015"/>
<polygon fill="midnightblue" stroke="midnightblue" points="309.088,-29.9297 315.597,-21.5707 305.296,-24.0457 309.088,-29.9297"/>
</g>
</g>
</svg>
