<?xml version="1.0" encoding="UTF-8" standalone="no"?>
<!DOCTYPE svg PUBLIC "-//W3C//DTD SVG 1.1//EN"
 "http://www.w3.org/Graphics/SVG/1.1/DTD/svg11.dtd">
<!-- Generated by graphviz version 2.26.3 (20100126.1600)
 -->
<!-- Title: Network&#45;Music/tonemanager.cpp Pages: 1 -->
<!--zoomable 204 -->
<svg id="main" version="1.1" xmlns="http://www.w3.org/2000/svg" xmlns:xlink="http://www.w3.org/1999/xlink" xml:space="preserve" onload="init(evt)">
        <defs>
                <circle id="rim" cx="0" cy="0" r="7"/>
                <circle id="rim2" cx="0" cy="0" r="3.5"/>
                <g id="zoomPlus">
                        <use xlink:href="#rim" fill="#404040">
                                <set attributeName="fill" to="#808080" begin="zoomplus.mouseover" end="zoomplus.mouseout"/>
                        </use>
                        <path d="M-4,0h8M0,-4v8" fill="none" stroke="white" stroke-width="1.5" pointer-events="none"/>
                </g>
                <g id="zoomMin">
                        <use xlink:href="#rim" fill="#404040">
                                <set attributeName="fill" to="#808080" begin="zoomminus.mouseover" end="zoomminus.mouseout"/>
                        </use>
                        <path d="M-4,0h8" fill="none" stroke="white" stroke-width="1.5" pointer-events="none"/>
                </g>
                <g id="dirArrow">
                        <path fill="none" stroke="white" stroke-width="1.5" d="M0,-3.0v7 M-2.5,-0.5L0,-3.0L2.5,-0.5"/>
                </g>
               <g id="resetDef">
                       <use xlink:href="#rim2" fill="#404040">
                               <set attributeName="fill" to="#808080" begin="reset.mouseover" end="reset.mouseout"/>
                       </use>
               </g>
        </defs>

<script type="text/javascript">
var viewWidth = 528;
var viewHeight = 204;
var sectionId = 'dynsection-0';
</script>
<script xlink:href="svgpan.js"/>
<svg id="graph" class="graph">
<g id="viewport">
<title>Network&#45;Music/tonemanager.cpp</title>
<polygon fill="white" stroke="white" points="-4,5 -4,-200 525,-200 525,5 -4,5"/>
<!-- Node1 -->
<g id="node1" class="node"><title>Node1</title>
<polygon fill="#bfbfbf" stroke="black" points="247.5,-174.5 247.5,-195.5 408.5,-195.5 408.5,-174.5 247.5,-174.5"/>
<text text-anchor="middle" x="328" y="-182.5" font-family="Helvetica,sans-Serif" font-size="10.00">Network&#45;Music/tonemanager.cpp</text>
</g>
<!-- Node2 -->
<g id="node3" class="node"><title>Node2</title>
<a xlink:href="tonemanager_8h.html" target="_top" xlink:title="tonemanager.h">
<polygon fill="white" stroke="black" points="113.5,-116.5 113.5,-137.5 194.5,-137.5 194.5,-116.5 113.5,-116.5"/>
<text text-anchor="middle" x="154" y="-124.5" font-family="Helvetica,sans-Serif" font-size="10.00">tonemanager.h</text>
</a>
</g>
<!-- Node1&#45;&gt;Node2 -->
<g id="edge2" class="edge"><title>Node1&#45;&gt;Node2</title>
<path fill="none" stroke="midnightblue" d="M296.49,-174.497C268.123,-165.041 226.249,-151.083 195.228,-140.743"/>
<polygon fill="midnightblue" stroke="midnightblue" points="196.163,-137.365 185.569,-137.523 193.949,-144.006 196.163,-137.365"/>
</g>
<!-- Node7 -->
<g id="node13" class="node"><title>Node7</title>
<a xlink:href="generator_8h.html" target="_top" xlink:title="generator.h">
<polygon fill="white" stroke="black" points="245.5,-58.5 245.5,-79.5 310.5,-79.5 310.5,-58.5 245.5,-58.5"/>
<text text-anchor="middle" x="278" y="-66.5" font-family="Helvetica,sans-Serif" font-size="10.00">generator.h</text>
</a>
</g>
<!-- Node1&#45;&gt;Node7 -->
<g id="edge12" class="edge"><title>Node1&#45;&gt;Node7</title>
<path fill="none" stroke="midnightblue" d="M319.572,-174.367C312.659,-165.194 303.057,-151.352 297,-138 289.952,-122.465 284.999,-103.746 281.921,-89.7275"/>
<polygon fill="midnightblue" stroke="midnightblue" points="285.29,-88.7345 279.85,-79.6429 278.433,-90.1426 285.29,-88.7345"/>
</g>
<!-- Node10 -->
<g id="node20" class="node"><title>Node10</title>
<a xlink:href="tone_8h.html" target="_top" xlink:title="tone.h">
<polygon fill="white" stroke="black" points="306,-116.5 306,-137.5 350,-137.5 350,-116.5 306,-116.5"/>
<text text-anchor="middle" x="328" y="-124.5" font-family="Helvetica,sans-Serif" font-size="10.00">tone.h</text>
</a>
</g>
<!-- Node1&#45;&gt;Node10 -->
<g id="edge20" class="edge"><title>Node1&#45;&gt;Node10</title>
<path fill="none" stroke="midnightblue" d="M328,-174.362C328,-166.922 328,-156.743 328,-147.728"/>
<polygon fill="midnightblue" stroke="midnightblue" points="331.5,-147.571 328,-137.571 324.5,-147.571 331.5,-147.571"/>
</g>
<!-- Node13 -->
<g id="node27" class="node"><title>Node13</title>
<polygon fill="white" stroke="#bfbfbf" points="367.5,-116.5 367.5,-137.5 420.5,-137.5 420.5,-116.5 367.5,-116.5"/>
<text text-anchor="middle" x="394" y="-124.5" font-family="Helvetica,sans-Serif" font-size="10.00">QDebug</text>
</g>
<!-- Node1&#45;&gt;Node13 -->
<g id="edge28" class="edge"><title>Node1&#45;&gt;Node13</title>
<path fill="none" stroke="midnightblue" d="M340.105,-174.362C349.688,-165.941 363.264,-154.011 374.393,-144.231"/>
<polygon fill="midnightblue" stroke="midnightblue" points="376.77,-146.801 381.971,-137.571 372.149,-141.543 376.77,-146.801"/>
</g>
<!-- Node14 -->
<g id="node29" class="node"><title>Node14</title>
<polygon fill="white" stroke="#bfbfbf" points="438,-116.5 438,-137.5 492,-137.5 492,-116.5 438,-116.5"/>
<text text-anchor="middle" x="465" y="-124.5" font-family="Helvetica,sans-Serif" font-size="10.00">QThread</text>
</g>
<!-- Node1&#45;&gt;Node14 -->
<g id="edge30" class="edge"><title>Node1&#45;&gt;Node14</title>
<path fill="none" stroke="midnightblue" d="M352.81,-174.497C374.496,-165.315 406.211,-151.889 430.392,-141.652"/>
<polygon fill="midnightblue" stroke="midnightblue" points="432.068,-144.743 439.912,-137.621 429.339,-138.297 432.068,-144.743"/>
</g>
<!-- Node3 -->
<g id="node5" class="node"><title>Node3</title>
<polygon fill="white" stroke="#bfbfbf" points="-0.5,-58.5 -0.5,-79.5 52.5,-79.5 52.5,-58.5 -0.5,-58.5"/>
<text text-anchor="middle" x="26" y="-66.5" font-family="Helvetica,sans-Serif" font-size="10.00">QObject</text>
</g>
<!-- Node2&#45;&gt;Node3 -->
<g id="edge4" class="edge"><title>Node2&#45;&gt;Node3</title>
<path fill="none" stroke="midnightblue" d="M130.82,-116.497C110.648,-107.356 81.1904,-94.0082 58.6362,-83.7883"/>
<polygon fill="midnightblue" stroke="midnightblue" points="59.9931,-80.5606 49.4399,-79.6212 57.1039,-86.9366 59.9931,-80.5606"/>
</g>
<!-- Node4 -->
<g id="node7" class="node"><title>Node4</title>
<polygon fill="white" stroke="#bfbfbf" points="69.5,-58.5 69.5,-79.5 116.5,-79.5 116.5,-58.5 69.5,-58.5"/>
<text text-anchor="middle" x="93" y="-66.5" font-family="Helvetica,sans-Serif" font-size="10.00">QHash</text>
</g>
<!-- Node2&#45;&gt;Node4 -->
<g id="edge6" class="edge"><title>Node2&#45;&gt;Node4</title>
<path fill="none" stroke="midnightblue" d="M142.812,-116.362C134.041,-108.023 121.651,-96.2418 111.422,-86.5162"/>
<polygon fill="midnightblue" stroke="midnightblue" points="113.776,-83.9248 104.117,-79.5707 108.953,-88.9978 113.776,-83.9248"/>
</g>
<!-- Node5 -->
<g id="node9" class="node"><title>Node5</title>
<polygon fill="white" stroke="#bfbfbf" points="134,-58.5 134,-79.5 174,-79.5 174,-58.5 134,-58.5"/>
<text text-anchor="middle" x="154" y="-66.5" font-family="Helvetica,sans-Serif" font-size="10.00">QList</text>
</g>
<!-- Node2&#45;&gt;Node5 -->
<g id="edge8" class="edge"><title>Node2&#45;&gt;Node5</title>
<path fill="none" stroke="midnightblue" d="M154,-116.362C154,-108.922 154,-98.7427 154,-89.7276"/>
<polygon fill="midnightblue" stroke="midnightblue" points="157.5,-89.5706 154,-79.5707 150.5,-89.5707 157.5,-89.5706"/>
</g>
<!-- Node6 -->
<g id="node11" class="node"><title>Node6</title>
<polygon fill="white" stroke="#bfbfbf" points="154,-0.5 154,-21.5 234,-21.5 234,-0.5 154,-0.5"/>
<text text-anchor="middle" x="194" y="-8.5" font-family="Helvetica,sans-Serif" font-size="10.00">QAudioFormat</text>
</g>
<!-- Node2&#45;&gt;Node6 -->
<g id="edge10" class="edge"><title>Node2&#45;&gt;Node6</title>
<path fill="none" stroke="midnightblue" d="M162.224,-116.434C168.899,-107.302 177.995,-93.4829 183,-80 188.796,-64.3865 191.539,-45.6737 192.837,-31.677"/>
<polygon fill="midnightblue" stroke="midnightblue" points="196.334,-31.848 193.598,-21.6124 189.354,-31.3198 196.334,-31.848"/>
</g>
<!-- Node7&#45;&gt;Node6 -->
<g id="edge18" class="edge"><title>Node7&#45;&gt;Node6</title>
<path fill="none" stroke="midnightblue" d="M262.593,-58.3619C250.042,-49.6955 232.108,-37.3126 217.725,-27.3819"/>
<polygon fill="midnightblue" stroke="midnightblue" points="219.527,-24.3725 209.309,-21.5707 215.55,-30.1327 219.527,-24.3725"/>
</g>
<!-- Node8 -->
<g id="node15" class="node"><title>Node8</title>
<polygon fill="white" stroke="#bfbfbf" points="252,-0.5 252,-21.5 320,-21.5 320,-0.5 252,-0.5"/>
<text text-anchor="middle" x="286" y="-8.5" font-family="Helvetica,sans-Serif" font-size="10.00">QByteArray</text>
</g>
<!-- Node7&#45;&gt;Node8 -->
<g id="edge14" class="edge"><title>Node7&#45;&gt;Node8</title>
<path fill="none" stroke="midnightblue" d="M279.467,-58.3619C280.494,-50.9219 281.898,-40.7427 283.141,-31.7276"/>
<polygon fill="midnightblue" stroke="midnightblue" points="286.643,-31.9551 284.542,-21.5707 279.708,-30.9986 286.643,-31.9551"/>
</g>
<!-- Node9 -->
<g id="node17" class="node"><title>Node9</title>
<polygon fill="white" stroke="#bfbfbf" points="337.5,-0.5 337.5,-21.5 402.5,-21.5 402.5,-0.5 337.5,-0.5"/>
<text text-anchor="middle" x="370" y="-8.5" font-family="Helvetica,sans-Serif" font-size="10.00">QIODevice</text>
</g>
<!-- Node7&#45;&gt;Node9 -->
<g id="edge16" class="edge"><title>Node7&#45;&gt;Node9</title>
<path fill="none" stroke="midnightblue" d="M294.874,-58.3619C308.751,-49.6138 328.634,-37.0786 344.46,-27.1015"/>
<polygon fill="midnightblue" stroke="midnightblue" points="346.64,-29.8645 353.233,-21.5707 342.907,-23.943 346.64,-29.8645"/>
</g>
<!-- Node10&#45;&gt;Node7 -->
<g id="edge26" class="edge"><title>Node10&#45;&gt;Node7</title>
<path fill="none" stroke="midnightblue" d="M318.829,-116.362C311.852,-108.268 302.079,-96.9318 293.844,-87.3796"/>
<polygon fill="midnightblue" stroke="midnightblue" points="296.293,-84.8595 287.113,-79.5707 290.991,-89.4301 296.293,-84.8595"/>
</g>
<!-- Node11 -->
<g id="node22" class="node"><title>Node11</title>
<polygon fill="white" stroke="#bfbfbf" points="328,-58.5 328,-79.5 424,-79.5 424,-58.5 328,-58.5"/>
<text text-anchor="middle" x="376" y="-66.5" font-family="Helvetica,sans-Serif" font-size="10.00">QAudioDeviceInfo</text>
</g>
<!-- Node10&#45;&gt;Node11 -->
<g id="edge22" class="edge"><title>Node10&#45;&gt;Node11</title>
<path fill="none" stroke="midnightblue" d="M336.804,-116.362C343.502,-108.268 352.884,-96.9318 360.789,-87.3796"/>
<polygon fill="midnightblue" stroke="midnightblue" points="363.573,-89.5061 367.252,-79.5707 358.18,-85.0431 363.573,-89.5061"/>
</g>
<!-- Node12 -->
<g id="node24" class="node"><title>Node12</title>
<polygon fill="white" stroke="#bfbfbf" points="442,-58.5 442,-79.5 520,-79.5 520,-58.5 442,-58.5"/>
<text text-anchor="middle" x="481" y="-66.5" font-family="Helvetica,sans-Serif" font-size="10.00">QAudioOutput</text>
</g>
<!-- Node10&#45;&gt;Node12 -->
<g id="edge24" class="edge"><title>Node10&#45;&gt;Node12</title>
<path fill="none" stroke="midnightblue" d="M350.248,-118.566C374.745,-109.279 414.536,-94.1954 443.797,-83.103"/>
<polygon fill="midnightblue" stroke="midnightblue" points="445.17,-86.3259 453.28,-79.5084 442.688,-79.7804 445.17,-86.3259"/>
</g>
</g>
</svg>
        <g id="navigator" transform="translate(0 0)" fill="#404254">
                <rect fill="#f2f5e9" fill-opacity="0.5" stroke="#606060" stroke-width=".5" x="0" y="0" width="60" height="60"/>
                <use id="zoomplus" xlink:href="#zoomPlus" x="17" y="9" onmousedown="handleZoom(evt,'in')"/>
                <use id="zoomminus" xlink:href="#zoomMin" x="42" y="9" onmousedown="handleZoom(evt,'out')"/>
                <use id="reset" xlink:href="#resetDef" x="30" y="36" onmousedown="handleReset()"/>
                <g id="arrowUp" xlink:href="#dirArrow" transform="translate(30 24)" onmousedown="handlePan(0,-1)">
                  <use xlink:href="#rim" fill="#404040">
                        <set attributeName="fill" to="#808080" begin="arrowUp.mouseover" end="arrowUp.mouseout"/>
                  </use>
                  <path fill="none" stroke="white" stroke-width="1.5" d="M0,-3.0v7 M-2.5,-0.5L0,-3.0L2.5,-0.5"/>
                </g>
                <g id="arrowRight" xlink:href="#dirArrow" transform="rotate(90) translate(36 -43)" onmousedown="handlePan(1,0)">
                  <use xlink:href="#rim" fill="#404040">
                        <set attributeName="fill" to="#808080" begin="arrowRight.mouseover" end="arrowRight.mouseout"/>
                  </use>
                  <path fill="none" stroke="white" stroke-width="1.5" d="M0,-3.0v7 M-2.5,-0.5L0,-3.0L2.5,-0.5"/>
                </g>
                <g id="arrowDown" xlink:href="#dirArrow" transform="rotate(180) translate(-30 -48)" onmousedown="handlePan(0,1)">
                  <use xlink:href="#rim" fill="#404040">
                        <set attributeName="fill" to="#808080" begin="arrowDown.mouseover" end="arrowDown.mouseout"/>
                  </use>
                  <path fill="none" stroke="white" stroke-width="1.5" d="M0,-3.0v7 M-2.5,-0.5L0,-3.0L2.5,-0.5"/>
                </g>
                <g id="arrowLeft" xlink:href="#dirArrow" transform="rotate(270) translate(-36 17)" onmousedown="handlePan(-1,0)">
                  <use xlink:href="#rim" fill="#404040">
                        <set attributeName="fill" to="#808080" begin="arrowLeft.mouseover" end="arrowLeft.mouseout"/>
                  </use>
                  <path fill="none" stroke="white" stroke-width="1.5" d="M0,-3.0v7 M-2.5,-0.5L0,-3.0L2.5,-0.5"/>
                </g>
        </g>
        <svg viewBox="0 0 15 15" width="100%" height="30px" preserveAspectRatio="xMaxYMin meet">
         <g id="arrow_out" transform="scale(0.3 0.3)">
          <a xlink:href="tonemanager_8cpp__incl_org.svg" target="_base">
           <rect id="button" ry="5" rx="5" y="6" x="6" height="38" width="38"
                fill="#f2f5e9" fill-opacity="0.5" stroke="#606060" stroke-width="1.0"/>
           <path id="arrow"
             d="M 11.500037,31.436501 C 11.940474,20.09759 22.043105,11.32322 32.158766,21.979434 L 37.068811,17.246167 C 37.068811,17.246167 37.088388,32 37.088388,32 L 22.160133,31.978069 C 22.160133,31.978069 26.997745,27.140456 26.997745,27.140456 C 18.528582,18.264221 13.291696,25.230495 11.500037,31.436501 z"
             style="fill:#404040;"/>
          </a>
         </g>
        </svg>
</svg>
